<?xml version="1.0" encoding="UTF-8"?><svg xmlns="http://www.w3.org/2000/svg" xmlns:xlink="http://www.w3.org/1999/xlink" viewBox="0 0 514.94 123.02"><defs><style>.h{fill:url(#g);}.i{fill:url(#f);}.j{mask:url(#e);}.k{fill:none;}.l{clip-path:url(#d);}</style><clipPath id="d"><path class="k" d="M98.87,19C59.78,41.25,34.36,78.83,4.24,111c-4.24,4.54-1.02,12.02,4.41,6.22,26.64-28.46,49.28-62.22,82.55-83.61C124.35,12.31,166.03,2.32,202.91,20.13c33.49,16.18,57.84,46.14,90.56,63.72,31.42,16.88,67.38,25.16,102.99,24.58,40.49-.67,80.67-12.59,114.08-35.67,2.33-1.61,4.39-4.35,4.23-7.34-.12-2.32-2.15-4.09-4.4-2.54-60.66,41.9-143.77,45.67-208.9,11.66-33.66-17.58-58.42-48.26-92.59-64.79C194.92,2.99,180.22,0,165.5,0c-23.04,0-46.14,7.33-66.63,19"/></clipPath><linearGradient id="f" x1="6921.07" y1="7097.92" x2="6922.07" y2="7097.92" gradientTransform="translate(-10378611.71 10642866.63) scale(1499.43 -1499.43)" gradientUnits="userSpaceOnUse"><stop offset="0" stop-color="#fff"/><stop offset=".4" stop-color="#fbfbfb"/><stop offset=".51" stop-color="#f9f9f9"/><stop offset=".56" stop-color="#e7e7e7"/><stop offset=".66" stop-color="#bbb"/><stop offset=".8" stop-color="#737373"/><stop offset=".97" stop-color="#111"/><stop offset="1" stop-color="#000"/></linearGradient><mask id="e" width="514.94" height="123.02" maskUnits="userSpaceOnUse"><rect class="i" width="514.94" height="123.02"/></mask><linearGradient id="g" x1="6921.07" y1="7097.92" x2="6922.07" y2="7097.92" gradientTransform="translate(-10378611.71 10642866.63) scale(1499.43 -1499.43)" gradientUnits="userSpaceOnUse"><stop offset="0" stop-color="#f3e9da"/><stop offset=".51" stop-color="#f3e9da"/><stop offset="1" stop-color="#f3e9da"/></linearGradient></defs><g id="a"/><g id="b"><g id="c"><g class="l"><g class="j"><rect class="h" width="514.94" height="123.02"/></g></g></g></g></svg>