<?xml version="1.0" encoding="UTF-8"?><svg xmlns="http://www.w3.org/2000/svg" viewBox="0 0 688 192.61"><defs><style>.d{fill:#f8eadb;}</style></defs><g id="a"/><g id="b"><g id="c"><path class="d" d="M2.76,189.26c38.23-13.52,80.13-20.01,119.89-27.25,21.47-3.91,42.86-7.62,64.78-5.25,17.24,1.87,33.2,7.28,48.08,16.11,14.18,8.41,25.58,13.8,41.71,7.33,17.79-7.14,33.22-21,49.27-31.27,17.51-11.2,39.56-26.78,60.35-15.03,18.59,10.51,29.47,30.29,43.27,45.81,3.58,4.02,7.74,8.97,13.21,10.37,10.8,2.75,22.48-4.79,29.98-11.72,12.6-11.65,19.1-29.87,37.83-32.93,11.56-1.89,20.57,.81,29.14,8.06,8.68,7.34,16.87,15.3,24.98,23.25,3.49,3.42,13,10.84,13.96,14.06,1.03,3.48,4.58,1.12,6.07-.44,23.53-24.62,46.53-49.9,70.67-73.92,20.16-20.05,37.89-46.97,30.23-76.81-6.64-25.87-33.99-43.13-60.29-39.05-19.19,2.98-35.17,18.59-42.48,36.14l7.17-3.98c-13.3-20.33-38.25-35.73-62.95-29.03-31.77,8.62-50.76,38.84-42.83,70.88,2.34,9.44,9.79,31.15,19.76,34.75,3.78,1.36,10.12,.25,14.14,.34,4.89,.12,11.94,1.58,16.72,.41,4.53-1.11,5.1-4.68,8.38-7.7,8.56-7.87,13.1-.76,16.96,6.32,4.55,8.36,9.59,25.48,21.95,23.52,13.12-2.08,14.87-20.2,17.87-30.26,.37-1.25,1.31-7.23,2.39-8.02,4.44-3.24,8.5,1.95,10.88,4.99,3.86,4.92,6.74,10.99,10.02,16.34,2.57,4.19,9.43-4.81,7.09-8.63-5.62-9.16-12.68-28.88-26.59-22.81-13.07,5.71-9.94,23.83-16.03,34.2-2.56,4.37-5.68,5.69-10.49,.42-1.17-1.28-1.86-3.43-2.69-4.94-3.55-6.52-6.66-13.65-10.78-19.82-10.03-15-21.76-1.18-28.97,8.19l4.07-2.26-16.85-.41c-3.37-.08-7.53,.5-10.82-.26-3.73-.87-2.54-.16-5.32-3.21-12.74-14.02-20.15-39.37-12.32-57.17,10.07-22.9,40.83-31.85,62.47-21.19,10.68,5.26,20.31,14,26.84,23.99,2.26,3.45,6.4-2.15,7.17-3.98,10.09-24.18,37.57-32.58,60.73-22.13,15.51,7.01,26.55,21.32,28.13,38.43,2.09,22.6-11.66,40.36-26.56,55.56-24.25,24.75-47.92,50.11-71.87,75.16l6.07-.44c-1.21-4.08-6.96-8.08-9.8-10.93-7.18-7.19-14.52-14.24-22-21.12-13.79-12.66-25.21-21.3-45.42-16.13-10.66,2.72-18.63,9.41-25.22,17.91-8.21,10.6-23.9,34.09-40.13,24.41-6.79-4.05-11.86-12.4-16.62-18.45-6.92-8.79-13.83-17.68-22-25.37-14.83-13.94-30.43-19.03-49.52-11.25-21.88,8.92-41.02,23.88-60.54,36.88-7.76,5.17-16.22,11.33-25.69,12.76-11.28,1.71-19.83-4.34-28.96-9.73-7.77-4.59-15.66-8.48-24.28-11.25-23.73-7.63-48.42-7.21-72.76-3.36-25.59,4.04-51.04,9.26-76.35,14.74-21.07,4.56-42.77,8.68-63.13,15.88-3.96,1.4-7.24,12.15-1.94,10.28h0Z"/></g></g></svg>