<?xml version="1.0" encoding="UTF-8"?><svg xmlns="http://www.w3.org/2000/svg" xmlns:xlink="http://www.w3.org/1999/xlink" viewBox="0 0 589.33 174.35"><defs><style>.e{fill:url(#d);}</style><linearGradient id="d" x1="4.65" y1="87.18" x2="584.1" y2="87.18" gradientTransform="matrix(1, 0, 0, 1, 0, 0)" gradientUnits="userSpaceOnUse"><stop offset="0" stop-color="#f8eadb" stop-opacity="0"/><stop offset=".08" stop-color="#f8eadb" stop-opacity="0"/><stop offset=".17" stop-color="#f8eadb" stop-opacity=".28"/><stop offset=".27" stop-color="#f8eadb" stop-opacity=".53"/><stop offset=".36" stop-color="#f8eadb" stop-opacity=".73"/><stop offset=".44" stop-color="#f8eadb" stop-opacity=".87"/><stop offset=".51" stop-color="#f8eadb" stop-opacity=".96"/><stop offset=".55" stop-color="#f8eadb" stop-opacity=".99"/><stop offset="1" stop-color="#f8eadb"/></linearGradient></defs><g id="a"/><g id="b"><g id="c"><path class="e" d="M1.56,120.21c13.59,26.63,35.35,46.19,65.22,51.91,27.95,5.35,59.37,.68,85.73-9.59,43.23-16.83,72.65-52.47,103.09-85.7,13.75-15.02,28.21-29.71,45.69-40.4,18.94-11.57,40.24-16.96,62.4-16.35,24.7,.67,47.8,9.13,67.98,23.21,19.04,13.29,34.81,30.67,49.62,48.41,14.23,17.04,27.55,34.95,43.08,50.85,13.08,13.38,28.12,25.6,46.69,29.97,4.28,1.01,8.65,1.49,13.04,1.52,6.91,.05,7.01-19.95,0-20-17.83-.12-33.47-9.13-46.43-20.79-15.8-14.22-28.84-31.28-42.21-47.71-29.41-36.16-62.52-73.17-110.26-82.99-22.82-4.7-47.13-2.93-68.82,5.69-19.24,7.64-35.65,20.75-50.3,35.13-30.99,30.42-56.12,67.14-94.36,89.34-22.27,12.93-47.11,19.7-72.77,21.05-16.15,.85-32.62-.05-47.75-6.25-12.79-5.24-23.59-13.71-32.07-24.59-4.09-5.25-7.48-10.92-10.5-16.84-1.86-3.65-5.17-3.48-7.07,0-2.15,3.93-2.02,10.18,0,14.14h0Z"/></g></g></svg>