<?xml version="1.0" encoding="UTF-8"?><svg xmlns="http://www.w3.org/2000/svg" xmlns:xlink="http://www.w3.org/1999/xlink" viewBox="0 0 818.37 325.92"><defs><style>.l{fill:url(#g);}.m{fill:url(#f);}.n{fill:url(#k);}.o{fill:url(#j);}.p{mask:url(#i);}.q{mask:url(#e);}.r{fill:none;}.s{clip-path:url(#d);}.t{clip-path:url(#h);}</style><clipPath id="d"><path class="r" d="M173.12,58.35c-23.68,45.49-38.33,95.19-58.68,142.16-9.8,22.61-20.61,45.21-35.1,65.24-11.93,16.51-26.71,31.68-45.82,39.61-9,3.74-18.56,5.48-28.29,5.52-5.21,.03-5.23,15.03,0,15,45.77-.22,75.72-39.11,95.73-75.76,25.1-45.98,40.64-96.43,60.7-144.64,8.55-20.56,17.7-41.5,30.63-59.75,9.14-12.9,21.24-25.95,37.31-29.56,15.13-3.4,29.79,1.59,39.01,13.69,10.29,13.52,14.18,32.49,16.96,49.33,7.89,47.68,6.97,96.48,16.76,143.9,4.27,20.67,10.36,42.05,23.31,59.11,11.38,14.98,28.11,23.45,46.89,24.02,22.9,.7,44.39-7.76,60.48-24.05,16.23-16.44,26.12-38.27,33.81-59.74,8.33-23.24,13.95-47.33,20.12-71.2,5.07-19.62,9.78-39.74,19.72-57.17,7.3-12.78,19.03-21.83,35.14-18.51,18.69,3.85,26.03,23.91,30.46,39.95,6.79,24.56,9.62,50.08,15.45,74.93,5.42,23.11,13.27,48.27,30.77,65.26,8.41,8.17,18.39,13.52,29.71,16.43,4.35,1.12,5.44-13.6,0-15-23.21-5.97-37.57-24.96-45.79-46.43-9.08-23.73-12.49-49.26-17.25-74.08-4.07-21.24-8.09-46.04-22.33-63.24-10.41-12.57-29.22-17.96-43.88-9.45-15.02,8.73-22.32,27.43-27.77,42.96-7.58,21.6-12.44,44.1-18.26,66.21-10.71,40.7-24.62,94.26-67.5,112.38-18.44,7.79-42.27,8.74-59.93-1.62-15.61-9.16-24.51-26.12-29.93-42.37-7.31-21.91-10.23-44.71-12.65-67.84-2.56-24.44-4.06-48.98-6.75-73.4-2.37-21.57-5.36-43.69-13.3-64.01-5.62-14.38-14.88-29.06-30.37-34-4.8-1.54-9.43-2.24-13.87-2.24-30.63,0-52.55,33.48-65.5,58.35"/></clipPath><linearGradient id="f" x1="7929.55" y1="5283.08" x2="7930.55" y2="5283.08" gradientTransform="translate(-14483462.47 9649800.39) scale(1826.52 -1826.52)" gradientUnits="userSpaceOnUse"><stop offset="0" stop-color="#000"/><stop offset="0" stop-color="#000"/><stop offset=".09" stop-color="#fff"/><stop offset=".53" stop-color="#fdfdfd"/><stop offset=".57" stop-color="#f5f5f5"/><stop offset=".63" stop-color="#dfdfdf"/><stop offset=".71" stop-color="#bbb"/><stop offset=".8" stop-color="#8a8a8a"/><stop offset=".9" stop-color="#4a4a4a"/><stop offset="1" stop-color="#000"/></linearGradient><mask id="e" width="653.64" height="325.92" maskUnits="userSpaceOnUse"><rect class="m" x="0" width="653.64" height="325.92"/></mask><linearGradient id="g" x1="7929.55" y1="5283.08" x2="7930.55" y2="5283.08" gradientTransform="translate(-14483462.47 9649800.39) scale(1826.52 -1826.52)" gradientUnits="userSpaceOnUse"><stop offset="0" stop-color="#f3e9da"/><stop offset="0" stop-color="#f3e9da"/><stop offset=".09" stop-color="#f3e9da"/><stop offset=".53" stop-color="#f3e9da"/><stop offset="1" stop-color="#f3e9da"/></linearGradient><clipPath id="h"><path class="r" d="M813.15,89.29c-30.35,.27-40.79,38.15-48.23,61.36-10.24,31.96-19.18,69.83-46.48,92.05-19.28,15.68-46.35,20.1-70.24,14.44-4.43-1.05-5.45,13.71,0,15,21.59,5.12,46.55,1.93,65.44-10.09,15.02-9.56,25.91-24.1,34.02-39.72,8.43-16.24,14.15-33.78,19.65-51.18,4.82-15.28,9.06-30.69,16.31-44.77,6.02-11.69,15.1-21.95,29.52-22.08,5.21-.05,5.22-15,.02-15h-.02"/></clipPath><linearGradient id="j" y1="5283.08" y2="5283.08" gradientTransform="translate(-14483462.47 9649819.33) scale(1826.52 -1826.52)" xlink:href="#f"/><mask id="i" x="642.75" y="89.29" width="175.62" height="187.96" maskUnits="userSpaceOnUse"><rect class="o" x="642.75" y="89.29" width="175.62" height="187.96"/></mask><linearGradient id="k" y1="5283.08" y2="5283.08" gradientTransform="translate(-14483462.47 9649819.33) scale(1826.52 -1826.52)" xlink:href="#g"/></defs><g id="a"/><g id="b"><g id="c"><g class="s"><g class="q"><rect class="l" x="0" width="653.64" height="325.92"/></g></g><g class="t"><g class="p"><rect class="n" x="642.75" y="89.29" width="175.62" height="187.96"/></g></g></g></g></svg>