<?xml version="1.0" encoding="UTF-8"?><svg xmlns="http://www.w3.org/2000/svg" viewBox="0 0 662 374.45"><defs><style>.d{fill:#f8eadb;}</style></defs><g id="a"/><g id="b"><g id="c"><g><g><path class="d" d="M189.16,264.79c14.48,7.12,29.59,13.23,44.91,18.25,11.09,3.63,22.76,7.07,34.47,7.73,10.23,.57,21.81-1.95,27.17-11.71,2.33-4.23,2.56-9.5,1.89-13.57-.17-1.03-.41-2.05-.65-3.07-.06-.27-.29-1.02,.08,.22-.12-.43-.25-.86-.39-1.28-.25-.71-.48-1.43-.79-2.12-.51-1.15-1.06-4.65,.76-5.24s3.46-1.26,5.11-2.05c1.25-.6,2.49-1.27,3.63-2.08,.36-.26,1.99-2.01,2.08-2.02-1.36,.18,1.15,1.54-.02,.54,.47,.4-.48-.78-.62-.97-.48-.7-1.53-1.9-2.27-2.73-.91-1.01-1.73-1.84-2.95-2.92-1.88-1.67-5.42-10.24,.15-9.03,1.47,.32,3.74,.56,5.01-.36,2.03-1.49,.79-5.42,.27-7.4-1.67-6.47-4.91-13.08-3.59-19.93,.88-4.53,4.02-6.95,7.72-9.13l13.22-7.79,10.53-6.21,1.72,8.85c-13.46-13.38-25.22-28.94-30.79-47.32-3.85-12.7-4.27-25.61-4.94-38.75-.74-14.67-5.57-28.48-13.79-40.87-.65-.98-2.15-2.99-3.33-4.52-.24-.31-.55-.59-.76-.92,.66,1.07,.76,.77-.11-.09-2.15-2.13-4.31-4.25-6.53-6.31-15.01-13.94-32.04-25.74-51.48-32.77-28.18-10.18-58.28-8.24-85.2,4.85-18.85,9.17-35.71,22.61-50.07,37.79-12.55,13.27-22.98,28.77-28.8,46.18-9.44,28.26-5.34,58.17,6.88,84.89,9.85,21.54,24.82,41.61,42.39,56.82,1.67,1.44,3.37,2.85,5.12,4.19,2.05,1.58,2.07,1.6,3.95,2.82,1.31,.85,2.65,1.66,4.05,2.37,.56,.29,1.13,.55,1.71,.8-.87-.37,.47,.15,1.13,.34,2.35,.69,5.21,1.35,7.64,.6,1.62-.5,2.69-1.68,3.11-2.77,.67-1.77,.53-3.2,.23-4.8-.28-1.49-.22-1.35-.63-2.47-.18-.51-.38-1.01-.57-1.51-.52-1.36-.09-.34-.48-1.07-.25-.47-.51-.92-.77-1.38-.17-.3-.36-.59-.55-.88,.05,.07,.53,.74,.14,.2-.29-.4-.6-.77-.9-1.16-.76-.97,.23,.16-.61-.67-.14-.14-1.06-.86-.64-.57,.4,.28-.61-.32-.83-.44,.86,.52-.33-.15-.31-.05,.14,.88,.77-.63,.3,.09,.1-.16,.6-.48,.32-.06-.1,.15-.39,.19-.5,.34,.49-.65-.08,.09-.42,.55-.8,1.11-1.46,2.3-2.05,3.54,.05-.11-.51,1.17-.75,1.77-.39,.96-.76,1.92-1.11,2.89-.78,2.15-1.49,4.34-2.16,6.53-1.6,5.23-2.99,10.53-4.3,15.85-4.92,19.97-8.79,40.21-12.31,60.47-.23,1.31-.45,2.62-.67,3.92-.45,2.69-3.64,1.71-5.04,.56-2.11-1.74-3.26-4.64-2.82-7.32,2.87-17.17,6.17-34.3,9.93-51.3,2.51-11.31,5.11-22.69,8.87-33.66,1.45-4.22,4.47-15.84,10.95-14.31,5.16,1.21,9.13,6.43,11.6,10.77,2.77,4.86,4.81,10.67,4.66,16.32-.13,5.03-2.4,9.65-7.59,10.92-4.69,1.14-9.96-.38-14.21-2.43-7.66-3.7-14.45-9.68-20.57-15.5-9.16-8.71-17.42-18.37-24.68-28.71-17.48-24.93-30.09-54.11-30.99-84.89-.49-16.68,2.8-33.43,9.64-48.66,8.5-18.9,21.61-34.7,36.81-48.61C120.81,17.62,155.31-.59,192.87,2.5c26.24,2.16,50.44,13.65,71.21,29.41,6.71,5.1,13.04,10.67,19.05,16.57,6.87,6.74,12.14,14.74,16.37,23.4,4.25,8.7,7.5,17.99,8.71,27.63,.75,5.98,.89,12.02,1.15,18.03,.64,14.39,3.12,28.21,10.27,40.91,5.1,9.06,11.81,17.12,19.16,24.43,1.71,1.7,5,6.91,1.72,8.85l-22.97,13.54c-3.19,1.88-6.52,3.53-6.29,7.86,.37,7,4.47,13.3,4.63,20.42,.08,3.58-.75,7.52-4.37,9.05-2.42,1.02-5.37,.88-7.89,.34l.15-9.03c4.95,4.39,10.99,10.53,11.7,17.44,.73,7.15-7.55,10.67-13.21,12.48l.76-5.24c2.95,6.68,3.89,14.86,2.4,21.99-2.54,12.12-14.16,19.58-25.97,20.52-11.79,.93-23.96-2.07-35.2-5.31-12.22-3.53-24.15-8.05-35.88-12.96-6.53-2.73-13.03-5.57-19.38-8.69-2.31-1.14-4.14-4.38-4-6.94,.13-2.51,1.95-3.49,4.16-2.4h0Z"/><path class="d" d="M203.96,344.98c-2.62-17.12-3.45-34.99,.67-51.96,1.35-5.56,3.19-11.86,6.6-16.58,2.93-4.06,9.61,4.97,7.02,8.55-.8,1.11-1.42,2.36-2.01,3.58-.03,.06-.26,.55-.59,1.34-.39,.92-.75,1.86-1.08,2.8-.76,2.12-1.39,4.27-1.94,6.45-3.9,15.57-3.15,32.09-.74,47.82,.33,2.14-.42,4.56-3.01,4.08s-4.58-3.79-4.93-6.1h0Z"/><path class="d" d="M289.48,63.44c-17.1,5.5-34.09,15.73-46.74,28.39-5.17,5.17-9.76,10.96-13.37,17.32-4.04,7.13-5.64,14.85-8.5,22.43-5.56,14.71-15.08,27.31-26.74,37.73-6.24,5.58-13.2,10.91-20.73,14.65-2.91,1.45-5.48-2.49-6.42-4.57-.36-.78,.89,1.5,.4,.84-.22-.3-.36-.73-.53-1.06-.68-1.29-1.39-2.56-2.15-3.8-1.71-2.8-3.97-5.97-6.6-8.49-3.11-2.99-6.76-5.52-11.24-6.03-5.56-.64-10.72,2.12-14.88,5.56-16.74,13.84-7.91,40.88,3.91,54.38,6.21,7.08,15.89,12.06,25.19,7.34,4.18-2.12,9.75,7.73,5.66,9.81-10.71,5.44-22.18,.92-30.53-6.68-10.08-9.18-16.89-22.01-19.98-35.21-2.77-11.81-2.39-26.15,6.1-35.67,4.46-5.01,10.76-9.24,17.58-9.88,6.12-.57,11.86,1.87,16.7,5.41,7.72,5.64,13.6,14.18,17.54,22.82l-6.42-4.57c18.98-9.44,36.02-27.16,44.2-46.63,3.21-7.64,4.79-15.74,8.46-23.22,3.26-6.64,7.58-12.71,12.57-18.15,8.92-9.72,19.76-17.6,31.34-23.85,6.22-3.36,12.76-6.5,19.51-8.67,2.48-.8,4.59,1.15,5.77,3.21,.74,1.28,2.31,5.82-.11,6.6h0Z"/><path class="d" d="M284.98,151.18c-2.91,3.34-7.02,5.6-11.21,6.82-10.13,2.96-19.95-1.38-28.16-7.16-4.04-2.84-3.83-12.15,2.22-7.88,6.45,4.54,14.65,7.31,22.38,4.54,2.15-.77,4.2-1.93,6.01-3.32,.35-.27,.69-.54,1.02-.83,.6-.52-.36,.34,.15-.13,.2-.19,.39-.39,.57-.6,3.37-3.87,9.89,5.26,7.02,8.55h0Z"/><path class="d" d="M111.96,35.9c-.11-.12-.23-.24-.35-.36,1.7,1.81,.11,.13-.35-.32-1.42-1.39-2.89-2.73-4.39-4.04-4.86-4.23-9.31-7.54-14.66-10.77-13.47-8.13-30.04-13.44-45.53-7.99-9.87,3.48-17.91,10.48-24.24,18.66-6.8,8.78-12.92,19.2-14.07,30.46-.81,7.93,1.02,15.85,4.43,22.16,3.52,6.52,8.3,12.05,13.89,17.1,7.78,7.01,16.19,12.88,25.92,17.33,3.97,1.81,5.96,12.14-.16,9.34-9.07-4.15-17.66-10.03-25.27-16.42C13.03,99.16,1.26,83,.08,64.01c-.67-10.76,2.69-21.21,7.99-30.46,6.29-10.96,14.76-21.44,25.92-27.72C50.65-3.57,69.88-.62,86.29,7.69c11,5.57,21.4,13.3,29.84,22.32,1.49,1.59,2.94,5.24,1.43,7.22-1.66,2.17-4.33,.02-5.6-1.34h0Z"/></g><path class="d" d="M211.6,345.6c-.83,14.7,16.48,19.7,28.22,19.34,15.84-.49,32.05-5.68,46.47-11.96,13.84-6.03,26.11-15.28,40.17-20.76,7.13-2.78,14.54-4.27,22.21-3.74,7.96,.56,15.61,2.83,23.03,5.67,29.48,11.27,60.03,28,92.49,18.91,15.06-4.22,28.51-12.71,42.99-18.42,14.16-5.59,29.02-9.29,44.07-11.5,34.89-5.14,70.38-2.6,105.35,.29,2.42,.2,4.23,2.19,5.04,4.41,.45,1.23,.96,5.22-1.49,5.02-32.59-2.7-65.53-5.05-98.13-1.24-15.75,1.84-31.39,5.14-46.27,10.65-15.29,5.66-29.3,14.39-44.88,19.29-33.19,10.45-64.72-5.12-95.03-17.19-7.93-3.16-16.28-6.06-24.88-6.52-8.04-.43-15.77,1.58-23.05,4.87-7.09,3.21-13.71,7.34-20.48,11.17-7.2,4.08-14.64,7.67-22.36,10.66-15.98,6.18-34.91,12.04-52.19,9.18-15.29-2.53-29.62-15.88-28.7-32.23,.13-2.23,1.8-3.17,3.78-2.19,2.06,1.02,3.77,4.01,3.64,6.31h0Z"/></g></g></g></svg>