<?xml version="1.0" encoding="UTF-8"?><svg xmlns="http://www.w3.org/2000/svg" xmlns:xlink="http://www.w3.org/1999/xlink" viewBox="0 0 399.97 158.82"><defs><style>.h{fill:url(#g);}.i{fill:url(#f);}.j{mask:url(#e);}.k{fill:none;}.l{clip-path:url(#d);}</style><clipPath id="d"><path class="k" d="M150.08,3.05c-33.67,8.57-59.07,33.37-82.36,57.76C49.61,79.78,27.89,107.36,0,111.13v15.03c24.67-3.14,44.52-24.23,60.95-41.33,23.12-24.07,46.17-50.56,78-63.12,31.23-12.32,67.23-7.51,93.72,13.09,24.02,18.68,39.72,46.06,59.31,68.89,11.82,13.78,25.2,26.45,40.83,35.84,18.75,11.26,40.08,17.06,61.78,18.86,4.98,.41,5.39-14.55,0-15-19.67-1.63-38.81-6.58-56.12-16.21-14.52-8.07-27.03-18.99-38.15-31.27-20.53-22.66-36.14-49.91-59.23-70.23C222.3,9.16,198.71,0,174.32,0c-8.04,0-16.16,.99-24.24,3.05"/></clipPath><linearGradient id="f" x1="8011.21" y1="177.32" x2="8012.21" y2="177.32" gradientTransform="translate(-14632634.83 323949.04) scale(1826.52 -1826.52)" gradientUnits="userSpaceOnUse"><stop offset="0" stop-color="#000"/><stop offset="0" stop-color="#000"/><stop offset=".09" stop-color="#fff"/><stop offset=".53" stop-color="#fdfdfd"/><stop offset=".57" stop-color="#f5f5f5"/><stop offset=".63" stop-color="#dfdfdf"/><stop offset=".71" stop-color="#bbb"/><stop offset=".8" stop-color="#8a8a8a"/><stop offset=".9" stop-color="#4a4a4a"/><stop offset="1" stop-color="#000"/></linearGradient><mask id="e" width="399.97" height="158.82" maskUnits="userSpaceOnUse"><rect class="i" width="399.97" height="158.82"/></mask><linearGradient id="g" x1="8011.21" y1="177.32" x2="8012.21" y2="177.32" gradientTransform="translate(-14632634.83 323949.04) scale(1826.52 -1826.52)" gradientUnits="userSpaceOnUse"><stop offset="0" stop-color="#f3e9da"/><stop offset="0" stop-color="#f3e9da"/><stop offset=".09" stop-color="#f3e9da"/><stop offset=".53" stop-color="#f3e9da"/><stop offset="1" stop-color="#f3e9da"/></linearGradient></defs><g id="a"/><g id="b"><g id="c"><g class="l"><g class="j"><rect class="h" width="399.97" height="158.82"/></g></g></g></g></svg>