<?xml version="1.0" encoding="UTF-8"?><svg xmlns="http://www.w3.org/2000/svg" viewBox="0 0 39.09 8.59"><defs><style>.d{fill:#662d91;}</style></defs><g id="a"/><g id="b"><g id="c"><path class="d" d="M.74,3.53c2.3,.51,2.16,4.12,4.41,4.86,1.83,.6,3.22-.75,4.21-2.1,.98-1.34,1.52-2.83,3.37-1.36,.8,.64,.9,2.1,1.75,2.8,1.42,1.17,2.9,.92,4.25-.22,.71-.59,.95-1.66,1.6-2.23,1.8-1.56,2.17-.64,3.43,.87,1.17,1.41,1.85,2.9,4.01,2.2,2.12-.68,2.42-3.92,4.41-3.87,2.08,.04,2.38,3.53,4.85,4.08,1.43,.32,3.04-3.13,1.32-3.51-2.3-.51-2.16-4.12-4.41-4.86-1.83-.6-3.22,.75-4.21,2.1-.98,1.34-1.52,2.83-3.37,1.36-.8-.64-.9-2.1-1.75-2.8-1.42-1.17-2.89-.92-4.25,.22-.71,.59-.94,1.66-1.6,2.23-1.79,1.56-2.17,.64-3.43-.87C14.16,1.02,13.48-.47,11.32,.22c-2.12,.68-2.42,3.92-4.41,3.87C4.83,4.05,4.53,.57,2.06,.02,.64-.3-.97,3.15,.74,3.53"/></g></g></svg>