<?xml version="1.0" encoding="UTF-8"?><svg xmlns="http://www.w3.org/2000/svg" xmlns:xlink="http://www.w3.org/1999/xlink" viewBox="0 0 889.87 325.76"><defs><style>.l{fill:url(#g);}.m{fill:url(#f);}.n{fill:url(#k);}.o{fill:url(#j);}.p{mask:url(#i);}.q{mask:url(#e);}.r{fill:none;}.s{clip-path:url(#d);}.t{clip-path:url(#h);}</style><clipPath id="d"><path class="r" d="M618.85,15.03c-12.07,14.46-16.9,34.13-20.39,52.2-9.15,47.3-8.06,95.95-16.55,143.37-3.43,19.19-8.42,40.05-19.91,56.37-10.59,15.04-26.25,23.55-44.67,24.11-22.5,.68-43.55-7.67-58.85-24.26-15.22-16.5-24.29-37.86-31.32-58.9-7.79-23.32-13.23-47.33-19.51-71.08-5.09-19.23-10.33-39.64-21.03-56.65-8.64-13.72-21.7-23.15-38.56-19.78-19.92,3.99-29.44,23.43-35.07,41.09-7.64,23.93-10.42,49.19-15.63,73.7-4.84,22.75-11.17,47.59-27.47,65.07-7.59,8.14-17.44,13.95-28.22,16.72-5.41,1.39-4.39,16.13,0,15,52.28-13.44,60.34-77.67,68.55-122.26,2.18-11.83,4.35-23.57,7.61-35.16,2.61-9.27,5.72-18.6,11.42-26.34,9.23-12.52,26.84-18.02,40.53-9.46,13.48,8.43,19.66,26.73,24.39,41.32,7.19,22.17,12.1,45.01,18.2,67.49,11.27,41.5,27.47,95.33,71.57,112.83,19.07,7.57,43,8.59,61.34-1.59,16.84-9.34,26.89-26.68,33.48-44.16,8.2-21.73,11.76-45.14,14.45-68.11,2.86-24.51,4.4-49.14,6.83-73.69,2.16-21.74,4.42-42.98,11.28-63.26,4.49-13.26,12.19-27.51,27.05-32.7,14.82-5.19,30.95,.22,42.56,9.92,14.57,12.18,24.41,29.7,32.79,46.43,23.11,46.12,37.86,95.95,58.75,143.05,10.04,22.65,21.35,45.07,36.26,64.96,12.23,16.32,27.71,31.4,46.96,38.98,9.22,3.63,19.06,5.47,28.96,5.52,5.19,.02,5.25-14.98,0-15-45.26-.22-73.92-39.91-93.01-76.19-24.4-46.38-39.81-96.77-60.24-144.88-8.74-20.58-18.33-41.27-31.68-59.33-9.88-13.37-22.74-25.62-39.43-29.3C657.12,.34,653.98,0,650.89,0c-12.27,0-23.92,5.29-32.04,15.03"/></clipPath><linearGradient id="f" x1="7079.09" y1="273.7" x2="7080.09" y2="273.7" gradientTransform="translate(-12931034.03 500081.73) scale(1826.52 -1826.52)" gradientUnits="userSpaceOnUse"><stop offset="0" stop-color="#000"/><stop offset="0" stop-color="#000"/><stop offset=".09" stop-color="#fff"/><stop offset=".53" stop-color="#fdfdfd"/><stop offset=".57" stop-color="#f5f5f5"/><stop offset=".63" stop-color="#dfdfdf"/><stop offset=".71" stop-color="#bbb"/><stop offset=".8" stop-color="#8a8a8a"/><stop offset=".9" stop-color="#4a4a4a"/><stop offset="1" stop-color="#000"/></linearGradient><mask id="e" x="236.24" width="653.63" height="325.76" maskUnits="userSpaceOnUse"><rect class="m" x="236.24" width="653.63" height="325.76"/></mask><linearGradient id="g" x1="7079.09" y1="273.7" x2="7080.09" y2="273.7" gradientTransform="translate(-12931034.03 500081.73) scale(1826.52 -1826.52)" gradientUnits="userSpaceOnUse"><stop offset="0" stop-color="#f3e9da"/><stop offset="0" stop-color="#f3e9da"/><stop offset=".09" stop-color="#f3e9da"/><stop offset=".53" stop-color="#f3e9da"/><stop offset="1" stop-color="#f3e9da"/></linearGradient><clipPath id="h"><path class="r" d="M5.25,125.12c22.48,.08,44.84,4.28,64.21,16.15,15.41,9.44,27.46,22.99,37.76,37.66,19.57,27.88,33.77,61.95,63.29,81.18,20.34,13.26,47.64,17.44,71.14,11.87,5.42-1.28,4.47-16.06,0-15-21.45,5.09-46.04,2.1-65.25-8.95-14.57-8.38-25.6-21.22-35.07-34.88-20.27-29.25-35.33-62.93-65.64-83.61-20.71-14.13-45.68-19.33-70.45-19.43h-.01c-5.18,0-5.24,14.98,.01,15"/></clipPath><linearGradient id="j" x1="7079.09" y1="273.7" x2="7080.09" y2="273.7" gradientTransform="translate(-12931034.03 500111.11) scale(1826.52 -1826.52)" xlink:href="#f"/><mask id="i" y="110.12" width="247.06" height="167.43" maskUnits="userSpaceOnUse"><rect class="o" x="0" y="110.12" width="247.06" height="167.43"/></mask><linearGradient id="k" x1="7079.09" y1="273.7" x2="7080.09" y2="273.7" gradientTransform="translate(-12931034.03 500111.11) scale(1826.52 -1826.52)" xlink:href="#g"/></defs><g id="a"/><g id="b"><g id="c"><g class="s"><g class="q"><rect class="l" x="236.24" width="653.63" height="325.76"/></g></g><g class="t"><g class="p"><rect class="n" x="0" y="110.12" width="247.06" height="167.43"/></g></g></g></g></svg>