<?xml version="1.0" encoding="UTF-8"?><svg xmlns="http://www.w3.org/2000/svg" xmlns:xlink="http://www.w3.org/1999/xlink" viewBox="0 0 583.88 232.8"><defs><style>.h{fill:url(#g);}.i{fill:url(#f);}.j{mask:url(#e);}.k{fill:none;}.l{clip-path:url(#d);}</style><clipPath id="d"><path class="k" d="M541.49,6.64c-12.43,6.12-22,16.95-30.49,27.61-18.54,23.29-32.83,49.49-47.23,75.44-13.5,24.34-26.82,49.88-44.69,71.37-9.17,11.03-20.23,21.77-33.81,27.07-12.63,4.93-26.63,4.77-39.37,.28-27.85-9.81-46.48-34.9-64.08-57.19-15.86-20.07-31.9-40.13-50.88-57.38-18.64-16.94-40.7-31.11-65.74-36.02-25.45-4.99-51.84,1.04-74.07,13.91C41.83,100.27,18.95,155.46,2.52,207.27c-.85,2.68-1.69,5.36-2.52,8.05v17.48c1.56-.64,3.12-2.16,3.8-4.39,15.52-50.9,32.55-108.47,78.16-140.84,20.84-14.79,46.48-22.95,72.09-19.91,25.27,3.01,47.93,16.59,66.87,32.97,19.12,16.54,35.09,36.4,50.73,56.15,16.71,21.11,33.47,44.31,57.73,57.3,23.98,12.85,50.71,10.71,72.41-5.61,21.58-16.22,36.25-40.02,49.75-62.92,16.3-27.67,30.74-56.52,48.31-83.43,15.34-23.5,40.9-62.12,73.73-44.84,4.38,2.3,10.3-8.1,5.99-10.37-6.13-3.22-12.63-4.81-19.15-4.81s-12.84,1.53-18.93,4.54"/></clipPath><linearGradient id="f" x1="7979.04" y1="7412.71" x2="7980.04" y2="7412.71" gradientTransform="translate(-11963978.01 11114922.85) scale(1499.43 -1499.43)" gradientUnits="userSpaceOnUse"><stop offset="0" stop-color="#fff"/><stop offset=".4" stop-color="#fbfbfb"/><stop offset=".51" stop-color="#f9f9f9"/><stop offset=".56" stop-color="#e7e7e7"/><stop offset=".66" stop-color="#bbb"/><stop offset=".8" stop-color="#737373"/><stop offset=".97" stop-color="#111"/><stop offset="1" stop-color="#000"/></linearGradient><mask id="e" width="583.88" height="232.8" maskUnits="userSpaceOnUse"><rect class="i" x="0" width="583.88" height="232.8"/></mask><linearGradient id="g" x1="7979.04" y1="7412.71" x2="7980.04" y2="7412.71" gradientTransform="translate(-11963978.01 11114922.85) scale(1499.43 -1499.43)" gradientUnits="userSpaceOnUse"><stop offset="0" stop-color="#f3e9da"/><stop offset=".51" stop-color="#f3e9da"/><stop offset="1" stop-color="#f3e9da"/></linearGradient></defs><g id="a"/><g id="b"><g id="c"><g class="l"><g class="j"><rect class="h" x="0" width="583.88" height="232.8"/></g></g></g></g></svg>