<?xml version="1.0" encoding="UTF-8"?><svg xmlns="http://www.w3.org/2000/svg" viewBox="0 0 2035.67 280.21"><defs><style>.d{fill:#f15f24;}</style></defs><g id="a"/><g id="b"><g id="c"><g><g><path class="d" d="M522.91,280.21c7.17,0,12.68-6.92,15-13.12,1.54-4.12,2.81-14.93-4.45-14.93s-12.68,6.92-15,13.12c-1.54,4.12-2.81,14.93,4.45,14.93h0Z"/><g><path class="d" d="M994.51,65.17c3.58,0,7.1-8.42,3.17-8.42-3.58,0-7.1,8.42-3.17,8.42h0Z"/><path class="d" d="M536.86,114.17c9.58-.27,16.27-9.23,20.24-17.02,5.41-10.63,8.15-23.02,7.59-34.95-.5-10.56-3.87-21.81-12.89-28.18-9.94-7.01-24.62-5.81-35.51-1.81-22.84,8.38-34.18,32.22-37.67,54.89-3.21,20.87-2.09,45.59,8.13,64.56,2.97,5.52,7.71,11.59,14.51,11.92,10.66,.52,17.29-10.1,19.97-19.03,3.61-12.04,3.24-25.44,.64-37.65-1.79-8.41-5.51-21.39-14.85-24.37-2.85-.91-4.92-.25-7.66,.45-5.05,1.29-10.19,2.33-15.36,3-9.36,1.22-27.63,2.69-27.09-11.06,.5-12.6,6.91-24.52,14.41-34.34,6.28-8.23,13.67-16.2,22.49-21.75,13.26-8.34,29.2-11.41,44.63-8.87,34.33,5.65,56.81,38.23,49.49,72.4-5.32,24.82-24.23,40.81-40.28,58.92-15.45,17.43-24.38,37.65-25.14,61.08-.37,11.47,1.06,22.9,3.08,34.17,.79,4.41,6.16-1.57,6.42-3.56,1.18-9.19,7.65-17.33,16.56-20.24,8.86-2.9,19.74-1.94,28.35,1.43,7.17,2.81,13.04,7.65,19.14,12.2,13.99,10.43,31.11,14.54,48.26,9.76,14.85-4.14,24.29-17.06,38.46-22.25,17.93-6.57,35.55-1.23,50.08,9.81,5.82,4.42,11.61,8.8,18.56,11.3,8.88,3.2,18.62,3.71,27.91,2.32,7.59-1.14,14.43-4.19,20.52-8.83,4.78-3.64,8.82-8.33,14.04-11.36,7.34-4.25,16.63-4.55,24.7-2.44,8.42,2.2,15.16,7.73,22.4,12.26,11.86,7.42,25.09,9.93,36.73,1.26,10.71-7.98,18.6-19.83,25.56-31.03,7.59-12.2,14.16-25.01,20.26-38.01,2.6-5.53,5.46-11.11,7.34-16.93,2.33-7.19,4.23-14.58,6.08-21.9,2.22-8.75,2.71-18.91,6.66-27.07,4.67-9.66,14.47-5.62,22.48-9.72,5.66-2.9,9.53-8.49,11.51-14.41,1.04-3.12,2.61-7.98,1.49-11.27-.58-1.7-2.3-3.4-3.24-4.92-2.67-4.35-4.92-8.97-6.45-13.85-3.2-10.24-2.68-22.32,7.79-27.93,4.69-2.51,10.11-3.28,15.33-2.47,14.71,2.27,23.57,14.79,20.46,29.65-1.64,7.84-6.04,13.8-10.48,20.18-2.89,4.14-.88,7.98,1.17,12.06,3.56,7.09,9.07,12.5,16.68,14.99,9.45,3.1,15.54,7.92,18.36,17.73,2.48,8.63,3.76,17.64,6.09,26.34,1.46,5.46,2.49,11.72,4.88,16.87,3.32,7.15,8.78,13.85,13.01,20.48l21.53,33.72c1.67,2.61,3.16,5.68,5.15,8.07,.88,1.05,2.06,1.82,3.08,2.73,1.66,1.47,3.46,3.12,4.64,5.02,1.41,2.28,.73,2.37-1.46,4.23-6.16,5.23-14.07,8.98-22.17,9.47-11.5,.69-23.08-2.24-34.36-4.07-14.24-2.31-28.43-5.39-42.89-5.86-13-.42-25.97,1.28-38.78,3.35-12.68,2.05-25.61,3.41-38.21,5.76-5.85,1.09-15.73,6.34-21.53,3.46-1.5-.74-1.83-1.79-2.3-3.29-.8-2.55,.45-1.59-.75,.1-.6,.85-1.37,.86,.2,.37,1.7-.53,5.28-1.38,7.82-1.7,9.52-1.19,19.29-.88,28.86-.62,28.39,.79,56.73,3.29,85.05,5.36,25.85,1.88,51.97,4.28,77.92,3.48,7.09-.22,14.84-.33,21.47-3.16,9.39-4.01,20.89-6.93,31.1-7.96,11.07-1.11,23.59,1,34.54,2.68,9.94,1.53,19.75,3.76,29.46,6.34,19.25,5.13,38.18,11.38,57.87,14.7,22.64,3.81,46.18,4.37,68.96,1.41,15.64-2.03,30.06-7.06,44.52-13.16,18.21-7.68,36.61-13.78,56.03-17.65,14.31-2.85,27.58-10.77,42.11-12.47,.74-.09,4.64,.64,4.76,.58-.29,.13,.32-1.77,.32-1.78-.16-2.03,1.33-.1,.01-.39-.55-.12-2.4,.84-3.05,.99-6.22,1.42-13.08,.75-19.31-.26-6.26-1.02-13.09-2.61-18.35-6.33-3.7-2.62-4.76-4.61-.94-7.12,9.3-6.11,24.8-8.9,35.31-5.05,.27,.1,1.36,1.3,1.31,1.3v.07c.01,1.19,.42,.16,1.23-3.08,0-.73,1.46-.39,.47-.52-1.4-.19-4.02,.91-5.56,1.03-6.29,.45-12.76-.25-18.97-1.22-6.74-1.05-13.55-2.55-19.83-5.26-3-1.3-9.18-3.85-9.39-7.82-.22-4.17,6.3-7.03,9.29-8.41,5.95-2.75,12.51-4.27,18.96-5.3,6.32-1,12.8-1.45,19.19-.97,2.53,.19,5.19,.45,7.62,1.23,1.41,.45,2.79,1.95,3.97,2.31-.09-.03,1.07-.88,.4-.81-1.2,.12-3.23,1.29-4.71,1.57-5.51,1.08-11.37,.63-16.9-.01-13.49-1.55-27.29-5.25-39.24-11.8-5.99-3.29-18.66-11.49-13.21-19.93,5.4-8.37,20.65-10.31,29.49-11.48,12.91-1.72,26.29-1.61,39.18,.23,4.85,.69,9.93,1.53,14.46,3.5,1.28,.56,2.75,1.19,3.78,2.16,1.12,1.05,.68,.73,.64,1.35-.05,.82-.21,.79-.96,1.43-1.37,1.15-2.97,1.95-4.63,2.59-5,1.93-10.59,2.56-15.91,2.8-13.25,.59-26.72-1.27-39.52-4.63-11.67-3.06-24.4-7.63-33.43-15.96-5.31-4.9-10.57-13.83-4.55-19.72,7.24-7.09,19.97-8.87,29.51-10.14,13.4-1.79,27.07-1.78,40.54-.86,10.94,.75,22.38,1.84,32.89,5.19,2.44,.78,5.6,2.05,7.11,3.47,.34,.32,.24,.13,.05,.35-.13,.15,.34-.2-.2,.14,.25-.16-.92,.69-1.3,.91-7.93,4.6-19.07,4.23-27.89,4-26.42-.68-55.24-6-78.98-18-6.15-3.11-16.64-8.49-17.48-16.4-.74-6.98,7.58-10.95,13.58-13.23,23.77-9.03,52.25-8.01,77.16-6.04,11.08,.88,22.25,2.18,33.06,4.85,3.44,.85,7.09,1.77,10.2,3.53,.72,.41,1.84,1.3,2.04,1.41,.77,.43,.24-.25,.27-.38,.11-.53,.8-.79,.02-.18,.75-.57-.32,.27-.58,.46-.62,.46-2.39,1.4-3.63,1.91-3.82,1.58-8.01,2.43-12.06,3.14-11.59,2.04-23.47,2.43-35.21,2.38-26.79-.11-54.41-2.56-80.27-9.86-8.53-2.41-18.58-5.47-25.22-11.69-1.95-1.82-3.48-4.12-3.83-6.51-.13-.93,.23-1.32,.06-.93,.44-.99-.19-.07,.64-.86-.49,.46,.78-.71,1.08-.94,6.12-4.75,15.38-6.57,23-8.04,12.26-2.36,24.77-3.37,37.23-3.87,27.03-1.09,54.49,.06,81.2,4.46,9.64,1.59,19.49,3.5,28.58,7.2,3.06,1.25,6.31,2.7,8.84,4.87,1.67,1.44,2.8,3.19,2.84,4.4,.14,5.42,6.73-.16,6.63-3.68-.34-12.86-22.18-16.76-31.44-18.84-22.77-5.11-46.45-6.74-69.73-7.1-22.34-.34-45.44,.26-67.31,5.28-10.83,2.49-30.67,8.54-28.05,23.46,2.57,14.63,26.05,19.73,37.68,22.62,23.51,5.84,48.12,8.13,72.3,8.42,10.92,.13,21.89-.21,32.74-1.53,7.49-.91,15.55-2.12,22.32-5.68,4.47-2.36,10.18-7.85,8.59-13.56-1.32-4.74-8.57-6.33-12.55-7.46-20.34-5.82-42.66-6.87-63.69-6.67-19.71,.19-44.11,.74-61.21,11.95-6.35,4.16-11.54,10.66-11.89,18.51-.34,7.51,4.77,13.03,10.5,17.19,17.86,12.97,42.63,18.13,64,21.42,11.42,1.76,23.07,2.86,34.63,2.33,7.66-.35,16.44-1.05,23.01-5.44,4.23-2.83,9.84-10.44,5.8-15.47-3.7-4.61-12.66-5.75-17.98-6.82-22.18-4.46-46.11-5.13-68.49-1.82-15.5,2.3-40.12,9.21-38.37,29.47,1.76,20.44,29.81,29.26,46.16,33.29,11.58,2.85,23.63,4.47,35.56,4.16,8.44-.21,18-1.05,25.24-5.86,4.8-3.18,11.12-11.73,6.63-17.46-4.14-5.27-14.12-6.36-20.16-7.27-11.6-1.75-23.51-1.93-35.18-.91-10.5,.91-21.47,2.68-30.92,7.62-7.76,4.06-14.56,11.41-14.45,20.66,.11,9.16,8.35,15.49,15.61,19.61,10.63,6.03,22.88,9.64,34.86,11.75,9.04,1.59,19.98,3.13,28.84-.17,5.74-2.14,12.73-10.59,6.8-16.15s-19.22-4.26-26.69-3.59c-11.18,1.01-23.33,3.41-32.86,9.66-6.48,4.25-14.51,14.12-9.04,22.08,5.49,8.01,19.02,10.43,27.8,12.06,8.85,1.64,21.1,3.97,29.8,.44,3.46-1.41,6.33-4.68,6.03-8.63-.31-4.07-3.83-5.86-7.41-6.68-10.4-2.37-23.34,.67-32.76,5.17-7.34,3.51-16.88,12.73-10.26,21.2,6.36,8.14,20.8,10.14,30.31,10.79,8.17,.56,21.59,.66,24.35-9.29,3.41-12.29-15.53-6.14-20.76-4.52-6.66,2.07-13.19,4.52-19.81,6.71-7.63,2.53-15.51,3.77-23.32,5.66-15.62,3.79-30.5,9.38-45.28,15.61-12.7,5.35-25.48,9.84-39.16,11.95-21.12,3.25-43.21,2.91-64.35-.01-36.06-4.98-69.77-20.01-106.12-23.6-7.95-.79-16.83-2.04-24.76-.87-5.3,.78-10.59,2.16-15.8,3.37-7.67,1.79-14.31,5.18-21.49,6.4-18.49,3.13-38.47,.95-57.05-.13-26.32-1.54-52.6-3.77-78.91-5.54-21.25-1.43-42.9-3.32-64.2-1.9-5.37,.36-11.72,.58-16.51,3.37-6.25,3.64-7.86,14.69-.44,18.11,5.35,2.46,12.72-.37,17.98-1.79,9.04-2.44,18.43-3,27.66-4.5,11.86-1.92,23.69-4.2,35.67-5.35,13.01-1.24,25.81-.55,38.71,1.43,11.62,1.78,23.2,3.89,34.8,5.86,9.67,1.65,19.96,3.28,29.66,.96,9.34-2.23,27.46-11.53,26.77-23.03-.2-3.29-2.5-6.03-4.71-8.29-1.08-1.1-2.24-2.15-3.41-3.15-.42-.36-2.17-2.04-1.38-1.08-1.44-1.73-2.52-3.94-3.73-5.84l-18.18-28.47-16.19-25.36c-.46-.72-1-1.43-1.39-2.18-.31-.59,.03,.15,.13,.38-.27-.63-.42-1.35-.6-2.01-1.9-6.72-3.88-13.42-5.59-20.2-3.39-13.37-3.66-30.27-17.19-37.82-7.11-3.97-14.41-4.45-19.7-11.4-2.45-3.23-4.43-7.01-5.45-10.96l-1.5,5.13c9.03-10.31,15.72-24.84,14.13-38.72-1.38-12.01-9.2-20.6-20.76-23.63-9.53-2.49-19.88-.3-27.41,6.19-14.14,12.17-12.41,31.71-4.82,46.97,1.4,2.82,2.99,5.56,4.75,8.16,.39,.58,.8,1.37,1.31,1.86-.08-.07,.2-1.87-.3-.75-1.34,3.01-.88,7.35-3.91,10.46-5.32,5.46-14.35,2.51-20.76,6.23s-9.88,10.41-11.95,17.09c-2.35,7.59-3.32,15.57-5.24,23.27-1.74,6.99-3.6,13.99-5.74,20.87-1.43,4.61-3.64,9-5.65,13.38-5.08,11.07-10.61,21.97-16.72,32.51-6.29,10.85-13.2,22.12-22.42,30.77-3.25,3.05-7.06,6.2-11.53,7.2-6.66,1.49-14.25-1.19-20.02-4.36-6.45-3.55-12.11-8.37-18.75-11.58-7.21-3.49-15.12-4.84-23.08-3.99-12.74,1.35-19.68,9.98-29.35,17.07-12.71,9.33-32.24,9.54-46.13,2.73-12.07-5.92-20.79-16.53-34.03-20.38-14.87-4.32-31.59-1.93-44.49,6.61-5.58,3.69-10.57,8.22-16.28,11.71-6.89,4.21-14.55,6.3-22.61,6.52-8.31,.23-16.56-1.13-23.97-5-5.82-3.04-10.81-7.33-16.09-11.18-12.1-8.82-27.85-13.41-42.68-9.3-11.54,3.2-20.09,12.45-24,23.57-.79,2.23-1.5,4.59-1.81,6.95l6.42-3.56c-4.19-23.46-5.13-48.59,7.53-69.77,11.25-18.83,29.84-31.94,41.93-50.21,19.02-28.77,20.93-69.24-6.19-93.62-21.21-19.07-53.5-21.79-78.25-8.14-16.47,9.08-30.38,25.25-38.88,41.83-4.54,8.85-8.2,19.16-7.87,29.26,.16,4.78,1.96,8.89,6.11,11.48,8.98,5.59,22.48,3.22,32.23,1.43,6.58-1.21,13.08-5.18,18.36-.08,7.39,7.13,9.36,20.23,10.02,29.92,.59,8.71,1.04,22.94-5.98,29.57-5.36,5.06-11.84,1.61-15.57-3.3-5.18-6.81-7.67-15.61-9.35-23.87-4.28-20.94-3.52-45.85,6.82-65.01,4.93-9.12,12.42-16.6,22.29-20.18,10.36-3.76,24.39-4.83,33.37,2.69,15.31,12.83,11.43,44.17-.47,58.06-2.07,2.41-4.72,4.59-8.04,4.68-3.58,.1-7.05,8.53-3.17,8.42h0Z"/></g><path class="d" d="M995.9,101.46c18.34,.25,35.29,10.39,43.42,27.01,8.54,17.46,5.48,39.63-12.24,49.92-16.57,9.62-39.58,4.55-46.73-14.38-3.47-9.19-2.33-19.92,5.98-26.06,8.16-6.03,20.33-5.85,27.29,1.96,3.48,3.91,5.82,10.01,4.18,15.22-1.66,5.27-7.48,8.05-12.74,7.53-5.07-.5-10.66-5.3-10.14-10.83,.34-3.63,3.92-5.55,7.37-4.88,3.22,.63,8.35,6.8,2.44,7.4-3.07,.31-5.69,7.87-1.4,7.44,14.66-1.48,12.63-25.97-2.83-22.13-12.55,3.12-15.44,21.08-4.88,28.21,11.79,7.96,26.26-3.76,28.32-15.74,2.32-13.52-8.59-26.37-22.32-26.02-13.42,.33-24.84,10.36-28.16,23.18-3.35,12.95,2.03,27.08,12.64,35.04,23.88,17.91,56.44-2.37,62.67-28.21,7.61-31.59-18.49-61.8-50.03-62.23-3.22-.04-6.4,7.52-2.84,7.57h0Z"/></g><path class="d" d="M4.89,274.2c26.8-28.63,49.57-62.52,83.05-84.04,33.35-21.44,75.32-31.46,112.42-13.54,33.49,16.18,57.84,46.14,90.56,63.72,31.36,16.85,67.23,25.1,102.77,24.51,40.33-.66,80.31-12.56,113.59-35.54,1.72-1.19,3.48-3.38,3.25-5.63-.17-1.74-1.59-3.19-3.38-1.95-60.86,42.04-144.27,45.84-209.61,11.72-33.66-17.58-58.42-48.26-92.59-64.79s-75.95-9.81-109.32,9.18C56.75,199.97,31.46,237.41,1.5,269.42c-3.26,3.48-.78,9.23,3.39,4.78h0Z"/><path class="d" d="M1526,214.8c16.2,6.51,31.91,14.17,48.13,20.64,16.48,6.57,33.42,11.57,50.93,14.51,36.1,6.07,74.17,5.2,108.99-6.81,30.81-10.63,58.48-28.41,89.51-38.6,31.83-10.45,65.24-16.35,98.63-18.68,36.19-2.53,73.12-1.09,108.55,7.16,3.4,.79,7.28-7.46,3.17-8.42-31.2-7.27-63.54-9.17-95.49-7.88-33.02,1.33-66.08,6.06-97.94,14.9-14.46,4.01-28.67,8.94-42.41,14.98-15.15,6.67-29.7,14.6-44.84,21.29-34.23,15.13-70.78,19.7-107.91,15.94-20.57-2.08-40.71-6.6-60.08-13.84s-36.28-15.78-54.64-23.16c-3.58-1.44-7.95,6.62-4.6,7.97h0Z"/></g></g></g></svg>