<?xml version="1.0" encoding="UTF-8"?><svg xmlns="http://www.w3.org/2000/svg" viewBox="0 0 153.08 140.84"><defs><style>.d{fill:#f3e9da;}</style></defs><g id="a"/><g id="b"><g id="c"><g><path class="d" d="M31.14,95.27c-.64,0-5.15-3.88,2.15-11.18,10.54-10.54,34.41-15.05,34.41-2.58,0,7.31-12.29,17.93-20.04,17.93,3.55-5.68,7.49-11.24,11.51-15.53,0,0-1.61-2.86-4.65-2.86-4.47,0-25.29,28.95-25.29,40.58,0,4.47,3.99,5.06,3.99,5.06,0,0,2.18-7.59,7-16.51,1.15-2.47,23.25-10.7,23.25-3.54,0,10.2-20.59,23.27-34.55,23.27-11.28,0-10.38-2.51-10.38-2.51-3.76-1.97-11.28,13.42,9.49,13.42s41.8-22.2,41.8-30.97c0-10.32-12.01-9.43-12.01-9.43,11.61,0,31.4-30.54,1.36-30.54-19.86,0-41.79,11.33-41.79,23.66s13.76,6.02,13.76,1.72"/><path class="d" d="M18.58,27.61c-.7,0-5.6-4.23,2.34-12.17C32.38,3.98,58.36-.94,58.36,12.64c0,7.95-13.37,19.52-21.8,19.52,3.86-6.18,8.15-12.23,12.52-16.9,0,0-1.75-3.12-5.07-3.12-4.87,0-27.52,31.5-27.52,44.16,0,4.87,4.34,5.51,4.34,5.51,0,0,2.37-8.26,7.61-17.96,1.25-2.69,25.3-11.64,25.3-3.85,0,11.1-22.4,25.32-37.59,25.32-12.27,0-11.3-2.73-11.3-2.73-4.09-2.14-12.27,14.61,10.32,14.61s45.48-24.16,45.48-33.7c0-11.23-13.07-10.27-13.07-10.27,12.64,0,34.17-33.23,1.48-33.23C27.47,0,3.6,12.33,3.6,25.74s14.98,6.55,14.98,1.87"/><path class="d" d="M130.64,115.83c-10.31,0,6.66-20.83,3.29-20.83-.36,0-15.38,19-15.38,22.57,0,0-5.53,.76-5.53-4.53,0-1.66,2.97-8.17,5.99-14.37-.49,.02-1.02,.03-1.59,.03-.4,0-.77-.04-1.12-.09-2.91,7.13-9.13,14.39-16.06,14.39-7.75,0-7.16-6.84-4.36-12.58,.22-.44,.43-.85,.63-1.24-.42,.02-.87,.02-1.35,.02-.44,0-.83-.04-1.21-.1-2.99,6.97-9.08,13.89-15.86,13.89-7.75,0-7.16-6.84-4.36-12.58,3.52-7.21,6.04-6.87,6.04-6.87,2.85-8.22,6.88-8.62,11.4-8.55,4.67,.07,5.57,4.85,4.07,10.44,.19,.08,.41,.13,.67,.13,.94,0,2.13-.14,3.27-.33,1.68-1.82,2.72-1.69,2.72-1.69,2.85-8.22,6.88-8.62,11.4-8.55,4.53,.07,5.51,4.57,4.19,9.94,.19,.08,.41,.12,.67,.12,.79,0,1.77-.1,2.74-.25,2.41-4.82,4.43-8.68,4.43-8.68,2.64,0,6.41,.25,4.78,5.03-.86,2.51-4.16,7.32-7.15,13.09l12.06-14.98s5.15-.25,5.15,3.53c0,5.14-11.74,17.2-7.46,17.2,5.55,0,13.35-9.88,13.35-13.54,0-1.37,7.02-2.94,7.02,.15,0,7.4-16.4,19.23-22.44,19.23m-39.1-17.78c-3.03-2.58-1.66-8.73-.19-10.53-.03,0-.07,0-.1,0-1.92,0-4.51,2.5-6.87,5.74,3.82,.42,3.01,4.11,3.01,4.11-2.26,0-6.88,1.99-8.59,6.47-.64,2.15-.57,3.63,.63,3.63,5.51,0,9.79-4.62,12.11-9.42m22.32-.56c-3.07-2.27-2.8-7.76-.59-9.97-1.88,.1-4.37,2.58-6.63,5.78,3.4,.61,2.64,4.06,2.64,4.06-2.04,0-5.16,2.78-7.79,5.6-1.03,2.88-1.18,5.01,.24,5.01,5.73,0,9.93-5.36,12.13-10.48"/><path class="d" d="M91.04,42.45c0,7.87-12.84,15.32-21.95,15.32-14.84,0,.3-31.74,10.56-32.09,4.12-.14,8.28,1.76,7.87,6.63-.7,8.28-11.09,14.23-18.56,14.23l1.4-3.96c5.56,0,16.17-13.17,12.6-13.17-5.36,0-19.21,24.17-12.3,24.17s17.48-9.89,17.68-13.4c0,0,2.69-.62,2.69,2.28"/></g></g></g></svg>