<?xml version="1.0" encoding="UTF-8"?><svg xmlns="http://www.w3.org/2000/svg" viewBox="0 0 45.65 42.73"><defs><style>.d{fill:#f3e9da;}</style></defs><g id="a"/><g id="b"><g id="c"><path class="d" d="M.04,1.12c.8,1.75,2.08,1.91,3.73,2.39,2.98,.87,2.94,4.89,3.32,7.65,.62,4.61,1.03,9.39,2.64,13.79,.54,1.47,1.24,3.29,2.61,4.19,1.33,.88,3.05,.47,4.55,.48,5.64,.04,11.27,.55,16.9,.4,2.59-.07,5.04,.12,6.25-2.41,1.86-3.88,3.34-8.07,4.5-12.21,.46-1.65,2.32-6.78-.12-7.76-.84-.34-2.37-.07-3.26-.07-2.18-.02-4.35-.03-6.53-.04-8.84-.02-18.03-.6-26.82,.42-1.92,.22-2.16,.88-1.92,2.76,.6,4.67,1.69,9.37,2.92,13.91,.36,1.32,.65,3.41,1.52,4.54,.07,.09,.36,.52,.38,.63,.12,.79,.76-.93,.08,.12-.35,.54-1.11,.6-1.42,1.35-.99,2.4,2.45,2.35,3.93,2.49,8.45,.75,17.04,.08,25.49-.2,.33-.01,.66-.05,.99-.05,1.16,0,3.59,.18,1.07,.58-3.46,.54-7.06,.57-10.56,.75-4.04,.21-8.08,.39-12.13,.51-2.08,.06-5.47-.64-7.25,.57-3.37,2.3-1.05,7.42,2.89,6.76,3.74-.63,4.56-6.34,.2-6.59-.17,.46-.34,.91-.51,1.37,6.27-.06,12.53-.12,18.8-.17l5.11-.05c.77,0,2.36-.34,3.09-.03,.51,.22-.18-.25,.21,.16,.34,.36,.62,1.75,.55,2.16-.54,3.04-7.19,1.82-4.72-1.73,.43-.61,.02-1.6-.55-.78-2.13,3.06-.91,6.21,3.3,5.55,3.43-.54,3.49-4.03,2.22-6.61-.05-.07-.12-.11-.21-.12-9.1,.08-18.19,.17-27.29,.25-.55,0-1.19,1.33-.51,1.37,2.13,.12,4.38,3.26,.2,3.92-1.35,.21-2.88-.69-3.2-2.02-.87-3.63,5.93-2.59,7.99-2.65,5.54-.18,11.08-.45,16.62-.78,1.77-.11,8.12,.35,8.4-2.27,.2-1.92-3.13-1.5-4.45-1.44-7.08,.33-14.19,.59-21.28,.39-1.59-.04-3.2-.1-4.78-.28-.89-.1-2.76-.12-2.4-.92,.33-.73,1.58-.47,1.67-1.54,.07-.79-1.07-1.91-1.38-2.69-1.44-3.66-2.16-7.71-2.94-11.55-.35-1.74-.71-3.49-.96-5.26-.07-.48-.06-1.08-.17-1.55,.34,1.34-1.08,.28,.24,.54,.96,.19,2.43-.17,3.41-.21,1.93-.08,3.85-.11,5.78-.15,4.29-.07,8.59-.09,12.88-.1,3.77,0,7.53,0,11.3,.04,.85,0,2.07-.19,2.9,.04,1.55,.42,1.15,2.01,.92,3.42-.66,4.07-2.26,8.07-3.79,11.88-.4,.98-.83,3.06-1.63,3.77-1.01,.89-3.66,.61-4.85,.63-5.15,.11-10.3-.29-15.45-.39-1.61-.03-4.08,.5-5.48-.43-1.68-1.11-2.35-3.7-2.86-5.5-1.23-4.29-1.56-8.74-2.24-13.13-.28-1.79-.37-4.53-1.53-6.02C5.02,1.39,2.18,2.66,1.07,.23,.75-.47-.2,.61,.04,1.12"/><path class="d" d="M22.57,13.39v4.42c0,.82,1.01-.03,1.01-.56v-4.42c0-.83-1.01,.03-1.01,.56"/><path class="d" d="M27.81,13.39v4.42c0,.82,1.01-.03,1.01-.56v-4.42c0-.83-1.01,.03-1.01,.56"/><path class="d" d="M18.81,18.55c1.42,7.37,12.73,6.41,14.07-.54,.17-.9-.87-.34-.98,.25-1.18,6.1-11.01,5.19-12.11-.54-.13-.68-1.07,.33-.97,.84"/></g></g></svg>