<?xml version="1.0" encoding="UTF-8"?><svg xmlns="http://www.w3.org/2000/svg" xmlns:xlink="http://www.w3.org/1999/xlink" viewBox="0 0 509.32 187.72"><defs><style>.l{fill:url(#g);}.m{fill:url(#f);}.n{fill:url(#k);}.o{fill:url(#j);}.p{mask:url(#i);}.q{mask:url(#e);}.r{fill:none;}.s{clip-path:url(#d);}.t{clip-path:url(#h);}</style><clipPath id="d"><path class="r" d="M353.91,8.66c-6.95,8.34-9.74,19.67-11.75,30.08-5.27,27.26-4.65,55.3-9.54,82.62-1.98,11.06-4.85,23.08-11.48,32.48-6.1,8.66-15.13,13.57-25.74,13.9-12.97,.39-25.1-4.42-33.91-13.98-8.77-9.51-14-21.82-18.05-33.94-4.49-13.44-7.62-27.28-11.25-40.96-2.93-11.08-5.96-22.85-12.12-32.64-4.98-7.91-12.5-13.34-22.22-11.4-11.48,2.3-16.97,13.5-20.21,23.68-4.4,13.79-6.01,28.35-9.01,42.47-2.79,13.11-6.44,27.42-15.83,37.5-4.37,4.69-10.05,8.04-16.26,9.63-3.12,.8-2.53,9.29,0,8.64,30.13-7.75,34.77-44.76,39.5-70.46,1.26-6.82,2.5-13.58,4.38-20.26,1.5-5.34,3.3-10.72,6.58-15.18,5.32-7.21,15.47-10.39,23.36-5.45,7.77,4.86,11.33,15.4,14.05,23.81,4.14,12.78,6.97,25.94,10.49,38.89,6.5,23.92,15.83,54.94,41.24,65.02,10.99,4.36,24.78,4.95,35.35-.92,9.7-5.38,15.49-15.38,19.29-25.45,4.73-12.52,6.78-26.01,8.32-39.25,1.65-14.12,2.54-28.32,3.94-42.47,1.24-12.53,2.55-24.77,6.5-36.45,2.59-7.64,7.03-15.85,15.59-18.85,8.54-2.99,17.84,.13,24.52,5.71,8.4,7.02,14.07,17.11,18.9,26.75,13.32,26.58,21.82,55.29,33.86,82.44,5.79,13.05,12.31,25.98,20.9,37.44,7.05,9.4,15.97,18.09,27.06,22.46,5.32,2.09,10.98,3.15,16.69,3.18,2.99,.01,3.03-8.63,0-8.64-26.08-.12-42.6-23-53.6-43.91-14.06-26.72-22.94-55.77-34.72-83.49-5.04-11.86-10.56-23.78-18.26-34.19-5.69-7.7-13.1-14.77-22.72-16.89C375.97,.19,374.16,0,372.37,0c-7.07,0-13.78,3.05-18.46,8.66"/></clipPath><linearGradient id="f" x1="6634.27" y1="-6485.09" x2="6634.85" y2="-6485.09" gradientTransform="translate(-12118169.95 -11845053.74) scale(1826.52 -1826.52)" gradientUnits="userSpaceOnUse"><stop offset="0" stop-color="#000"/><stop offset="0" stop-color="#000"/><stop offset=".09" stop-color="#fff"/><stop offset=".53" stop-color="#fdfdfd"/><stop offset=".57" stop-color="#f5f5f5"/><stop offset=".63" stop-color="#dfdfdf"/><stop offset=".71" stop-color="#bbb"/><stop offset=".8" stop-color="#8a8a8a"/><stop offset=".9" stop-color="#4a4a4a"/><stop offset="1" stop-color="#000"/></linearGradient><mask id="e" x="133.42" y="0" width="376.67" height="187.73" maskUnits="userSpaceOnUse"><rect class="m" x="133.42" y="0" width="376.67" height="187.73"/></mask><linearGradient id="g" x1="6634.27" y1="-6485.09" x2="6634.85" y2="-6485.09" gradientTransform="translate(-12118169.95 -11845053.74) scale(1826.52 -1826.52)" gradientUnits="userSpaceOnUse"><stop offset="0" stop-color="#f3e9da"/><stop offset="0" stop-color="#f3e9da"/><stop offset=".09" stop-color="#f3e9da"/><stop offset=".53" stop-color="#f3e9da"/><stop offset="1" stop-color="#f3e9da"/></linearGradient><clipPath id="h"><path class="r" d="M2.26,72.1c12.95,.05,25.84,2.47,37,9.31,8.88,5.44,15.83,13.25,21.76,21.7,11.28,16.07,19.46,35.7,36.47,46.78,11.72,7.64,27.46,10.05,41,6.84,3.12-.74,2.58-9.26,0-8.64-12.36,2.93-26.53,1.21-37.6-5.16-8.39-4.83-14.75-12.23-20.21-20.1-11.68-16.85-20.36-36.27-37.82-48.18-11.93-8.14-26.33-11.14-40.6-11.19h0c-2.99,0-3.02,8.63,0,8.64"/></clipPath><linearGradient id="j" x1="6634.27" y1="-6485.09" x2="6634.85" y2="-6485.09" gradientTransform="translate(-12118169.95 -11845024.36) scale(1826.52 -1826.52)" xlink:href="#f"/><mask id="i" x="-.77" y="63.46" width="142.38" height="96.49" maskUnits="userSpaceOnUse"><rect class="o" x="-.77" y="63.46" width="142.38" height="96.49"/></mask><linearGradient id="k" x1="6634.27" y1="-6485.09" x2="6634.85" y2="-6485.09" gradientTransform="translate(-12118169.95 -11845024.36) scale(1826.52 -1826.52)" xlink:href="#g"/></defs><g id="a"/><g id="b"><g id="c"><g><g class="s"><g class="q"><rect class="l" x="133.42" y="0" width="376.67" height="187.73"/></g></g><g class="t"><g class="p"><rect class="n" x="-.77" y="63.46" width="142.38" height="96.49"/></g></g></g></g></g></svg>