<?xml version="1.0" encoding="utf-8"?>
<!-- Generator: Adobe Illustrator 26.1.0, SVG Export Plug-In . SVG Version: 6.00 Build 0)  -->
<svg version="1.1" id="Capa_1" xmlns="http://www.w3.org/2000/svg" xmlns:xlink="http://www.w3.org/1999/xlink" x="0px" y="0px"
	 viewBox="0 0 56.6 41.9" style="enable-background:new 0 0 56.6 41.9;" xml:space="preserve">
<style type="text/css">
	.st0{fill:#662D91;}
</style>
<g id="a">
</g>
<g id="a_00000060727566663173752280000016885556191537201280_">
</g>
<g id="a_00000176729800599634580070000011100562873326245508_">
</g>
<g id="a_00000046337919403960930520000009886432240551854750_">
</g>
<g id="b_00000044157033016247555660000009757971297012617633_">
	<g id="c_00000176043907540505120790000012750519855670052009_">
		<path class="st0" d="M1.1,6.5c3.3,0.9,3.2,7.6,6.4,9.1c2.8,1.1,4.8-1.5,6.2-3.9s2.2-5.2,4.9-2.6c1.2,1.1,1.3,3.9,2.6,5.2
			c2,2.2,4.2,1.7,6.1-0.4c1-1.1,1.4-3.1,2.3-4.1c2.6-3,3.2-1.1,4.9,1.7c1.7,2.6,2.8,5.4,5.8,4.1s3.5-7.2,6.4-7.2c3,0,3.5,6.5,7,7.6
			c2,0.6,4.3-5.7,1.9-6.5c-3.3-1.1-3-7.8-6.4-9.1c-2.6-1.1-4.6,1.5-6.1,3.9c-1.4,2.4-2.2,5.2-4.9,2.6C37,5.8,36.9,3,35.6,1.7
			c-2-2.2-4.2-1.7-6.1,0.4c-1,1.1-1.3,3.1-2.3,4.1c-2.5,2.8-3,1.1-4.9-1.7c-1.7-2.6-2.8-5.4-5.8-4.1S12.9,7.6,10,7.6
			c-3,0-3.5-6.5-7-7.6C0.9-0.5-1.4,5.8,1.1,6.5"/>
	</g>
</g>
</svg>
