<?xml version="1.0" encoding="UTF-8"?><svg xmlns="http://www.w3.org/2000/svg" viewBox="0 0 663.27 337.71"><defs><style>.d{fill:#f8eadb;}</style></defs><g id="a"/><g id="b"><g id="c"><g><path class="d" d="M454.23,160.39c-23.16,.17-44.44,14.88-51.87,37.01-3.66,10.88-4.09,23.16,.78,33.74,4.59,9.97,13.55,17.66,23.95,21.04,10.89,3.54,22.88,2.73,32.53-3.71,9.52-6.35,15.48-17.45,15.13-28.94s-9.18-20.44-20.26-22.38c-11.64-2.04-23.54,5.28-25.56,17.25-1.03,6.08,1.17,11.89,6.77,14.84,5.93,3.12,13.62,2.08,17.8-3.38,3.68-4.81,3.91-12.54-3.18-13.97-3.28-.67-6.72,.54-8.57,3.41-1.8,2.8-1.71,5.97,2.2,6.18,3.04,.16,5.96,7.35,2.7,7.18-7.73-.42-13.27-8.34-11.31-15.84,1.9-7.26,9.8-9.91,16.3-7.08,14.79,6.43,12.5,29.54-3.59,32.26-15.88,2.68-27.34-14.39-24.49-28.66,3.04-15.19,18.93-22.8,33.16-18.36,14.24,4.44,24.04,18.56,23.69,33.4-.34,14.36-8.89,27.86-22.08,33.78-28.47,12.78-60.51-11.47-64.03-40.4s17.05-57.53,46.01-63.4c3.7-.75,7.45-1.09,11.22-1.12,3.05-.02,6.06,7.15,2.7,7.18h0Z"/><path class="d" d="M515.01,179.22c1.6,5.99,3.27,11.96,5.01,17.91,.7,2.41,1.16,5.18,2.35,7.41,.88,1.66,2.06,3.23,3.07,4.81l18.31,28.68,22.39,35.07,8.13,12.73c1.22,1.91,2.31,4.16,3.77,5.9,1.14,1.36,2.85,2.37,4.17,3.54,2.86,2.53,6.59,5.82,7.88,9.52,.18,.51,.11,.9,.16,.47-.08,.75-.19,.06,.02,.02,.19-.04-.63,.63,.03,0-.2,.19-.35,.64-.52,.88,.57-.8-.15,.17-.3,.35-.66,.8-.9,1.07-1.53,1.67-2.74,2.61-5.88,4.75-9.1,6.71-7.21,4.36-12.76,7.04-20.98,8.06-11.67,1.45-23.73-.67-35.21-2.66-12.61-2.19-25.24-4.28-37.86-6.43-13.96-2.38-28.01-4.45-42.19-4.62-27.63-.32-54.72,5.77-81.89,9.87-10.17,1.54-20.39,2.18-30.34,4.87-6.46,1.75-14.56,5.06-21.34,3.4-2.52-.62-4.15-2.26-4.75-4.8-.16-.69-.24-1.36-.27-2.07-.05-1.1,.32-2.11-.1-.58,.2-.74-.31,.73-.34,.79,.04-.07-1.28,1.82-.49,.88-.49,.58-.85,.78,.09,.04-1.32,1.04-.37,.21,.22-.06,.47-.22,.93-.45,1.4-.66-1.41,.63,.38-.11,.83-.26,.62-.2,1.25-.37,1.88-.54,1.46-.37,2.94-.66,4.43-.91,4.06-.67,6.79-.89,10.53-1.13,10.22-.64,20.48-.55,30.7-.31,27.56,.66,55.09,2.68,82.59,4.68,29.54,2.15,59.07,4.5,88.64,6.2,22.93,1.32,46.18,2.79,69.14,1.17,6.57-.46,13.52-.96,19.7-3.39,1.43-.56,2.73-1.31,4.13-1.94-.84,.38,.55-.2,.75-.27,.56-.2,1.12-.39,1.68-.57,1.6-.52,3.21-.98,4.83-1.42,7.28-2,14.66-3.62,22.04-5.18,3.96-.84,7.92-1.65,11.89-2.42,3.97-.77,7.3-10.8,1.84-9.75-11.91,2.3-23.9,4.72-35.56,8.06-2.76,.79-5.6,1.61-8.18,2.88-.54,.26-1.06,.56-1.59,.84-.21,.11-.43,.19-.64,.29s.96-.32-.05,.02c-2.84,.93-5.7,1.59-8.65,2.04-4.34,.66-7.04,.85-11.34,1.09-4.96,.27-9.94,.38-14.91,.4-12.46,.05-24.91-.4-37.35-1-29.81-1.44-59.57-3.77-89.33-5.97-29.06-2.15-58.13-4.37-87.25-5.39-11.23-.4-22.49-.64-33.72-.22-7.66,.28-15.66,.6-23.1,2.65-5.75,1.58-11.4,5-12.4,11.42-1.13,7.22,2.39,14.42,9.96,15.5,7.47,1.06,15.49-1.91,22.59-3.82,10.39-2.8,21.13-3.41,31.74-5.05,14.13-2.18,28.17-4.85,42.33-6.81,14.04-1.95,28.21-3.13,42.39-2.44,14.38,.71,28.59,3.17,42.75,5.63,12.73,2.22,25.48,4.48,38.26,6.44,11.65,1.79,24.04,3.1,35.62,.17,7.11-1.8,13.89-5.6,19.96-9.62,6.71-4.45,14.74-10.54,16-19.09,1.17-7.92-7.43-15.22-13.16-19.41-1.1-.8,.04,.12,0,.05-.12-.27-.34-.51-.49-.77-.6-1.07-1.33-2.08-1.99-3.11l-18.37-28.77-23-36.03c-3.92-6.15-7.67-12.47-11.8-18.48,.76,1.1,.25,.41-.03-.54-.52-1.73-1.03-3.46-1.53-5.19-1.74-5.95-3.41-11.92-5.01-17.91-.66-2.47-3.34-1.76-4.83-.54-1.86,1.53-3.35,4.56-2.7,7.01h0Z"/><path class="d" d="M360.77,175.03c2.92-11.01,5.01-22.1,7.46-33.2,1.53-6.96,3.64-15.07,9.47-19.51,6.83-5.19,15.67-2.59,23.29-5.41,6.85-2.53,12.3-7.68,15.76-14.07,2.6-4.81,4.28-10.16,4.95-15.59,.38-3.11,.74-5.29-1.12-7.9-9.63-13.53-18.66-32.55-13.94-49.42,6.53-23.36,37.89-24.58,54.02-11.38,12.96,10.61,12.93,29.58,6.98,43.88-1.64,3.93-3.7,7.67-5.98,11.26-1.58,2.49-2.71,4.09-4.71,6.59-1.81,2.26-3.72,4.52-3.13,7.69,.19,1.01,.6,2.03,.94,2.99,2.09,5.84,5.1,11.5,9.14,16.22,2.61,3.05,5.69,5.8,9.14,7.87,4.01,2.41,8.45,3.28,12.77,4.91,7.67,2.89,13.86,7.72,17.72,15.01,4.22,7.98,5.06,17.27,6.97,25.95,1.35,6.14,2.9,12.23,4.51,18.3,.66,2.47,3.35,1.76,4.83,.54,1.87-1.53,3.35-4.56,2.7-7.01-2.84-10.71-4.79-21.55-7.33-32.31-1.76-7.44-4.6-15.03-9.92-20.69-2.78-2.96-6.05-5.42-9.67-7.26-4.1-2.09-8.53-2.95-12.76-4.65-7.12-2.85-12.55-8.29-16.48-14.77-2.16-3.57-4.01-7.51-5.03-11.57l-1.77,6.05c10.38-11.75,18.42-27.75,19.67-43.45,1.24-15.6-4.73-31.25-19.01-38.8-6.69-3.54-14.78-5.65-22.39-5.24-19.78,1.08-36.17,15.41-39.5,35.07-3.16,18.66,5.18,39.01,16.46,53.7l-.55-1.92c0,.09-.03,.7-.02,.7,.02,0-.05,.8-.05,.83-.02,.32-.1,.97,.04-.38-.03,.28-.05,.55-.09,.83-.13,.95-.26,1.9-.43,2.84-.11,.58-.23,1.16-.36,1.74-.08,.34-.62,2.26-.3,1.22-.41,1.35-.9,2.68-1.46,3.97-.42,.98-.11,.23,0,.04-.19,.37-.38,.75-.58,1.11s-1.45,2.3-.96,1.63c-1.72,2.38-3.5,4.04-6.49,5.41-4.19,1.92-8.56,1.64-13.03,2.05-4.58,.42-9.02,1.8-12.86,4.38-8.17,5.49-12.68,14.61-15.33,23.83-1.66,5.78-2.62,11.67-3.8,17.55-1.5,7.5-3.39,14.92-5.36,22.31-.54,2.05,.56,4.33,2.88,3.91,2.58-.47,4.13-3.62,4.72-5.84h0Z"/><path class="d" d="M2.04,294.58c9.89,.05,19.68,1.57,28.69,5.76,7.25,3.37,13.63,8.17,19.95,13,6.25,4.78,12.58,9.47,19.77,12.77,9.14,4.19,19.11,6.05,29.13,6.15,10.22,.1,20.42-1.26,29.86-5.3,6.84-2.92,12.83-7.38,18.4-12.25,4.85-4.24,9.6-8.83,14.82-11.82,6.92-3.96,14.83-5.3,22.74-5.06,9.97,.3,19.07,3.41,27.6,8.47,7.53,4.47,14.42,9.98,22.21,14.03,7.96,4.14,17.25,6.83,26.29,6.24,5.49-.36,10.66-2.61,15.22-5.61,11.99-7.89,21.28-19.62,29.42-31.27,9.42-13.47,17.67-27.7,25.29-42.25,6.15-11.75,11.91-23.71,17.32-35.81,2.6-5.81,4.88-11.31,6.66-17.42,1.86-6.38,3.66-12.78,5.38-19.2,.55-2.05-.56-4.33-2.88-3.91-2.59,.47-4.12,3.62-4.72,5.84-2.6,9.72-4.94,19.5-8.96,28.73-4.68,10.75-8.74,19.39-13.8,29.48-7.05,14.06-14.61,27.9-23.11,41.14-7.34,11.43-15.93,23.51-26.16,32.2-3.78,3.21-8.07,6.14-12.57,7.45-3.07,.89-4.82,.88-8.19,.66-4.67-.3-9.3-1.23-13.67-2.9-8.14-3.12-15.2-8.27-22.41-13.06-7.53-5-15.41-9.28-24.29-11.34-9.13-2.12-19.36-2.07-28.37,.7-6.78,2.09-12.72,5.84-18.15,10.34-4.97,4.12-9.71,8.92-14.89,12.54-6.45,4.5-14.08,7.32-21.97,8.57-10.32,1.63-21.35,1.26-31.47-1.38-8.01-2.09-15.3-6.11-22.02-10.87-6.11-4.33-11.83-9.21-18.12-13.29-7.18-4.66-15.06-8.03-23.47-9.75-5.2-1.07-10.49-1.48-15.78-1.5-4.22-.02-8.37,9.89-3.73,9.92h0Z"/></g></g></g></svg>