<?xml version="1.0" encoding="utf-8"?>
<!-- Generator: Adobe Illustrator 26.1.0, SVG Export Plug-In . SVG Version: 6.00 Build 0)  -->
<svg version="1.1" id="Capa_1" xmlns="http://www.w3.org/2000/svg" xmlns:xlink="http://www.w3.org/1999/xlink" x="0px" y="0px"
	 viewBox="0 0 815.7 325.9" style="enable-background:new 0 0 815.7 325.9;" xml:space="preserve">
<style type="text/css">
	.st0{filter:url(#Adobe_OpacityMaskFilter);}
	
		.st1{clip-path:url(#SVGID_00000032612422443570107510000006514775077060081815_);fill:url(#SVGID_00000101816490057995989740000004803784614419107773_);}
	
		.st2{clip-path:url(#SVGID_00000032612422443570107510000006514775077060081815_);mask:url(#SVGID_00000159431186628675028510000006637967177575385278_);fill:url(#SVGID_00000158746431607735566990000009151000652651036840_);}
	.st3{filter:url(#Adobe_OpacityMaskFilter_00000053505640608706356720000011476481170003171999_);}
	
		.st4{clip-path:url(#SVGID_00000031887352098999398230000010227423647090022289_);fill:url(#SVGID_00000029754419493761667200000002289741931812130966_);}
	
		.st5{clip-path:url(#SVGID_00000031887352098999398230000010227423647090022289_);mask:url(#SVGID_00000055708417361479614330000007585583803850516353_);fill:url(#SVGID_00000045600225759559400380000018284825262112444067_);}
</style>
<g>
	<defs>
		<path id="SVGID_1_" d="M171.8,58.4c-23.7,45.5-38.3,95.2-58.7,142.2c-9.8,22.6-20.6,45.2-35.1,65.2
			c-11.9,16.5-26.7,31.7-45.8,39.6c-9,3.7-18.6,5.5-28.3,5.5c-5.2,0-5.2,15,0,15c45.8-0.2,75.7-39.1,95.7-75.8
			c25.1-46,40.6-96.4,60.7-144.6C168.9,84.9,178,64,191,45.7c9.1-12.9,21.2-26,37.3-29.6c15.1-3.4,29.8,1.6,39,13.7
			c10.3,13.5,14.2,32.5,17,49.3c7.9,47.7,7,96.5,16.8,143.9c4.3,20.7,10.4,42.1,23.3,59.1c11.4,15,28.1,23.4,46.9,24
			c22.9,0.7,44.4-7.8,60.5-24.1c16.2-16.4,26.1-38.3,33.8-59.7c8.3-23.2,14-47.3,20.1-71.2c5.1-19.6,9.8-39.7,19.7-57.2
			c7.3-12.8,19-21.8,35.1-18.5c18.7,3.8,26,23.9,30.5,40c6.8,24.6,9.6,50.1,15.5,74.9c5.4,23.1,13.3,48.3,30.8,65.3
			c8.4,8.2,18.4,13.5,29.7,16.4c4.4,1.1,5.4-13.6,0-15c-23.2-6-37.6-25-45.8-46.4c-9.1-23.7-12.5-49.3-17.3-74.1
			c-4.1-21.2-8.1-46-22.3-63.2c-10.4-12.6-29.2-18-43.9-9.4c-15,8.7-22.3,27.4-27.8,43c-7.6,21.6-12.4,44.1-18.3,66.2
			c-10.7,40.7-24.6,94.3-67.5,112.4c-18.4,7.8-42.3,8.7-59.9-1.6c-15.6-9.2-24.5-26.1-29.9-42.4c-7.3-21.9-10.2-44.7-12.6-67.8
			c-2.6-24.4-4.1-49-6.7-73.4c-2.4-21.6-5.4-43.7-13.3-64c-5.6-14.4-14.9-29.1-30.4-34c-4.8-1.5-9.4-2.2-13.9-2.2
			C206.7,0,184.8,33.5,171.8,58.4"/>
	</defs>
	<clipPath id="SVGID_00000124848917630368755290000009209401274554205102_">
		<use xlink:href="#SVGID_1_"  style="overflow:visible;"/>
	</clipPath>
	<defs>
		<filter id="Adobe_OpacityMaskFilter" filterUnits="userSpaceOnUse" x="-1.3" y="0" width="653.6" height="325.9">
			<feColorMatrix  type="matrix" values="1 0 0 0 0  0 1 0 0 0  0 0 1 0 0  0 0 0 1 0"/>
		</filter>
	</defs>
	
		<mask maskUnits="userSpaceOnUse" x="-1.3" y="0" width="653.6" height="325.9" id="SVGID_00000162332093425558641110000009889316044307711415_">
		<g class="st0">
			
				<linearGradient id="SVGID_00000072987863918176093950000000839838919230661535_" gradientUnits="userSpaceOnUse" x1="1111.177" y1="544.0189" x2="1112.177" y2="544.0189" gradientTransform="matrix(1826.5188 0 0 -1826.5188 -2029581.625 993823.6875)">
				<stop  offset="0" style="stop-color:#000000"/>
				<stop  offset="4.794970e-03" style="stop-color:#000000"/>
				<stop  offset="8.705360e-02" style="stop-color:#FFFFFF"/>
				<stop  offset="0.5274" style="stop-color:#FDFDFD"/>
				<stop  offset="0.5682" style="stop-color:#F5F5F5"/>
				<stop  offset="0.6313" style="stop-color:#DFDFDF"/>
				<stop  offset="0.7089" style="stop-color:#BBBBBB"/>
				<stop  offset="0.7978" style="stop-color:#8A8A8A"/>
				<stop  offset="0.8965" style="stop-color:#4A4A4A"/>
				<stop  offset="1" style="stop-color:#000000"/>
			</linearGradient>
			
				<rect x="-1.3" style="clip-path:url(#SVGID_00000124848917630368755290000009209401274554205102_);fill:url(#SVGID_00000072987863918176093950000000839838919230661535_);" width="653.6" height="325.9"/>
		</g>
	</mask>
	
		<linearGradient id="SVGID_00000122697247999045050890000001457477814077328027_" gradientUnits="userSpaceOnUse" x1="1111.177" y1="544.0189" x2="1112.177" y2="544.0189" gradientTransform="matrix(1826.5188 0 0 -1826.5188 -2029581.625 993823.6875)">
		<stop  offset="0" style="stop-color:#F4E9DA"/>
		<stop  offset="4.794970e-03" style="stop-color:#F4E9DA"/>
		<stop  offset="8.705360e-02" style="stop-color:#F4E9DA"/>
		<stop  offset="0.5274" style="stop-color:#F4E9DA"/>
		<stop  offset="1" style="stop-color:#F4E9DA"/>
	</linearGradient>
	
		<rect x="-1.3" style="clip-path:url(#SVGID_00000124848917630368755290000009209401274554205102_);mask:url(#SVGID_00000162332093425558641110000009889316044307711415_);fill:url(#SVGID_00000122697247999045050890000001457477814077328027_);" width="653.6" height="325.9"/>
</g>
<g>
	<defs>
		<path id="SVGID_00000008843676618227889610000008039006151303545504_" d="M811.8,89.3c-30.3,0.3-40.8,38.1-48.2,61.4
			c-10.2,32-19.2,69.8-46.5,92c-19.3,15.7-46.3,20.1-70.2,14.4c-4.4-1.1-5.5,13.7,0,15c21.6,5.1,46.6,1.9,65.4-10.1
			c15-9.6,25.9-24.1,34-39.7c8.4-16.2,14.2-33.8,19.7-51.2c4.8-15.3,9.1-30.7,16.3-44.8c6-11.7,15.1-22,29.5-22.1
			C817,104.2,817.1,89.3,811.8,89.3C811.8,89.3,811.8,89.3,811.8,89.3"/>
	</defs>
	<clipPath id="SVGID_00000102528309557988304720000014152818192702666915_">
		<use xlink:href="#SVGID_00000008843676618227889610000008039006151303545504_"  style="overflow:visible;"/>
	</clipPath>
	<defs>
		
			<filter id="Adobe_OpacityMaskFilter_00000023253563534525480570000008111546704873887635_" filterUnits="userSpaceOnUse" x="641.4" y="89.3" width="175.6" height="188">
			<feColorMatrix  type="matrix" values="1 0 0 0 0  0 1 0 0 0  0 0 1 0 0  0 0 0 1 0"/>
		</filter>
	</defs>
	
		<mask maskUnits="userSpaceOnUse" x="641.4" y="89.3" width="175.6" height="188" id="SVGID_00000050639900003304788430000012461207101584207792_">
		<g style="filter:url(#Adobe_OpacityMaskFilter_00000023253563534525480570000008111546704873887635_);">
			
				<linearGradient id="SVGID_00000119104993412987112870000004898364146983220388_" gradientUnits="userSpaceOnUse" x1="1111.177" y1="544.0181" x2="1112.177" y2="544.0181" gradientTransform="matrix(1826.5188 0 0 -1826.5188 -2029581.625 993842.625)">
				<stop  offset="0" style="stop-color:#000000"/>
				<stop  offset="4.794970e-03" style="stop-color:#000000"/>
				<stop  offset="8.705360e-02" style="stop-color:#FFFFFF"/>
				<stop  offset="0.5274" style="stop-color:#FDFDFD"/>
				<stop  offset="0.5682" style="stop-color:#F5F5F5"/>
				<stop  offset="0.6313" style="stop-color:#DFDFDF"/>
				<stop  offset="0.7089" style="stop-color:#BBBBBB"/>
				<stop  offset="0.7978" style="stop-color:#8A8A8A"/>
				<stop  offset="0.8965" style="stop-color:#4A4A4A"/>
				<stop  offset="1" style="stop-color:#000000"/>
			</linearGradient>
			
				<rect x="641.4" y="89.3" style="clip-path:url(#SVGID_00000102528309557988304720000014152818192702666915_);fill:url(#SVGID_00000119104993412987112870000004898364146983220388_);" width="175.6" height="188"/>
		</g>
	</mask>
	
		<linearGradient id="SVGID_00000129912492784298778880000013445103374959140003_" gradientUnits="userSpaceOnUse" x1="1111.177" y1="544.0181" x2="1112.177" y2="544.0181" gradientTransform="matrix(1826.5188 0 0 -1826.5188 -2029581.625 993842.625)">
		<stop  offset="0" style="stop-color:#F4E9DA"/>
		<stop  offset="4.794970e-03" style="stop-color:#F4E9DA"/>
		<stop  offset="8.705360e-02" style="stop-color:#F4E9DA"/>
		<stop  offset="0.5274" style="stop-color:#F4E9DA"/>
		<stop  offset="1" style="stop-color:#F4E9DA"/>
	</linearGradient>
	
		<rect x="641.4" y="89.3" style="clip-path:url(#SVGID_00000102528309557988304720000014152818192702666915_);mask:url(#SVGID_00000050639900003304788430000012461207101584207792_);fill:url(#SVGID_00000129912492784298778880000013445103374959140003_);" width="175.6" height="188"/>
</g>
</svg>
