<?xml version="1.0" encoding="UTF-8"?><svg xmlns="http://www.w3.org/2000/svg" xmlns:xlink="http://www.w3.org/1999/xlink" viewBox="0 0 657.44 400"><defs><style>.e{fill:url(#d);}</style><linearGradient id="d" x1="5.22" y1="200" x2="652.22" y2="200" gradientTransform="matrix(1, 0, 0, 1, 0, 0)" gradientUnits="userSpaceOnUse"><stop offset="0" stop-color="#f8eadb"/><stop offset=".45" stop-color="#f8eadb" stop-opacity=".99"/><stop offset=".66" stop-color="#f8eadb" stop-opacity=".98"/><stop offset=".73" stop-color="#f8eadb" stop-opacity=".96"/><stop offset=".78" stop-color="#f8eadb" stop-opacity=".91"/><stop offset=".83" stop-color="#f8eadb" stop-opacity=".84"/><stop offset=".86" stop-color="#f8eadb" stop-opacity=".75"/><stop offset=".9" stop-color="#f8eadb" stop-opacity=".64"/><stop offset=".93" stop-color="#f8eadb" stop-opacity=".51"/><stop offset=".95" stop-color="#f8eadb" stop-opacity=".36"/><stop offset=".98" stop-color="#f8eadb" stop-opacity=".19"/><stop offset="1" stop-color="#f8eadb" stop-opacity="0"/><stop offset="1" stop-color="#f8eadb" stop-opacity="0"/></linearGradient></defs><g id="a"/><g id="b"><g id="c"><path class="e" d="M652.22,73c-37.4,.26-51.1,49.23-59.39,77.8-6.72,23.17-12.09,46.7-18.41,69.97s-13.37,46.47-23.7,68.02c-9.19,19.17-21.03,37.53-38.7,50.28-18.1,13.07-40.57,18.56-62.74,16.58-18.24-1.63-34.01-10.13-45.24-23.73-12.24-14.82-18.49-32.41-23.43-51.52-.65-2.51-1.26-5.03-1.84-7.55-.28-1.21-.55-2.43-.82-3.65-.6-2.71,.37,1.84-.19-.89-.17-.83-.34-1.65-.5-2.48-1.18-5.92-2.22-11.87-3.15-17.83-1.89-12.13-3.35-24.33-4.61-36.55-2.57-24.88-4.3-49.83-6.7-74.73-2.22-23-4.95-46.06-10.38-68.56-4.25-17.61-10.42-36.11-22.35-50.12C319.69,5.85,304.94-.62,288.92,.05c-16.76,.7-31.36,9.14-43.26,20.47-14.53,13.84-25.26,31.59-34.55,49.21-11.36,21.55-20.7,44.15-29.65,66.78-19.56,49.46-36.47,99.49-60.99,147.08-19.1,37.07-45.05,77.93-86.86,91.97-9.14,3.07-18.77,4.4-28.4,4.44-6.95,.03-6.98,20.03,0,20,44.4-.17,77.85-31,101.15-66.01,29.25-43.95,47.86-94.2,66.66-143.23,9.2-24.01,18.05-47.53,28.4-71.46,4.7-10.86,9.63-21.63,15.05-32.15,2.51-4.88,5.13-9.71,7.88-14.46s5.13-8.57,7.6-12.2c9.89-14.59,21.09-27.81,36.76-35.34,13.07-6.28,29.68-7.25,42.73-.67,6.96,3.51,10.87,7.15,15.65,13.43,.51,.67,1.01,1.36,1.5,2.05,.27,.39,.54,.78,.81,1.18,1.05,1.55-.53-.86,.09,.13,1.11,1.76,2.15,3.56,3.12,5.4s1.87,3.68,2.72,5.56c.44,.97,.86,1.95,1.27,2.93,.17,.4,.33,.8,.49,1.2,.91,2.16-.08-.3,.41,1.03,1.6,4.31,3.01,8.68,4.26,13.11,.66,2.34,1.27,4.68,1.84,7.04,.3,1.21,.58,2.42,.86,3.63,.14,.63,1.08,4.97,.63,2.81,2.25,10.88,3.92,21.87,5.3,32.88,6.14,48.8,7.1,98.24,15.79,146.73,6.79,37.88,18.84,86.21,56.66,104.87,19.15,9.45,42.28,9.35,62.53,3.81,21.19-5.79,38.99-19.18,52.4-36.39,29.96-38.45,41.38-88.95,53.14-135.23,5.53-21.75,10.88-43.64,18.69-64.71,.82-2.2-.1,.16,.77-1.99,.44-1.08,.87-2.17,1.33-3.25,.96-2.29,1.97-4.56,3.04-6.8,1.81-3.79,3.79-7.49,6.02-11.05,1.02-1.64-.54,.8,.11-.18,.27-.41,.54-.81,.82-1.21,.55-.78,1.1-1.56,1.67-2.33,1.21-1.62,2.5-3.18,3.87-4.67,1.13-1.22,2.31-2.39,3.56-3.5,.94-.84-.23,.12,.96-.79,.8-.6,1.6-1.2,2.44-1.75,6.01-3.97,11.08-5.39,18.04-5.44s6.97-20.05,0-20h0Z"/></g></g></svg>