<?xml version="1.0" encoding="UTF-8"?><svg xmlns="http://www.w3.org/2000/svg" viewBox="0 0 115.6 106.35"><defs><style>.d{fill:#f3e9da;}</style></defs><g id="a"/><g id="b"><g id="c"><g><path class="d" d="M23.52,71.95c-.48,0-3.89-2.93,1.62-8.44,7.96-7.96,25.98-11.37,25.98-1.95,0,5.52-9.28,13.54-15.13,13.54,2.68-4.29,5.65-8.49,8.69-11.73,0,0-1.22-2.16-3.51-2.16-3.38,0-19.1,21.86-19.1,30.65,0,3.38,3.01,3.82,3.01,3.82,0,0,1.64-5.73,5.28-12.46,.87-1.86,17.56-8.08,17.56-2.67,0,7.7-15.54,17.57-26.09,17.57-8.51,0-7.84-1.89-7.84-1.89-2.84-1.49-8.51,10.14,7.16,10.14s31.56-16.76,31.56-23.39c0-7.79-9.07-7.12-9.07-7.12,8.77,0,23.71-23.06,1.03-23.06-14.99,0-31.56,8.56-31.56,17.86s10.39,4.55,10.39,1.3"/><path class="d" d="M14.03,20.85c-.53,0-4.23-3.19,1.77-9.19C24.45,3,44.07-.71,44.07,9.54c0,6-10.1,14.74-16.47,14.74,2.92-4.67,6.15-9.24,9.46-12.76,0,0-1.32-2.35-3.82-2.35-3.68,0-20.78,23.79-20.78,33.35,0,3.68,3.28,4.16,3.28,4.16,0,0,1.79-6.24,5.75-13.57,.94-2.03,19.11-8.79,19.11-2.91,0,8.38-16.92,19.12-28.39,19.12-9.27,0-8.53-2.06-8.53-2.06-3.09-1.62-9.27,11.03,7.8,11.03s34.35-18.24,34.35-25.45c0-8.48-9.87-7.75-9.87-7.75,9.54,0,25.8-25.09,1.12-25.09C20.74,0,2.72,9.31,2.72,19.44s11.31,4.95,11.31,1.41"/><path class="d" d="M98.65,87.47c-7.79,0,5.03-15.73,2.48-15.73-.27,0-11.62,14.35-11.62,17.04,0,0-4.18,.57-4.18-3.42,0-1.25,2.24-6.17,4.52-10.85-.37,.02-.77,.03-1.2,.03-.3,0-.58-.03-.85-.07-2.2,5.38-6.89,10.86-12.13,10.86-5.85,0-5.41-5.17-3.29-9.5,.16-.33,.32-.64,.48-.94-.32,.01-.66,.02-1.02,.02-.33,0-.63-.03-.91-.08-2.26,5.26-6.86,10.49-11.97,10.49-5.85,0-5.41-5.17-3.29-9.5,2.66-5.44,4.56-5.19,4.56-5.19,2.15-6.21,5.19-6.51,8.61-6.46,3.53,.05,4.21,3.66,3.07,7.88,.14,.06,.31,.09,.51,.09,.71,0,1.61-.11,2.47-.25,1.27-1.38,2.06-1.27,2.06-1.27,2.15-6.21,5.19-6.51,8.61-6.46,3.42,.05,4.16,3.45,3.17,7.5,.14,.06,.31,.09,.51,.09,.6,0,1.33-.08,2.07-.19,1.82-3.64,3.35-6.56,3.35-6.56,1.99,0,4.84,.19,3.61,3.8-.65,1.9-3.15,5.53-5.4,9.89l9.1-11.31s3.89-.19,3.89,2.66c0,3.88-8.86,12.99-5.63,12.99,4.19,0,10.08-7.46,10.08-10.22,0-1.04,5.3-2.22,5.3,.12,0,5.59-12.38,14.52-16.95,14.52m-29.53-13.43c-2.29-1.95-1.26-6.59-.14-7.96-.03,0-.05,0-.08,0-1.45,0-3.41,1.89-5.18,4.33,2.88,.31,2.27,3.11,2.27,3.11-1.7,0-5.2,1.5-6.49,4.89-.48,1.62-.43,2.74,.47,2.74,4.16,0,7.39-3.49,9.14-7.11m16.86-.42c-2.32-1.72-2.11-5.86-.45-7.53-1.42,.07-3.3,1.95-5.01,4.37,2.56,.46,2,3.07,2,3.07-1.54,0-3.89,2.1-5.88,4.23-.78,2.18-.89,3.78,.18,3.78,4.33,0,7.49-4.05,9.16-7.92"/><path class="d" d="M68.75,32.05c0,5.94-9.69,11.57-16.57,11.57-11.2,0,.23-23.97,7.97-24.23,3.11-.11,6.25,1.33,5.94,5-.53,6.25-8.38,10.75-14.01,10.75l1.06-2.99c4.2,0,12.21-9.94,9.52-9.94-4.05,0-14.51,18.25-9.29,18.25s13.2-7.47,13.35-10.12c0,0,2.03-.47,2.03,1.72"/></g><g><path class="d" d="M52.45,97.32s-.08-.01-.11-.04c-.03-.03-.04-.06-.04-.11v-4.1s.01-.08,.04-.11c.03-.03,.06-.04,.11-.04h1.83c.34,0,.62,.05,.83,.15,.21,.1,.37,.24,.48,.42,.1,.18,.15,.39,.15,.63,0,.16-.03,.3-.08,.42-.06,.12-.13,.22-.21,.29-.08,.08-.16,.13-.24,.18,.16,.08,.31,.2,.43,.38,.12,.18,.19,.39,.19,.63s-.06,.48-.17,.67c-.11,.2-.28,.35-.5,.46-.22,.11-.5,.17-.82,.17h-1.88Zm.72-2.6h.99c.22,0,.39-.05,.5-.16s.17-.25,.17-.42-.06-.31-.17-.42-.28-.15-.5-.15h-.99v1.15Zm0,1.93h1.05c.23,0,.4-.06,.52-.19,.12-.12,.18-.27,.18-.45s-.06-.34-.18-.46c-.12-.12-.29-.18-.51-.18h-1.05v1.28Z"/><path class="d" d="M57.13,98.51s-.06-.01-.09-.04c-.03-.03-.04-.05-.04-.09,0-.02,0-.03,0-.05,0-.01,0-.03,.02-.05l.49-1.16-1.21-2.85s-.02-.07-.02-.09c0-.04,.02-.07,.04-.1,.02-.03,.06-.04,.09-.04h.51c.05,0,.09,.01,.11,.04s.04,.05,.06,.08l.84,2.06,.86-2.06s.03-.06,.06-.08c.03-.02,.06-.03,.11-.03h.5s.06,.01,.09,.04,.04,.05,.04,.09c0,.03,0,.06-.03,.1l-1.78,4.12s-.04,.06-.06,.08-.06,.03-.11,.03h-.5Z"/><path class="d" d="M60.28,95.11s-.08-.01-.11-.04c-.03-.03-.04-.06-.04-.11v-.6s.01-.08,.04-.11c.03-.03,.07-.04,.11-.04h.62s.08,.01,.11,.04c.03,.03,.04,.07,.04,.11v.6s-.02,.08-.04,.11c-.03,.03-.07,.04-.11,.04h-.62Zm0,2.2s-.08-.01-.11-.04c-.03-.03-.04-.06-.04-.11v-.6s.01-.08,.04-.11c.03-.03,.07-.04,.11-.04h.62s.08,.01,.11,.04c.03,.03,.04,.07,.04,.11v.6s-.02,.08-.04,.11c-.03,.03-.07,.04-.11,.04h-.62Z"/><path class="d" d="M63.54,97.32s-.08-.01-.11-.04c-.03-.03-.04-.06-.04-.11v-4.1s.01-.08,.04-.11c.03-.03,.06-.04,.11-.04h1.69c.33,0,.61,.05,.86,.15,.24,.1,.43,.26,.57,.47,.13,.21,.2,.47,.2,.78s-.07,.57-.2,.78c-.13,.2-.32,.36-.57,.46s-.53,.15-.86,.15h-.94v1.47s-.01,.08-.04,.11c-.03,.03-.06,.04-.11,.04h-.6Zm.74-2.32h.92c.24,0,.43-.06,.56-.17s.2-.29,.2-.51c0-.21-.06-.38-.18-.51-.12-.13-.31-.19-.57-.19h-.92v1.38Z"/><path class="d" d="M68.34,97.38c-.22,0-.42-.04-.59-.13-.18-.09-.32-.2-.42-.35-.1-.14-.15-.31-.15-.49,0-.29,.12-.53,.36-.7,.24-.17,.55-.29,.94-.35l.86-.13v-.13c0-.18-.04-.31-.13-.41-.09-.1-.24-.14-.45-.14-.15,0-.27,.03-.37,.09-.09,.06-.17,.14-.21,.24-.03,.05-.08,.08-.14,.08h-.5s-.08-.01-.1-.04c-.02-.03-.04-.06-.04-.1,0-.07,.03-.15,.08-.25,.05-.1,.13-.19,.24-.28,.11-.09,.25-.17,.42-.23,.17-.06,.38-.09,.62-.09,.26,0,.49,.03,.67,.1,.18,.07,.33,.15,.44,.26,.11,.11,.19,.24,.24,.38,.05,.15,.08,.3,.08,.47v1.98s-.01,.08-.04,.11c-.03,.03-.07,.04-.11,.04h-.51s-.08-.01-.11-.04c-.03-.03-.04-.06-.04-.11v-.25c-.05,.08-.13,.15-.22,.22-.09,.07-.2,.13-.34,.17-.13,.04-.29,.07-.47,.07Zm.21-.6c.15,0,.28-.03,.4-.09,.12-.06,.21-.16,.28-.29,.07-.13,.1-.3,.1-.5v-.13l-.63,.1c-.25,.04-.43,.1-.55,.18-.12,.08-.18,.19-.18,.31,0,.09,.03,.17,.08,.24,.06,.07,.13,.11,.22,.14s.18,.05,.28,.05Z"/><path class="d" d="M72.44,97.32c-.25,0-.46-.04-.63-.13-.17-.09-.3-.22-.38-.39-.08-.17-.13-.39-.13-.65v-1.43h-.5s-.08-.01-.11-.04c-.03-.03-.04-.07-.04-.11v-.36s.01-.08,.04-.11,.07-.04,.11-.04h.5v-1.04s.01-.08,.04-.11c.03-.03,.06-.04,.11-.04h.51s.08,.01,.11,.04c.03,.03,.04,.07,.04,.11v1.04h.79s.08,.01,.11,.04,.04,.07,.04,.11v.36s-.01,.08-.04,.11c-.03,.03-.07,.04-.11,.04h-.79v1.37c0,.17,.03,.31,.09,.4,.06,.1,.17,.14,.32,.14h.43s.08,.01,.11,.04c.03,.03,.04,.07,.04,.11v.39s-.01,.08-.04,.11c-.03,.03-.07,.04-.11,.04h-.51Z"/><path class="d" d="M73.81,97.32s-.08-.01-.11-.04c-.03-.03-.04-.06-.04-.11v-2.96s.01-.08,.04-.11,.07-.04,.11-.04h.51s.08,.01,.11,.04c.03,.03,.05,.07,.05,.11v.26c.1-.13,.22-.24,.37-.31,.15-.07,.33-.11,.53-.11h.26s.08,.01,.11,.04,.04,.07,.04,.11v.45s-.01,.08-.04,.11-.06,.04-.11,.04h-.49c-.2,0-.36,.06-.47,.17-.11,.11-.17,.27-.17,.47v1.73s-.02,.08-.04,.11c-.03,.03-.07,.04-.11,.04h-.55Z"/><path class="d" d="M76.41,93.5s-.08-.01-.11-.04c-.03-.03-.04-.06-.04-.11v-.45s.01-.08,.04-.11c.03-.03,.06-.04,.11-.04h.57s.08,.01,.11,.04c.03,.03,.04,.07,.04,.11v.45s-.02,.08-.04,.11c-.03,.03-.07,.04-.11,.04h-.57Zm.03,3.81s-.08-.01-.11-.04c-.03-.03-.04-.06-.04-.11v-2.97s.01-.08,.04-.11,.07-.04,.11-.04h.52s.08,.01,.11,.04,.04,.07,.04,.11v2.97s-.01,.08-.04,.11c-.03,.03-.06,.04-.11,.04h-.52Z"/><path class="d" d="M79.36,97.38c-.3,0-.57-.06-.8-.17s-.41-.28-.54-.49c-.13-.22-.2-.48-.21-.78,0-.06,0-.15,0-.25s0-.19,0-.25c.01-.31,.08-.57,.21-.78,.13-.22,.31-.38,.54-.49s.49-.17,.8-.17c.27,0,.5,.04,.69,.11,.19,.07,.34,.17,.47,.28,.12,.12,.21,.23,.27,.36,.06,.12,.09,.24,.1,.34,0,.05,0,.08-.04,.11-.03,.03-.07,.04-.11,.04h-.55s-.08-.01-.1-.03c-.02-.02-.04-.05-.07-.09-.06-.17-.15-.29-.25-.36-.1-.07-.23-.1-.39-.1-.21,0-.38,.07-.5,.2-.12,.13-.19,.34-.2,.63,0,.16,0,.31,0,.44,0,.29,.07,.5,.2,.63,.12,.13,.29,.2,.5,.2,.16,0,.3-.03,.4-.1s.18-.19,.25-.36c.02-.04,.04-.07,.07-.09,.02-.02,.06-.03,.1-.03h.55s.08,.01,.11,.04c.03,.03,.05,.06,.04,.11,0,.08-.02,.16-.06,.25-.04,.09-.09,.19-.17,.29-.08,.1-.17,.19-.29,.27-.12,.08-.26,.15-.42,.2-.17,.05-.36,.08-.58,.08Z"/><path class="d" d="M81.66,93.5s-.08-.01-.11-.04c-.03-.03-.04-.06-.04-.11v-.45s.01-.08,.04-.11c.03-.03,.06-.04,.11-.04h.57s.08,.01,.11,.04c.03,.03,.04,.07,.04,.11v.45s-.02,.08-.04,.11c-.03,.03-.07,.04-.11,.04h-.57Zm.03,3.81s-.08-.01-.11-.04c-.03-.03-.04-.06-.04-.11v-2.97s.01-.08,.04-.11,.07-.04,.11-.04h.52s.08,.01,.11,.04,.04,.07,.04,.11v2.97s-.01,.08-.04,.11c-.03,.03-.06,.04-.11,.04h-.52Z"/><path class="d" d="M84.15,97.38c-.22,0-.42-.04-.59-.13-.18-.09-.32-.2-.42-.35-.1-.14-.15-.31-.15-.49,0-.29,.12-.53,.36-.7,.24-.17,.55-.29,.94-.35l.86-.13v-.13c0-.18-.04-.31-.13-.41-.09-.1-.24-.14-.45-.14-.15,0-.27,.03-.37,.09-.09,.06-.17,.14-.21,.24-.03,.05-.08,.08-.14,.08h-.5s-.08-.01-.1-.04c-.02-.03-.04-.06-.04-.1,0-.07,.03-.15,.08-.25,.05-.1,.13-.19,.24-.28,.11-.09,.25-.17,.42-.23,.17-.06,.38-.09,.62-.09,.26,0,.49,.03,.67,.1,.18,.07,.33,.15,.44,.26,.11,.11,.19,.24,.24,.38,.05,.15,.08,.3,.08,.47v1.98s-.01,.08-.04,.11c-.03,.03-.07,.04-.11,.04h-.51s-.08-.01-.11-.04c-.03-.03-.04-.06-.04-.11v-.25c-.05,.08-.13,.15-.22,.22-.09,.07-.2,.13-.34,.17-.13,.04-.29,.07-.47,.07Zm.21-.6c.15,0,.28-.03,.4-.09,.12-.06,.21-.16,.28-.29,.07-.13,.1-.3,.1-.5v-.13l-.63,.1c-.25,.04-.43,.1-.55,.18-.12,.08-.18,.19-.18,.31,0,.09,.03,.17,.08,.24,.06,.07,.13,.11,.22,.14s.18,.05,.28,.05Z"/><path class="d" d="M88.46,97.32s-.08-.01-.11-.04c-.03-.03-.04-.06-.04-.11v-4.1s.01-.08,.04-.11c.03-.03,.06-.04,.11-.04h1.63c.51,0,.91,.12,1.2,.35,.29,.23,.44,.58,.44,1.03,0,.31-.08,.57-.23,.77-.15,.21-.36,.35-.61,.45l.92,1.6s.02,.05,.02,.07c0,.04-.01,.07-.04,.09-.03,.03-.06,.04-.09,.04h-.57c-.07,0-.13-.02-.16-.06-.04-.04-.07-.08-.09-.11l-.81-1.49h-.88v1.51s-.01,.08-.04,.11c-.03,.03-.06,.04-.11,.04h-.57Zm.72-2.37h.89c.26,0,.45-.06,.57-.17,.13-.12,.19-.28,.19-.49s-.06-.37-.19-.49c-.12-.12-.32-.18-.58-.18h-.89v1.33Z"/><path class="d" d="M93.84,97.38c-.47,0-.83-.13-1.11-.4-.27-.27-.42-.65-.44-1.15,0-.04,0-.1,0-.16s0-.12,0-.15c.02-.32,.09-.59,.22-.82s.3-.4,.53-.53c.23-.12,.49-.19,.8-.19,.34,0,.62,.07,.86,.21,.23,.14,.4,.34,.52,.59,.12,.25,.18,.54,.18,.87v.13s-.01,.08-.04,.11c-.03,.03-.07,.04-.11,.04h-2.09v.05c0,.15,.03,.28,.08,.41,.05,.12,.13,.22,.23,.3,.1,.08,.23,.11,.37,.11,.12,0,.22-.02,.3-.05,.08-.04,.14-.08,.2-.12,.05-.05,.09-.08,.11-.11,.04-.05,.07-.08,.09-.09,.02-.01,.06-.02,.1-.02h.54s.08,.01,.1,.04c.03,.03,.04,.06,.04,.09,0,.07-.04,.15-.1,.25-.07,.1-.16,.19-.28,.28-.12,.09-.27,.17-.46,.23s-.39,.09-.63,.09Zm-.69-1.98h1.39v-.02c0-.16-.03-.31-.08-.43-.05-.12-.13-.22-.24-.29s-.23-.1-.38-.1-.27,.03-.38,.1-.18,.17-.24,.29c-.05,.12-.08,.27-.08,.43v.02Z"/><path class="d" d="M97.31,97.38c-.25,0-.47-.03-.65-.09-.18-.06-.32-.13-.44-.22-.11-.09-.2-.18-.25-.26-.05-.09-.08-.16-.09-.22,0-.05,0-.08,.04-.11,.03-.03,.07-.04,.1-.04h.5s.03,0,.04,0c.01,0,.03,.02,.05,.04,.05,.05,.11,.09,.17,.14,.06,.05,.13,.09,.22,.13s.19,.05,.31,.05c.16,0,.3-.03,.41-.1s.17-.16,.17-.28c0-.09-.02-.16-.07-.21-.05-.05-.14-.1-.27-.15s-.31-.09-.55-.14c-.24-.05-.43-.12-.58-.21-.16-.08-.27-.19-.35-.31s-.11-.27-.11-.44,.05-.32,.15-.47c.1-.15,.25-.27,.44-.37,.19-.1,.44-.14,.73-.14,.23,0,.42,.03,.59,.08,.17,.06,.31,.13,.42,.21,.11,.08,.2,.17,.25,.25s.09,.16,.09,.22c0,.05,0,.08-.04,.11-.03,.03-.06,.04-.1,.04h-.47s-.04,0-.06-.01-.03-.02-.05-.03c-.05-.04-.1-.09-.15-.14s-.12-.09-.2-.12c-.08-.03-.18-.05-.31-.05-.16,0-.28,.03-.36,.1s-.13,.16-.13,.26c0,.07,.02,.13,.06,.19,.04,.05,.12,.1,.24,.15s.31,.09,.55,.14c.28,.05,.5,.12,.67,.22,.17,.1,.28,.21,.35,.34s.1,.27,.1,.42c0,.19-.06,.36-.17,.51-.11,.15-.28,.27-.49,.36s-.48,.13-.8,.13Z"/><path class="d" d="M100.89,97.32c-.25,0-.46-.04-.63-.13-.17-.09-.3-.22-.38-.39-.08-.17-.13-.39-.13-.65v-1.43h-.5s-.08-.01-.11-.04c-.03-.03-.04-.07-.04-.11v-.36s.01-.08,.04-.11,.07-.04,.11-.04h.5v-1.04s.01-.08,.04-.11c.03-.03,.06-.04,.11-.04h.51s.08,.01,.11,.04c.03,.03,.04,.07,.04,.11v1.04h.79s.08,.01,.11,.04,.04,.07,.04,.11v.36s-.01,.08-.04,.11c-.03,.03-.07,.04-.11,.04h-.79v1.37c0,.17,.03,.31,.09,.4,.06,.1,.17,.14,.32,.14h.43s.08,.01,.11,.04c.03,.03,.04,.07,.04,.11v.39s-.01,.08-.04,.11c-.03,.03-.07,.04-.11,.04h-.51Z"/><path class="d" d="M102.26,97.32s-.08-.01-.11-.04c-.03-.03-.04-.06-.04-.11v-2.96s.01-.08,.04-.11,.07-.04,.11-.04h.51s.08,.01,.11,.04c.03,.03,.05,.07,.05,.11v.26c.1-.13,.22-.24,.37-.31,.15-.07,.33-.11,.53-.11h.26s.08,.01,.11,.04,.04,.07,.04,.11v.45s-.01,.08-.04,.11-.06,.04-.11,.04h-.49c-.2,0-.36,.06-.47,.17-.11,.11-.17,.27-.17,.47v1.73s-.02,.08-.04,.11c-.03,.03-.07,.04-.11,.04h-.55Z"/><path class="d" d="M106.1,97.38c-.47,0-.83-.13-1.11-.4-.27-.27-.42-.65-.44-1.15,0-.04,0-.1,0-.16s0-.12,0-.15c.02-.32,.09-.59,.22-.82s.3-.4,.53-.53c.23-.12,.49-.19,.8-.19,.34,0,.62,.07,.86,.21,.23,.14,.4,.34,.52,.59,.12,.25,.18,.54,.18,.87v.13s-.01,.08-.04,.11c-.03,.03-.07,.04-.11,.04h-2.09v.05c0,.15,.03,.28,.08,.41,.05,.12,.13,.22,.23,.3,.1,.08,.23,.11,.37,.11,.12,0,.22-.02,.3-.05,.08-.04,.14-.08,.2-.12,.05-.05,.09-.08,.11-.11,.04-.05,.07-.08,.09-.09,.02-.01,.06-.02,.1-.02h.54s.08,.01,.1,.04c.03,.03,.04,.06,.04,.09,0,.07-.04,.15-.1,.25-.07,.1-.16,.19-.28,.28-.12,.09-.27,.17-.46,.23s-.39,.09-.63,.09Zm-.69-1.98h1.39v-.02c0-.16-.03-.31-.08-.43-.05-.12-.13-.22-.24-.29s-.23-.1-.38-.1-.27,.03-.38,.1-.18,.17-.24,.29c-.05,.12-.08,.27-.08,.43v.02Z"/><path class="d" d="M108.48,98.51s-.08-.01-.11-.04c-.03-.03-.04-.07-.04-.11v-4.17s.01-.08,.04-.11,.06-.04,.11-.04h.5s.08,.01,.11,.04,.04,.07,.04,.11v.25c.1-.13,.23-.25,.4-.33,.16-.09,.37-.13,.61-.13,.22,0,.42,.04,.58,.11,.16,.07,.3,.17,.41,.31,.11,.13,.19,.29,.25,.47,.06,.18,.09,.38,.1,.6,0,.07,0,.14,0,.22s0,.15,0,.23c0,.21-.04,.4-.09,.58s-.14,.33-.25,.47c-.11,.13-.25,.24-.41,.31-.16,.08-.36,.11-.58,.11s-.42-.04-.58-.12-.29-.19-.39-.32v1.43s-.01,.08-.04,.11c-.03,.03-.06,.04-.11,.04h-.54Zm1.42-1.81c.18,0,.32-.04,.42-.12,.1-.08,.17-.18,.22-.31,.05-.13,.07-.26,.08-.42,0-.13,0-.25,0-.38,0-.15-.04-.29-.08-.42-.05-.13-.12-.23-.22-.31-.1-.08-.24-.12-.42-.12s-.31,.04-.42,.12c-.11,.08-.18,.18-.23,.31-.05,.12-.08,.25-.08,.38,0,.08,0,.16,0,.24s0,.17,0,.25c0,.13,.03,.25,.09,.36s.13,.21,.24,.29c.1,.08,.24,.11,.41,.11Z"/><path class="d" d="M113.63,97.38c-.33,0-.62-.06-.85-.18-.23-.12-.4-.28-.52-.5-.12-.21-.19-.46-.21-.75,0-.08,0-.17,0-.28s0-.2,0-.28c.02-.29,.09-.54,.21-.75,.12-.21,.3-.38,.53-.49,.23-.12,.51-.18,.83-.18s.61,.06,.83,.18,.4,.28,.53,.49c.12,.21,.19,.46,.21,.75,0,.08,0,.17,0,.28s0,.2,0,.28c-.02,.29-.08,.53-.2,.75-.12,.21-.29,.38-.52,.5s-.51,.18-.85,.18Zm0-.62c.22,0,.39-.07,.52-.21,.12-.14,.19-.35,.2-.62,0-.06,0-.14,0-.25s0-.18,0-.25c-.01-.27-.08-.48-.2-.62-.12-.14-.29-.21-.52-.21s-.39,.07-.52,.21c-.12,.14-.19,.35-.2,.62,0,.06,0,.14,0,.25s0,.18,0,.25c.01,.27,.08,.48,.2,.62,.12,.14,.29,.21,.52,.21Z"/></g></g></g></svg>