<?xml version="1.0" encoding="UTF-8"?><svg xmlns="http://www.w3.org/2000/svg" viewBox="0 0 135.68 82.55"><defs><style>.d{fill:#f15f24;}</style></defs><g id="a"/><g id="b"><g id="c"><g><path class="d" d="M121.76,37.42v44.42l1.46-1.81h-55.91c-.88,0-1.92,.15-2.8,0,.89,.16,.24,.95,.51-.26,.14-.65,0-1.49,0-2.16v-3.82c0-1.61-1.98,.05-1.98,1.1v6.95c0,.29,.16,.71,.52,.71h58.71c.85,0,1.46-1.04,1.46-1.81V36.33c0-1.61-1.98,.05-1.98,1.1h0Z"/><path class="d" d="M.75,78.22c5.79-.55,7.06-7.57,8.18-12.14,.56-2.31,1.46-7.87,5.05-6.17,2.49,1.18,3.48,5.16,4.25,7.52,.81,2.49,2.23,11.97,6.49,10.68,1.91-.57,3.17-2.94,4.06-4.53,1.67-3,2.91-6.25,4.76-9.15,2.37-3.72,5.35-5.31,9.55-3.05,2.92,1.57,4.5,4.9,7.41,6.36,5.43,2.73,10.06-6.24,12.21-9.76,1.8-2.95,2.31-4.26,2.31-7.55V.71l-1.46,1.81h56.23c.43,0,2.88,.23,2.22-.31-.54-.44-.21,.52-.25,1.1-.06,.77,0,1.58,0,2.36v3.85c0,1.61,1.98-.05,1.98-1.1V.71c0-.29-.16-.71-.52-.71h-58.71c-.85,0-1.46,1.04-1.46,1.81V52.55c0,.49-.08,1.05,0,1.53,.15,.89-.03,.18,.21-.3-2.16,4.21-7.46,15.42-13.01,10.34-3.87-3.55-8.8-9.07-14.34-4.97-5.05,3.75-5.93,10.52-9.57,15.28-2.02,2.64-3.27,.11-4.1-2.05-1.07-2.79-1.73-5.71-2.77-8.52-1.49-4.02-5.51-9.99-9.67-4.69-3.35,4.27-2.01,15.96-8.59,16.58-1.02,.1-1.89,2.61-.47,2.47H.75Z"/><path class="d" d="M70.16,12.41h35.53c1.07,0,2.12-2.51,.95-2.51h-35.53c-1.07,0-2.12,2.51-.95,2.51h0Z"/><path class="d" d="M70.16,18.5h35.53c1.07,0,2.12-2.51,.95-2.51h-35.53c-1.07,0-2.12,2.51-.95,2.51h0Z"/><path class="d" d="M70.16,25.27h35.53c1.07,0,2.12-2.51,.95-2.51h-35.53c-1.07,0-2.12,2.51-.95,2.51h0Z"/><path class="d" d="M70.16,31.36h35.53c1.07,0,2.12-2.51,.95-2.51h-35.53c-1.07,0-2.12,2.51-.95,2.51h0Z"/><path class="d" d="M70.16,38.13h38.58c1.07,0,2.12-2.51,.95-2.51h-38.58c-1.07,0-2.12,2.51-.95,2.51h0Z"/><path class="d" d="M70.16,44.22h43.57c1.07,0,2.12-2.51,.95-2.51h-43.57c-1.07,0-2.12,2.51-.95,2.51h0Z"/><path class="d" d="M70.16,50.99h43.57c1.07,0,2.12-2.51,.95-2.51h-43.57c-1.07,0-2.12,2.51-.95,2.51h0Z"/><path class="d" d="M70.16,57.08h43.57c1.07,0,2.12-2.51,.95-2.51h-43.57c-1.07,0-2.12,2.51-.95,2.51h0Z"/><path class="d" d="M122.28,12.41c12.78,.34,16.16,19.86,1.79,20.65-5.6,.31-10.98-2.33-11.05-8.5-.05-4.04,2.43-10.58,7.23-10.79,1.07-.05,2.09-2.57,.95-2.51-8.9,.4-13.45,15.66-7.36,21.52,4.1,3.95,11.93,3.66,16.47,.65,4.08-2.7,5.94-7.76,5.23-12.51-.94-6.3-5.94-10.84-12.31-11.01-1.07-.03-2.13,2.48-.95,2.51h0Z"/><path class="d" d="M118.41,23.78l2.97,3.62c.42,.51,1.03,.01,1.36-.32,2.07-2.13,2.86-5.31,5.19-7.18,.92-.74,.86-3.04-.54-1.91-2.57,2.06-3.42,5.35-5.66,7.66l1.36-.32-2.97-3.62c-.79-.96-2.38,1.25-1.7,2.08h0Z"/></g></g></g></svg>