<?xml version="1.0" encoding="UTF-8"?><svg xmlns="http://www.w3.org/2000/svg" viewBox="0 0 145.62 102.82"><defs><style>.d{fill:#f15f24;}</style></defs><g id="a"/><g id="b"><g id="c"><g><g><path class="d" d="M131.04,40.2c-7.57,4.91-17.26,5.78-23.84-1.27-6.02-6.46-6.71-16.44-2.21-23.92,4.77-7.92,15.21-14.75,24.7-11.82,7.31,2.26,11.95,9.41,13.4,16.61,2.29,11.35-3.02,22.11-12.36,28.56-.84,.58-1.27,3.17,.04,2.27,8.95-6.18,15-15.82,14.84-26.9-.12-8.64-4.22-18.14-12.36-22.05-9.68-4.65-20.61,1.22-26.97,8.72-6.29,7.42-8.36,18.13-3.51,26.86,6.02,10.83,18.65,11.49,28.3,5.23,.86-.56,1.3-3.14-.04-2.27h0Z"/><g><path class="d" d="M118.96,17.44v2.05c0,.59,.51,.85,1.01,.58,.57-.31,.97-1.04,.97-1.68v-2.05c0-.59-.51-.85-1.01-.58-.57,.31-.97,1.04-.97,1.68h0Z"/><path class="d" d="M127.08,17.44v2.05c0,.59,.51,.85,1.01,.58,.57-.31,.97-1.04,.97-1.68v-2.05c0-.59-.51-.85-1.01-.58-.57,.31-.97,1.04-.97,1.68h0Z"/><path class="d" d="M113.13,25.09c2.25,11.73,20.1,9.88,22.19-1.06,.34-1.77-1.71-.66-1.93,.49-1.77,9.24-16.72,7.49-18.36-1.06-.25-1.32-2.1,.64-1.91,1.64h0Z"/></g></g><g><path class="d" d="M120.52,96.73c19.53-4.89,15.77-33.35-.87-39.62-8.11-3.05-18.41-.42-22.7,7.44-4.12,7.53-2.19,17.09,1.82,24.24,5.46,9.73,15.72,15.92,26.97,13.51,1-.21,1.84-2.76,.47-2.47-16.39,3.51-31.74-13.6-29.34-29.66,1.29-8.63,9.5-12.73,17.71-11.6,7.87,1.09,13.88,7.44,16.22,14.8,2.84,8.92-.03,18.44-9.8,20.89-.99,.25-1.82,2.81-.47,2.47h0Z"/><g><path class="d" d="M116.69,71.49v2.88c0,.59,.51,.85,1.01,.58,.57-.31,.97-1.04,.97-1.68v-2.88c0-.59-.51-.85-1.01-.58-.57,.31-.97,1.04-.97,1.68h0Z"/><path class="d" d="M108.58,71.49v2.88c0,.59,.51,.85,1.01,.58,.57-.31,.97-1.04,.97-1.68v-2.88c0-.59-.51-.85-1.01-.58-.57,.31-.97,1.04-.97,1.68h0Z"/><path class="d" d="M121.76,79.53c-1.25,4.63-13.71,4.58-15.23-1.06-.36-1.33-2.18,.64-1.91,1.64,2.16,8.01,17.05,6.39,19.06-1.06,.47-1.73-1.63-.62-1.93,.49h0Z"/></g></g><g><path class="d" d="M.75,86.9c3.61-.34,5.55-3.42,6.67-6.57,1.08-3.04,1.15-9.81,4.03-11.66,5.71-3.68,8.04,15.34,10.9,17.64,4.73,3.79,9.8-11.12,11.38-13.5,6.37-9.64,18.2,1.84,25.84,4.11,8.55,2.54,19.35-1.31,25.8-6.94,5.62-4.91,9.6-12.07,10-19.6,1.02-18.9-22.99-25.37-36.86-16.68-6.8,4.27-11.36,12.19-10.79,20.31,.67,9.61,8.36,15.47,17.3,17.19,1.03,.2,2.17-2.28,.95-2.51-7.88-1.52-15.1-6.46-16.18-14.92-.97-7.57,3.35-14.87,9.92-18.48,14.19-7.79,37.13,.52,33.29,19.12-1.59,7.73-7.2,14.26-14.22,17.67-4.19,2.04-8.89,2.93-13.54,2.79-1.72-.05-3.71-.07-5.31-.7s-3.17-1.77-4.73-2.56c-4.38-2.21-9.59-4.85-14.57-5.2-3.17-.23-5.5,1.72-7.33,4.13-2.38,3.14-3.79,6.87-5.63,10.32-.51,.95-1.52,3.44-2.8,3.56-1.38,.12-2.12-2.13-2.51-3.1-1.53-3.84-3.41-17.67-10.16-15.32-7.46,2.59-2.73,17.64-10.97,18.42-1.02,.1-1.89,2.61-.47,2.47H.75Z"/><g><path class="d" d="M67.46,47.91v3.02c0,.59,.51,.85,1.01,.58,.57-.31,.97-1.04,.97-1.68v-3.02c0-.59-.51-.85-1.01-.58-.57,.31-.97,1.04-.97,1.68h0Z"/><path class="d" d="M75.58,47.91v3.02c0,.59,.51,.85,1.01,.58,.57-.31,.97-1.04,.97-1.68v-3.02c0-.59-.51-.85-1.01-.58-.57,.31-.97,1.04-.97,1.68h0Z"/><path class="d" d="M75.58,56.84c-4,5.15-11.98,.74-14.2-4-.48-1.01-2.16,1.1-1.7,2.08,2.91,6.21,12.23,9.4,16.92,3.35,.86-1.1,.12-2.88-1.01-1.43h0Z"/></g></g></g></g></g></svg>