<?xml version="1.0" encoding="UTF-8"?><svg xmlns="http://www.w3.org/2000/svg" viewBox="0 0 126.25 94.09"><defs><style>.d{fill:#f15f24;}</style></defs><g id="a"/><g id="b"><g id="c"><g><path class="d" d="M.36,78.87c3.68,1.45,6.7-.79,9.21-3.36,2.07-2.13,6.29-9.37,9.96-7.79,3.88,1.68,1.39,9.74,.88,12.71-.37,2.18-1.82,7.11,.36,8.83,2.34,1.85,6.28-1.58,8.04-2.88,3.47-2.55,8.86-7.97,13.62-6.25,5.94,2.15,3.98,9.33,7.84,12.8,3.07,2.75,8.72-.12,11.81-1.44,4.17-1.79,9.32-4.19,11.92-8.11,2.28-3.44,2.23-8.34,2.42-12.31,.11-2.38,.15-4.77,.27-7.15,.06-1.14,.1-2.3,.26-3.44,.19-1.34-.1-1.24,.58-.43,.44,.52,2.04,2.03,1.78,2.85-.4,1.28-1.82,.75-2.63,.48-1.38-.47-2.69-1.37-3.88-2.19-8.23-5.68-15.34-15.07-16.52-25.2-1.68-14.52,11.1-30.07,25.13-32.98,9.2-1.91,19.2,1.91,26.24,7.87,4.33,3.67,5.87,8.79,6.85,14.15,1.25,6.8,4.66,11.74,10.06,16.04l.42-2.15c-1.94,1.5-4.24,2.87-5.96,4.62-.93,.95-1.45,2.08-1.36,3.43,.05,.78,2.03,4.94,1.2,4.89-.93-.05-2.07,1.81-1.16,2.45,1.81,1.28,2.73,1.74,.52,2.81-.69,.33-1.24,1.47-.83,2.17,1.64,2.84,.72,6.08-2.6,7.11-2.73,.86-6.14,.26-8.89-.2-4.42-.73-8.82-1.89-13.05-3.35-1.1-.38-2.37,2.04-1.37,2.38,6.37,2.19,13.63,4.42,20.42,3.99,6.19-.39,10.54-6.24,7.2-12.01l-.83,2.17c4.03-1.95,4.5-4.86,.82-7.46l-1.16,2.45c4.01,.21,3.63-3.71,2.56-6.31-1.03-2.49-.67-2.83,1.32-4.36l3.73-2.87c.55-.42,1.09-1.61,.42-2.15-3.5-2.78-6.59-6.02-8.22-10.25-.95-2.48-1.27-5.1-1.76-7.69-.88-4.68-3.25-9.18-6.94-12.25C102.54,3.1,93.75-.57,85.24,.07c-13.49,1.03-25.85,13.23-29.79,25.75-3.61,11.48,1.02,23.12,8.94,31.6,2.2,2.35,14.48,14.27,16.83,6.23,.62-2.12-1.46-7.51-4.34-6.43-2.68,1.01-2.16,7.25-2.23,9.29-.18,4.88,.81,12.71-2.62,16.63-2.1,2.4-5.44,3.99-8.29,5.33-2.59,1.22-5.74,2.73-8.64,2.99-3.78,.34-4.37-2.51-5.3-5.47-.83-2.69-1.95-5.26-4.17-7.09-4.09-3.39-9.03-.44-12.7,2.14-2.42,1.69-4.66,3.73-7.23,5.2-2.28,1.3-3.96,1.4-3.96-1.61,0-5.25,2.74-10.63,1.52-15.91-.99-4.28-4.89-4.4-7.91-1.96-3.69,2.98-7.89,11.99-13.6,9.74-1.07-.42-2.37,1.99-1.37,2.38H.36Z"/><path class="d" d="M99.89,80.98c-1.13-4.14-2.43-11.04-.55-14.58,.78-1.47-.63-2.32-1.43-.82-2.68,5.03-1.33,11.91,.07,17.05,.36,1.33,2.18-.64,1.91-1.64h0Z"/><path class="d" d="M109.21,9.57c-4.08,1.92-7.91,4.96-10.73,8.46-2.08,2.59-3.63,5.58-4.31,8.84-1.02,4.86-2.65,8.86-6.19,12.43-.79,.79-1.82,1.42-2.56,2.25-.3,.33-.61,.18,.04,.3,.8,.16,.06-.32-.07-.65-.75-1.89-3.77-3.91-5.68-4.24-5.98-1.03-8.7,6.54-7.57,11.18,1.25,5.14,7.02,12.64,12.93,9.07,.89-.54,1.34-3.1-.04-2.27-5.29,3.2-10.58-5.04-11.16-9.39-.56-4.13,2.93-7.62,6.83-5.22,1.42,.87,2.61,2.27,3.49,3.68,.18,.29,.62,.26,.87,.1,5.32-3.58,9.4-9.46,10.71-15.73,1.59-7.61,6.43-13.23,13.48-16.54,.96-.45,1.44-2.96-.04-2.27h0Z"/><path class="d" d="M103.22,35.09c-.39,.57,.03-.03,.14-.11,.39-.33,.75-.62,1.23-.83,1.85-.82,3.85-.18,5.55,.7,1.01,.52,2.36-1.87,1.37-2.38-3.42-1.78-7.42-1.56-9.71,1.81-.95,1.39,.49,2.19,1.43,.82h0Z"/><path class="d" d="M67.87,8.52c-2.93-2.42-6.68-4.31-10.43-4.97-6.36-1.11-11.46,2.49-14.39,7.96s-3.26,11.75,1.31,16.55c2.69,2.82,6.37,4.97,10.09,6.16,1.1,.35,2.37-2.06,1.37-2.38-8.53-2.73-16.33-10.14-11.35-19.5,4.9-9.19,15.19-7.09,22.02-1.44,.82,.68,2.27-1.64,1.37-2.38h0Z"/></g></g></g></svg>