<?xml version="1.0" encoding="UTF-8"?><svg xmlns="http://www.w3.org/2000/svg" viewBox="0 0 128.18 56.77"><defs><style>.d{fill:#f15f24;}</style></defs><g id="a"/><g id="b"><g id="c"><g><g><path class="d" d="M63.82,8.79h31.39c3.96,0,8.28,.5,12.21,0-.81,.1,.02-1.17-.41-.02-.27,.71,0,2.03,0,2.79v26.31l1.46-1.81h-42.2c-.43,0-.88-.04-1.3,0,.1-.01,0,1.1,.32,.13,.57-1.73,0-4.56,0-6.37V13.76c0-1.61-1.98,.05-1.98,1.1v23.02c0,.29,.16,.71,.52,.71h43.7c.85,0,1.46-1.04,1.46-1.81V6.98c0-.29-.16-.71-.52-.71h-43.7c-1.07,0-2.12,2.51-.95,2.51h0Z"/><path class="d" d="M115.29,17l12.17-8.93-1.26-.41v30.17l1.84-1.59-13-13.46c-.87-.91-2.43,1.32-1.7,2.08l13,13.46c.84,.87,1.84-.88,1.84-1.59V6.56c0-.85-.75-.78-1.26-.41l-12.17,8.93c-.96,.71-.91,2.98,.54,1.91h0Z"/></g><path class="d" d="M.75,56.77c4.91-.46,6.57-5.73,7.61-9.8,.6-2.33,.81-5.8,2.38-7.71,1.94-2.36,4.21-.41,5.39,1.59,2.61,4.42,2.51,10.29,5.49,14.46,2.29,3.22,5.05,.29,6.55-2.12,2.51-4.05,4.65-13.29,10.04-14.35,3.26-.64,6.36,1.86,8.49,3.99,1.53,1.54,3.12,3.8,5.48,3.98,2.9,.22,6.56-2.43,6.89-5.33,.41-3.57,0-7.44,0-11.02V.71l-1.46,1.81h53.45c.53,0,1.25,.13,1.76,0,.85-.22,.06,.11,0-.5,.25,2.44,0,5.03,0,7.49,0,1.61,1.98-.05,1.98-1.1V.71c0-.29-.16-.71-.52-.71H58.56c-.85,0-1.46,1.04-1.46,1.81V39.8c0,.81,.23,2.1,0,2.89-.01,.05,.01,.11,0,.15,.54-1.65-1.56,.73-2.15,.97-1.55,.64-2.62,.49-3.97-.51-3.86-2.86-7.07-8.53-12.83-6.8-4.41,1.32-6.78,6.74-8.62,10.47-1,2.04-1.89,4.73-3.49,6.4-2.02,2.12-3.09-.63-3.79-2.46-1.65-4.32-2.22-9.87-5.31-13.49-2.97-3.47-6.66-1.19-8.27,2.26-1.95,4.19-1.58,14.05-7.45,14.61-1.02,.1-1.89,2.61-.47,2.47H.75Z"/></g></g></g></svg>