<?xml version="1.0" encoding="UTF-8"?><svg xmlns="http://www.w3.org/2000/svg" viewBox="0 0 143.52 54.96"><defs><style>.d{fill:#f15f24;}</style></defs><g id="a"/><g id="b"><g id="c"><g><path class="d" d="M101.4,32.25c8.54-8.54,17.35-16.89,25.66-25.66,2.72-2.88,5.89-5.39,10.12-3.56,6.46,2.8,4.14,8.41,.22,12.14-3.97,3.77-8.01,7.48-12.01,11.22l-15.1,14.12,1.12-.08-8.51-8.32c-.54-.53-1.29,.09-1.57,.63-1.45,2.86-2.88,5.73-4.28,8.61-.63,1.3-3.5,5.4-2.58,6.94,.17,.29,.63,.27,.87,.1,3.02-2.11,7.74-2.72,11.27-3.67,.99-.26,1.81-2.83,.47-2.47-2.4,.64-4.8,1.31-7.17,2.06-.99,.31-2.96,.62-3.74,1.32-.19,.17-.81,.23-.88,.49,.54,1.07,.89,1.3,1.04,.68,.06-.15,.12-.3,.19-.45,.69-.67,1.1-2.39,1.52-3.28,.69-1.44,1.4-2.87,2.1-4.29,.86-1.74,1.73-3.48,2.61-5.22l-1.57,.63,8.51,8.32c.34,.33,.79,.23,1.12-.08,9.41-8.8,19.37-17.24,28.31-26.5,2.53-2.62,5.25-6.61,4.1-10.45-1.51-5.06-8-6.73-12.32-4.5-2.36,1.22-3.83,3.1-5.16,4.47-2.47,2.53-5,5-7.5,7.5l-17.4,17.4c-.81,.81-.73,3.18,.54,1.91h0Z"/><path class="d" d="M.1,31.81c2.2,4.04,4.88,9.64,8.83,12.23,5.16,3.37,8.47-3.93,12.3-6.01,11.85-6.43,13.51,20.99,20.56,16.41,3.44-2.23,4.08-8.84,5.32-12.34,.72-2.04,1.96-6.33,4.89-5.74,2.51,.51,3.21,4.14,3.75,6.18,1.03,3.98,1.7,10.89,6.52,12.2,1.37,.37,2.53-.05,3.88-.34,2.76-.6,5.52-1.19,8.29-1.75,7.24-1.48,14.94-3.51,22.38-3.18,9.67,.44,21.39,3.51,29.3-3.88,.85-.79,.77-3.14-.54-1.91-7.96,7.43-20.21,3.1-29.82,3.23-5.87,.08-11.81,1.48-17.55,2.61-3.05,.6-6.09,1.23-9.13,1.88-1.46,.31-3.25,1.05-4.74,1.04-5.3-.04-5.89-8.77-6.95-12.48-.95-3.32-3.32-8.06-7.47-5.43-3.72,2.36-4.8,8.13-6.01,11.99-.36,1.16-1.08,5.32-2.4,5.82-1.95,.75-3.69-3.39-4.35-4.65-2.17-4.2-4.15-10.7-8.89-12.78-2.68-1.18-5.79-.07-8.09,1.47-2.26,1.51-3.94,4.67-6.41,5.75-4.97,2.17-10.14-9.03-11.97-12.39-.55-1.01-2.22,1.13-1.7,2.08H.1Z"/><path class="d" d="M125.46,7.04c1.01,1.98,2.7,3.27,4.45,4.57,2.39,1.77,4.66,3.66,6.79,5.73,.91,.88,2.45-1.35,1.7-2.08-1.87-1.81-3.83-3.53-5.9-5.12-2.01-1.54-4.16-2.86-5.34-5.18-.52-1.01-2.19,1.12-1.7,2.08h0Z"/></g></g></g></svg>