<?xml version="1.0" encoding="UTF-8"?><svg xmlns="http://www.w3.org/2000/svg" viewBox="0 0 136.83 87.23"><defs><style>.d{fill:#f15f24;}</style></defs><g id="a"/><g id="b"><g id="c"><g><path class="d" d="M68.27,45.59l5.55-9.72,3.84-6.72c.32-.57,.86-1.21,1.05-1.84,.38-1.2-.55,.3-.08-.03,8.47-5.91,14.36-16.26,14.1-26.62-.02-.85-.73-.78-1.26-.41-8.15,5.84-14.3,15.53-14.7,25.63l1.94-1.37c-2.03-6.59-5.36-17.29-12.18-20.34-.91-.41-1.97,1.23-1.64,2.01,1.44,3.39,2.67,6.89,3.75,10.42,1.7,5.55,4.04,12.72,2.19,18.48-.56,1.73,1.31,1.52,1.74,.16,1.84-5.72,.23-12.24-1.32-17.85-1.21-4.36-2.69-8.68-4.46-12.85l-1.64,2.01c4.26,1.91,6.68,7.27,8.48,11.29,1.21,2.7,2.29,5.48,3.16,8.31,.44,1.44,1.92-.7,1.94-1.37,.36-9,6.03-17.45,13.26-22.62l-1.26-.41c.19,7.26-2.81,13.76-7.63,19.06-1.74,1.91-4.51,3.69-5.62,5.31-4.01,5.83-7.13,12.48-10.65,18.63-.83,1.45,.59,2.28,1.43,.82h0Z"/><path class="d" d="M74.3,34.21c3.75-1.36,7.53-2.66,11.32-3.91,4.82-1.59,10.32-3.97,15.46-4.13,.94-.03,1.83-1.45,1.32-2.29-.83-1.38-2.88-1.94-4.33-2.21-6.44-1.23-13.62,1.33-19.55,3.48-.95,.34-1.73,2.93-.47,2.47,5.72-2.07,12.41-4.48,18.61-3.51,1.27,.2,3.28,.61,4.02,1.85l1.32-2.29c-5.1,.16-10.4,2.37-15.19,3.93-4.05,1.32-8.07,2.7-12.08,4.15-.95,.34-1.73,2.93-.47,2.47h0Z"/><path class="d" d="M129.09,31.74c-17.19,5.34-34.18,12.42-48.87,22.98-4.88,3.51-9.32,7.35-13.05,12.05-2.03,2.57-4.12,5.1-6.36,7.5-1.92,2.06-4.85,5.8-7.96,3.8-2.55-1.64-3.72-5.17-6.15-7.08-2.2-1.74-5.01-2.75-7.72-1.69-5.65,2.21-8.17,9.15-11.8,13.48-2.23,2.66-3.62,1.91-4.43-1.19-.77-2.91-1.01-5.95-1.61-8.89-.83-4.07-3.89-11.38-8.88-6.55-3.86,3.73-4.21,15.59-10.79,15.29-1.07-.05-2.14,2.46-.95,2.51,5.56,.25,7.78-5.85,9.47-10.12,.83-2.11,2-6.92,4.98-6.7,2.82,.21,3.63,4.37,4.11,6.53,.64,2.86,.51,12.69,4.38,13.5,4.14,.87,8.23-8.11,10.04-10.55,2.15-2.9,4.93-6.27,8.93-4.89,3.73,1.29,5.23,4.68,7.66,7.41,4.14,4.66,8.61-.1,11.72-3.44,4.75-5.11,8.44-10.65,13.82-15.13,15.22-12.65,34.26-20.55,52.97-26.36,.97-.3,1.77-2.88,.47-2.47h0Z"/><path class="d" d="M71.1,50.25c2.44,2.67,3.64,6.44,2.87,9.98-.38,1.75,1.68,.65,1.93-.49,.88-4.04-.28-8.49-3.09-11.57-.84-.92-2.41,1.3-1.7,2.08h0Z"/><path class="d" d="M77.85,46c1.2,3.44,1.31,7.4,.08,10.83-.61,1.72,1.27,1.5,1.74,.16,1.43-4.01,1.5-8.59,.08-12.63-.46-1.33-2.25,.66-1.91,1.64h0Z"/><path class="d" d="M71.92,62.92c3.43,4.28,10.29,4.35,15.18,3.76,1.02-.12,1.88-2.64,.47-2.47-4.4,.52-10.86,.48-13.95-3.37-.77-.96-2.37,1.24-1.7,2.08h0Z"/><path class="d" d="M80.74,70.86c.29,.27-.15-.17-.23-.26-.29-.35-.55-.71-.78-1.1-.76-1.29-1.09-2.8-.96-4.29,.17-1.79-1.82-.7-1.93,.49-.25,2.74,.43,5.63,2.52,7.54,.76,.7,2.23-1.59,1.37-2.38h0Z"/><path class="d" d="M86.07,60.7c-.72-.46-1.77-.48-2.58-.45-2.9,.08-5.7,1.24-8.29,2.43-.96,.44-1.45,2.95,.04,2.27,2.09-.96,7.02-3.42,9.46-1.86,.94,.6,2.34-1.77,1.37-2.38h0Z"/><path class="d" d="M86.25,52.44c1.77-5.26,4.44-12.97,1.93-18.31-.48-1.01-2.16,1.1-1.7,2.08,2.11,4.48-.48,11.65-1.97,16.07-.58,1.73,1.29,1.51,1.74,.16h0Z"/><path class="d" d="M92.23,35.41c-.81,3.29-2.62,6.58-5.17,8.81-.88,.77-.81,3.1,.54,1.91,3.27-2.87,5.51-7,6.55-11.21,.43-1.74-1.65-.63-1.93,.49h0Z"/><path class="d" d="M84.38,53.95c2.09,.39,4.17,.86,6.23,1.4,2.81,.73,6.85,1.47,8.98,3.65,.88,.9,2.43-1.33,1.7-2.08-2.12-2.18-5.6-2.95-8.43-3.74-2.48-.69-5-1.27-7.53-1.74-1.04-.19-2.17,2.29-.95,2.51h0Z"/><path class="d" d="M97.82,50.22c-2.62,.83-5.25,1.63-7.92,2.29-.99,.25-1.82,2.81-.47,2.47,2.67-.66,5.3-1.46,7.92-2.29,.97-.31,1.77-2.88,.47-2.47h0Z"/><path class="d" d="M91.54,61.83c-.32-1.67-.71-3.34-1.17-4.98-.35-1.26-.89-4.3-2.36-4.84-1.09-.4-2.37,2.02-1.37,2.38,1.26,.46,1.73,3.73,2.03,4.85,.37,1.4,.69,2.81,.96,4.23,.26,1.32,2.1-.64,1.91-1.64h0Z"/><path class="d" d="M96.3,46.66c3.27,4.84,9.14,4.9,13.55,8.27,.86,.65,2.29-1.68,1.37-2.38-1.98-1.51-4.2-2.76-6.58-3.49-2.84-.87-4.93-1.96-6.63-4.48-.67-1-2.31,1.18-1.7,2.08h0Z"/><path class="d" d="M111.01,47.02l-10.4,.44c-1.07,.04-2.1,2.56-.95,2.51l10.4-.44c1.07-.04,2.1-2.56,.95-2.51h0Z"/><path class="d" d="M104.2,56.37c-.1-2.48-.23-5.8-1.8-7.84-.74-.97-2.35,1.23-1.7,2.08,1.35,1.77,1.43,4.71,1.52,6.86,.07,1.62,2.03-.05,1.98-1.1h0Z"/><path class="d" d="M95.6,33.6c.54,.65,1.01,1.46,1.23,2.28,.58,2.2-.91,3.85-1.67,5.77-.69,1.73-1.14,3.7-1.02,5.58,.1,1.62,2.05-.04,1.98-1.1-.21-3.39,2.25-5.69,2.8-8.8,.36-2.03-.29-4.21-1.61-5.8-.79-.95-2.38,1.26-1.7,2.08h0Z"/><path class="d" d="M103.58,32.01l-6.04,5.26c-.43,.37-.92,1.18-.68,1.78s.81,.5,1.22,.14l6.04-5.26c.43-.37,.92-1.18,.68-1.78s-.81-.5-1.22-.14h0Z"/><path class="d" d="M109.58,30.86c.75,2.42,1.5,5.88,.24,8.22-.79,1.46,.63,2.31,1.43,.82,1.74-3.23,1.29-7.29,.24-10.68-.41-1.33-2.21,.65-1.91,1.64h0Z"/><path class="d" d="M117.92,28.6c-2.26,2.23-4.52,4.46-6.78,6.68-.41,.4-.93,1.16-.68,1.78,.22,.56,.82,.53,1.22,.14,2.27-2.22,4.53-4.45,6.78-6.68,.41-.41,.93-1.16,.68-1.78-.22-.56-.83-.53-1.22-.14h0Z"/><path class="d" d="M108.2,41.37c2.28,1.86,5.09,3.85,6.69,6.35,.64,1,2.28-1.17,1.7-2.08-.98-1.53-2.53-2.76-3.88-3.96-1.03-.92-2.08-1.82-3.15-2.69-.82-.67-2.27,1.64-1.37,2.38h0Z"/><path class="d" d="M123.03,43.1c-3.32-2.89-8.06-4.56-11.89-1.74-.96,.71-.91,2.98,.54,1.91,3.11-2.29,7.45,0,9.98,2.21,.79,.69,2.25-1.62,1.37-2.38h0Z"/><path class="d" d="M131.66,39.14c-2.18-2.22-5.26-5.08-8.52-5.23-1.07-.05-2.14,2.46-.95,2.51,2.92,.13,5.81,2.8,7.76,4.79,.88,.9,2.44-1.33,1.7-2.08h0Z"/><path class="d" d="M125.87,27.19c-.99,2.66-2.58,5.74-5.06,7.28-.51,.32-1.06,1.04-.97,1.68,.07,.54,.45,.93,1.01,.58,3.28-2.03,5.44-5.83,6.76-9.38,.64-1.71-1.25-1.49-1.74-.16h0Z"/><path class="d" d="M116.02,23.75c3.85-2.79,8.02-6.27,10.21-10.56,.75-1.47-.66-2.33-1.43-.82-1.99,3.87-5.85,6.95-9.32,9.47-.97,.7-.92,2.97,.54,1.91h0Z"/><path class="d" d="M131.84,8.6c-.93,1.27-2.82,3.65-4.72,3.28-2.68-.52-.63-4.64,.21-5.86,.88-1.28,2.96-3.71,4.81-3.14,2.51,.76,.32,4.75-.51,6.02-.92,1.41,.52,2.22,1.43,.82,1.33-2.05,3.82-7.09,.93-9s-6.52,2.17-7.88,4.14c-1.4,2.03-3.84,6.95-1.19,9.02,2.73,2.14,6.51-1.92,7.93-3.86,.82-1.12,.07-2.91-1.01-1.43Z"/><path class="d" d="M120.73,8.48c.74,.6,4.33,3.94,3.05,5-1.35,1.11-4.81-1.16-5.82-1.94-.91-.7-1.74-1.54-2.38-2.5-.3-.44-1.28-1.89-.92-2.41,.45-.65,2.66,.02,3.13,.19,1.07,.39,2.03,1,2.95,1.66s2.31-1.71,1.37-2.38c-2.35-1.69-6.66-3.69-8.75-.53-2,3.04,.88,6.54,3.23,8.34,2.25,1.72,6.53,3.61,8.65,.68,2.23-3.08-.78-6.6-3.13-8.49-.83-.67-2.28,1.65-1.37,2.38Z"/><path class="d" d="M128.78,19.79c-.74-.6-4.33-3.94-3.05-5,1.35-1.11,4.81,1.16,5.82,1.94,.91,.7,1.74,1.54,2.38,2.5,.3,.44,1.28,1.89,.92,2.41-.45,.65-2.66-.02-3.13-.19-1.07-.39-2.03-1-2.95-1.66s-2.31,1.71-1.37,2.38c2.35,1.69,6.66,3.69,8.75,.53,2-3.04-.88-6.54-3.23-8.34-2.25-1.72-6.53-3.61-8.65-.68-2.23,3.08,.78,6.6,3.13,8.49,.83,.67,2.28-1.65,1.37-2.38Z"/></g></g></g></svg>