<?xml version="1.0" encoding="UTF-8"?><svg xmlns="http://www.w3.org/2000/svg" viewBox="0 0 153.05 68.01"><defs><style>.d{fill:#f15f24;}</style></defs><g id="a"/><g id="b"><g id="c"><g><path class="d" d="M101.82,34.64c-6.8,3.61-15.05,1.1-18.53-5.82-3.45-6.85-.46-15.55,6.82-18.33,6.75-2.58,14.29,1.06,17.03,7.61,1.62,3.87,.97,7.24-.26,11.07-.63,1.97,.38,4.34,.92,6.53,.08,.34-.08,.83-.52,.7-1.54-.44-3.09-.88-4.63-1.32-.7-.2-1.27-2.02-.33-1.75,1.54,.44,3.09,.88,4.63,1.32-.17,.23-.35,.47-.52,.7-.48-1.95-1.67-4.54-1.38-6.52,.14-.95,1.01-1.95,1.29-2.93,.3-1.04,.46-2.19,.46-3.26,0-2.05-.58-4.16-1.68-5.9-2.19-3.48-6.23-5.45-10.29-5.29-6.65,.25-12.15,6.17-11.54,12.88,.79,8.74,10.29,12.5,17.56,8.64,.71-.38,1.68,1.32,.97,1.69"/><path class="d" d="M119.26,44.74c5.88,3.13,13.01,.95,16.02-5.03,2.98-5.92,.39-13.44-5.9-15.85-5.83-2.23-12.35,.92-14.72,6.58-1.4,3.35-.83,6.26,.23,9.57,.55,1.7-.33,3.75-.79,5.64-.07,.29,.07,.71,.45,.61,1.33-.38,2.67-.76,4-1.14,.6-.17,1.1-1.75,.29-1.52-1.33,.38-2.67,.76-4,1.14,.15,.2,.3,.41,.45,.61,.41-1.69,1.44-3.93,1.19-5.63-.12-.82-.87-1.69-1.12-2.53-.26-.9-.4-1.89-.4-2.82,0-1.77,.5-3.6,1.45-5.1,1.89-3.01,5.38-4.71,8.9-4.58,5.75,.22,10.5,5.34,9.98,11.14-.68,7.56-8.9,10.81-15.18,7.47-.61-.33-1.45,1.14-.84,1.46"/><path class="d" d="M120.55,62.81h-17.65c-1.07,0-2.12,2.51-.95,2.51h17.65c1.07,0,2.12-2.51,.95-2.51h0Z"/><path class="d" d="M.75,67.97c5.79-.55,7.06-7.57,8.18-12.14,.55-2.25,1.31-7.51,4.76-6.29,2.7,.95,3.76,5.26,4.54,7.64,.8,2.45,2.14,11.49,6.16,10.79,1.98-.35,3.35-2.81,4.24-4.37,1.64-2.87,2.84-5.98,4.54-8.82,1.97-3.28,4.6-5.97,8.61-4.15,3.49,1.58,5.83,5.03,8.24,7.87,1.47,1.73,3.43,4.3,5.9,4.54,2.8,.27,5.2-2.6,6.69-4.58,2.31-3.06,2.8-4.65,2.8-8.21V.71l-1.46,1.81h83.21c1.02,0,2.59,.3,3.57,0,.23-.07,.52,.04,.76,0-.02,0-.3-1.11-.42-.39-.21,1.22,0,2.66,0,3.89V55.87l1.46-1.81H75.02c-1.07,0-2.12,2.51-.95,2.51h77.52c.85,0,1.46-1.04,1.46-1.81V.71c0-.29-.16-.71-.52-.71H64.89c-.85,0-1.46,1.04-1.46,1.81V52.23c0,.53-.12,1.24,0,1.76,.17,.74-.21,.68,.23-.26-1.24,2.59-4.34,7.81-7.73,6.52-2.76-1.05-4.81-4.63-6.66-6.77-3.38-3.91-8.56-8.39-13.59-4.42-4.95,3.91-5.6,10.71-9.48,15.31-2.11,2.5-3.3-.52-4.05-2.53-1.04-2.81-1.72-5.75-2.78-8.55-1.52-4-5.51-9.51-9.55-4.38-3.35,4.26-2.01,15.96-8.59,16.58-1.02,.1-1.89,2.61-.47,2.47H.75Z"/></g></g></g></svg>