<?xml version="1.0" encoding="UTF-8"?><svg xmlns="http://www.w3.org/2000/svg" viewBox="0 0 512.84 133.78"><defs><style>.d{fill:#f15f24;}</style></defs><g id="a"/><g id="b"><g id="c"><path class="d" d="M508.09,97.08c-29.93-25.34-56.46-56.37-92.2-73.88-35.6-17.45-78.45-22.55-113.23-.46-31.4,19.94-52.12,52.51-82.6,73.75-29.2,20.36-63.88,32.69-99.25,36.22-40.13,4-81.23-3.2-116.93-22.18C2.03,109.54,.04,107.57,0,105.3c-.03-1.75,1.22-3.35,3.13-2.33,65.31,34.73,148.6,28.87,209.56-12.57,31.41-21.35,52.45-54.68,84.48-75.05,33.41-21.25,74.31-18.52,109.65-3.51,41.18,17.49,70.62,51.76,104.08,80.09,3.64,3.08,1.84,9.08-2.81,5.14h0Z"/></g></g></svg>