<?xml version="1.0" encoding="UTF-8"?><svg xmlns="http://www.w3.org/2000/svg" xmlns:xlink="http://www.w3.org/1999/xlink" viewBox="0 0 511.33 254.96"><defs><style>.g{fill:url(#f);}.h{mask:url(#e);}.i{fill:#f15f24;}.j{clip-path:url(#d);}</style><clipPath id="d"><path class="i" d="M135.43,45.65c-18.53,35.59-29.98,74.46-45.91,111.21-7.66,17.69-16.13,35.36-27.46,51.04-9.33,12.91-20.9,24.78-35.85,30.99-7.04,2.92-14.52,4.28-22.13,4.32-4.08,.02-4.09,11.75,0,11.74,35.8-.17,59.23-30.59,74.89-59.26,19.64-35.97,31.79-75.43,47.48-113.15,6.69-16.08,13.85-32.47,23.96-46.74,7.15-10.09,16.61-20.3,29.19-23.12,11.84-2.66,23.3,1.24,30.51,10.71,8.05,10.57,11.09,25.42,13.27,38.59,6.17,37.3,5.46,75.48,13.11,112.57,3.34,16.17,8.1,32.9,18.24,46.24,8.9,11.72,21.99,18.34,36.69,18.79,17.91,.55,34.73-6.07,47.31-18.82,12.69-12.86,20.43-29.94,26.45-46.73,6.51-18.18,10.92-37.02,15.74-55.7,3.97-15.35,7.65-31.09,15.43-44.72,5.71-10,14.88-17.08,27.49-14.48,14.62,3.01,20.36,18.7,23.83,31.25,5.31,19.21,7.53,39.18,12.09,58.61,4.24,18.08,10.38,37.76,24.07,51.05,6.58,6.39,14.39,10.57,23.25,12.85,3.4,.88,4.26-10.64,0-11.73-18.16-4.67-29.39-19.52-35.82-36.32-7.11-18.56-9.77-38.53-13.5-57.95-3.19-16.62-6.33-36.02-17.47-49.47-8.15-9.83-22.86-14.05-34.32-7.39-11.75,6.83-17.46,21.46-21.73,33.61-5.93,16.9-9.73,34.5-14.29,51.8-8.38,31.84-19.26,73.74-52.81,87.92-14.42,6.09-33.07,6.84-46.88-1.27-12.22-7.17-19.17-20.44-23.42-33.15-5.72-17.14-8-34.98-9.89-53.07-2-19.12-3.18-38.32-5.28-57.42-1.85-16.87-4.19-34.18-10.41-50.08-4.4-11.25-11.64-22.73-23.75-26.6-3.76-1.2-7.37-1.75-10.85-1.75-23.96,0-41.11,26.19-51.24,45.65"/></clipPath><linearGradient id="f" x1="6055.62" y1="6714.75" x2="6056.41" y2="6714.75" gradientTransform="translate(-11060706.01 12264738.95) scale(1826.52 -1826.52)" gradientUnits="userSpaceOnUse"><stop offset="0" stop-color="#000"/><stop offset="0" stop-color="#000"/><stop offset=".09" stop-color="#fff"/><stop offset=".53" stop-color="#fdfdfd"/><stop offset=".57" stop-color="#f5f5f5"/><stop offset=".63" stop-color="#dfdfdf"/><stop offset=".71" stop-color="#bbb"/><stop offset=".8" stop-color="#8a8a8a"/><stop offset=".9" stop-color="#4a4a4a"/><stop offset="1" stop-color="#000"/></linearGradient><mask id="e" width="511.33" height="254.96" maskUnits="userSpaceOnUse"><rect class="g" x="0" y="0" width="511.33" height="254.96"/></mask></defs><g id="a"/><g id="b"><g id="c"><g><path class="i" d="M135.43,45.65c-18.53,35.59-29.98,74.46-45.91,111.21-7.66,17.69-16.13,35.36-27.46,51.04-9.33,12.91-20.9,24.78-35.85,30.99-7.04,2.92-14.52,4.28-22.13,4.32-4.08,.02-4.09,11.75,0,11.74,35.8-.17,59.23-30.59,74.89-59.26,19.64-35.97,31.79-75.43,47.48-113.15,6.69-16.08,13.85-32.47,23.96-46.74,7.15-10.09,16.61-20.3,29.19-23.12,11.84-2.66,23.3,1.24,30.51,10.71,8.05,10.57,11.09,25.42,13.27,38.59,6.17,37.3,5.46,75.48,13.11,112.57,3.34,16.17,8.1,32.9,18.24,46.24,8.9,11.72,21.99,18.34,36.69,18.79,17.91,.55,34.73-6.07,47.31-18.82,12.69-12.86,20.43-29.94,26.45-46.73,6.51-18.18,10.92-37.02,15.74-55.7,3.97-15.35,7.65-31.09,15.43-44.72,5.71-10,14.88-17.08,27.49-14.48,14.62,3.01,20.36,18.7,23.83,31.25,5.31,19.21,7.53,39.18,12.09,58.61,4.24,18.08,10.38,37.76,24.07,51.05,6.58,6.39,14.39,10.57,23.25,12.85,3.4,.88,4.26-10.64,0-11.73-18.16-4.67-29.39-19.52-35.82-36.32-7.11-18.56-9.77-38.53-13.5-57.95-3.19-16.62-6.33-36.02-17.47-49.47-8.15-9.83-22.86-14.05-34.32-7.39-11.75,6.83-17.46,21.46-21.73,33.61-5.93,16.9-9.73,34.5-14.29,51.8-8.38,31.84-19.26,73.74-52.81,87.92-14.42,6.09-33.07,6.84-46.88-1.27-12.22-7.17-19.17-20.44-23.42-33.15-5.72-17.14-8-34.98-9.89-53.07-2-19.12-3.18-38.32-5.28-57.42-1.85-16.87-4.19-34.18-10.41-50.08-4.4-11.25-11.64-22.73-23.75-26.6-3.76-1.2-7.37-1.75-10.85-1.75-23.96,0-41.11,26.19-51.24,45.65"/><g class="j"><g class="h"><rect class="i" x="0" y="0" width="511.33" height="254.96"/></g></g></g></g></g></svg>