<?xml version="1.0" encoding="UTF-8"?><svg xmlns="http://www.w3.org/2000/svg" viewBox="0 0 165.16 115.82"><defs><style>.d{fill:#f15f24;}</style></defs><g id="a"/><g id="b"><g id="c"><g><path class="d" d="M.72,102.1c6.25,.22,10.32,3.2,15.38,6.37,3.54,2.21,8.04,4.18,12.33,3.38,6.64-1.24,11.64-8.6,15.14-13.74,7.44-10.92,13.82-23.24,17.34-36.01,1.5-5.46,1.84-12.41,4.39-17.43,2.75-5.4,9.45-2.81,13.48-6.86,2.06-2.07,3.5-5.33,3.62-8.27,.11-2.45-1.5-3.8-2.66-5.98-4.02-7.58-4.42-19.18,6.59-20.04,2.46-.19,4.92,.31,7.14,1.43,5.99,3.03,7.06,10.09,4.79,15.98-1.07,2.78-5.07,6.21-4.92,9.25,.13,2.74,2.94,6.32,4.85,7.99,4.53,3.95,10.44,3.3,12.9,9.75,2.75,7.22,2.46,15.75,6.05,22.69,3.2,6.16,7.63,11.94,11.36,17.79,3.06,4.79,5.73,9.59,9.67,13.6,2.63,2.68,1.13,3.98-1.63,5.74-2.18,1.38-4.48,2.49-7.04,2.89-7.5,1.2-16.03-1.42-23.41-2.69-8.28-1.43-16.35-2.36-24.75-1.55-7.91,.76-15.69,2.52-23.57,3.5-4.31,.54-11.51,3.84-15.3,1.51-1.28-.79,.84-2.51-.94-.96,.07-.06-.05,0,.13-.1,.23-.14,.46-.24,.71-.33,.86-.32,1.79-.47,2.69-.61,6.21-1,12.79-.53,19.04-.26,18.03,.76,35.99,2.56,54.01,3.58,7.24,.41,14.54,.82,21.78,.45,4.96-.26,8.73-1.86,13.45-3.06,3.37-.86,6.79-1.57,10.21-2.23,1.37-.27,2.53-3.74,.64-3.37-4.74,.92-9.68,1.73-14.21,3.43-2.65,1-5,1.56-7.88,1.76-9.97,.67-20.1-.2-30.04-.85-12.62-.84-25.23-1.91-37.86-2.67-9.06-.54-18.5-1.41-27.54-.26-2.03,.26-4.47,.57-6,2.08-2.02,2-1.79,5.94,.81,7.35,1.97,1.07,4.98,.13,6.95-.36,3.86-.98,7.56-1.51,11.51-2.08,11.99-1.73,23.68-4.39,35.87-2.92,10.15,1.23,20.93,5.01,31.21,4.23,5.03-.38,11.1-3.1,14.26-7.2,3.45-4.48-.26-6.51-2.99-9.81-2.18-2.63-3.82-5.98-5.66-8.86-5.18-8.12-12.15-16.56-14.63-25.33-1.19-4.21-2.25-8.43-3.12-12.71-.68-3.37-1.52-6.81-3.96-9.37-2.78-2.91-6.67-2.95-9.79-5.17-2.53-1.81-4.36-4.82-5.15-7.81l-.61,2.09c7.97-9.21,10.79-27.9-5.16-29.91-5.62-.71-11.31,2.12-14.12,7.05-4.58,8.05-.06,15.2,3.32,22.47,.69,1.49,.3-.37,.37,.78,.09,1.53-.77,3.68-1.75,4.79-2.91,3.28-8.21,1.43-11.65,4.28-5.96,4.94-6.03,15.78-7.91,22.68-2.86,10.47-7.86,20.22-13.43,29.51-3.34,5.57-8.75,15.6-15.94,16.8-4.92,.83-9.51-2.19-13.39-4.77-4.32-2.87-8.39-4.85-13.67-5.03-1.46-.05-2.92,3.37-1.29,3.43H.72Z"/><path class="d" d="M81.08,48.42c9.33,.26,17.88,5.51,21.5,14.3,4.2,10.22-.18,22.56-11.74,24.91-4.68,.95-9.58,.03-13.26-3.11-4.73-4.05-6.9-11.57-2.85-16.78,3.68-4.73,11.53-5.22,15.31-.32,2.8,3.64,1.76,10.88-3.99,10.69-1.09-.04-2.31-.36-3.21-.98-2.25-1.29-1.93-2.46,.96-3.51,2.68-2.9,3.17-2.75,1.47,.45-1.37,.28-2.52,3.75-.64,3.37,4.76-.96,7.3-8.52,1.57-10.37s-9.8,5.33-7.88,10.04c2.44,5.98,10.05,5.21,13.7,.93,3.91-4.59,3.15-11.75-1.66-15.43-5.18-3.97-12.64-1.95-16.7,2.65-4.32,4.89-4.92,12.03-1.85,17.73,7.65,14.2,27.36,8.58,33.16-4.08,7.34-16.02-5.9-33.47-22.61-33.93-1.46-.04-2.91,3.39-1.29,3.43h0Z"/></g></g></g></svg>