<?xml version="1.0" encoding="UTF-8"?><svg xmlns="http://www.w3.org/2000/svg" viewBox="0 0 94.23 93.37"><defs><style>.d{fill:#f15f24;}</style></defs><g id="a"/><g id="b"><g id="c"><g><path class="d" d="M3.65,5.74c10.74-1.22,23.25-1.54,33.89,.82,2.54,.57,5.26,1.66,6.91,3.79,1.99,2.56,1.27,5.96,1.34,8.98,.1,4.92,.38,9.83,.55,14.75,.53,15.34,.65,30.65,.17,46l2.51-2.17c-2.15-3.32-4.19-5.94-8.15-6.99-5.5-1.47-11.57-1.65-17.24-1.7s-11.69,.41-17.54,.79c-2.96,.2-3.13,.47-3.17-2.36-.03-1.82,.05-3.64,.13-5.45,.33-7.61,.52-14.84,.1-22.45-.59-10.54,.25-20.94,1.21-31.43,.22-2.44-2.48-.96-2.63,.67C1.15,15.41,.49,21.83,.27,28.26c-.24,6.78,.44,13.45,.69,20.21,.3,8.1-1.97,16.68-.39,24.69,.05,.25,.36,.62,.66,.6,8.25-.74,16.54-1.36,24.83-1.02,3.9,.16,7.95,.41,11.78,1.26,4.53,1,6.39,2.92,8.87,6.75,.94,1.45,2.49-1.42,2.51-2.17,.56-18.12,.21-36.18-.47-54.29-.32-8.45,1.7-17.79-8.34-20.77-5.69-1.69-12.27-1.61-18.16-1.82s-11.98-.02-17.95,.66c-1.39,.16-2.57,3.59-.64,3.37h0Z"/><path class="d" d="M69.26,67.95c-8.26,.81-19.76,1.65-22.58,11.28-.7,2.38,1.83,2.1,2.38,.22,2.22-7.59,13.25-7.51,19.57-8.13,1.39-.14,2.58-3.56,.64-3.37h0Z"/><path class="d" d="M48.53,12.96c1.07-10.35,13.96-9.17,21.49-9.34s14.55,.14,21.73,1.56l-.67-1.38c-1.49,11.4,.04,23.33,.09,34.81,.04,10.7-1.43,22.08,.43,32.63l1.95-2.83c-4.84-.19-9.65-.96-14.52-1.09-1.46-.04-2.91,3.39-1.29,3.43,4.86,.13,9.68,.89,14.52,1.09,1.3,.05,2.14-1.73,1.95-2.83-1.81-10.26-.29-21.49-.33-31.9-.04-11.18-1.61-22.88-.16-33.98,.08-.58,0-1.25-.67-1.38C82.49-.35,71.26-.36,60.57,.67c-7.36,.71-13.86,5.07-14.67,12.96-.25,2.44,2.46,.96,2.63-.67h0Z"/><path class="d" d="M13.76,15.85h11.63c3.21,0,8.28-.87,11.3,.27,1.48,.56,3.24-2.73,1.88-3.25-3.02-1.14-6.9-.46-10.1-.46H15.05c-1.46,0-2.89,3.43-1.29,3.43h0Z"/><path class="d" d="M12.57,27.57c2.02-1.4,9.41,.61,11.73,.75,4.2,.26,8.39,.28,12.6,.16,1.46-.04,2.87-3.48,1.29-3.43-5.17,.15-10.34,.06-15.5-.37-2.96-.25-7.56-2.02-10.17-.2-1.14,.79-1.72,4.33,.05,3.09h0Z"/><path class="d" d="M13.02,39.86c7.57,.34,15.13,.42,22.7,.25,1.46-.03,2.88-3.47,1.29-3.43-7.57,.17-15.14,.08-22.7-.25-1.46-.06-2.92,3.36-1.29,3.43h0Z"/><path class="d" d="M13.61,60.02l21.96,.32c1.46,.02,2.9-3.41,1.29-3.43l-21.96-.32c-1.46-.02-2.9,3.41-1.29,3.43h0Z"/><path class="d" d="M13.46,50.43l19.02,.35c1.46,.03,2.91-3.4,1.29-3.43l-19.02-.35c-1.46-.03-2.91,3.4-1.29,3.43h0Z"/><path class="d" d="M55.91,16.99c8.75,.3,17.49,.4,26.24,.31,1.46-.02,2.89-3.45,1.29-3.43-8.75,.09-17.49,0-26.24-.31-1.46-.05-2.92,3.38-1.29,3.43h0Z"/><path class="d" d="M65.3,66.05c3.98,6.41,4.83,13.82,8.05,20.53,1.85,3.86,6.91,9.29,11.45,5.52,3.66-3.03,1.23-7.95-.05-11.48-2.62-7.21-5.42-14.11-9.44-20.66-.84-1.37-3.1,1.58-2.33,2.83,2.82,4.6,5.17,9.38,7.09,14.42,.8,2.11,1.56,4.24,2.33,6.36s3.18,8.18-2.69,5.32c-4.38-2.13-5.68-9.48-6.98-13.7s-2.77-8.2-5.12-11.98c-.85-1.37-3.1,1.58-2.33,2.83h0Z"/><path class="d" d="M49.41,41.44c2.36-7.2,7.87-11.62,15.67-10.99,7.18,.58,13.64,5.96,14.9,13.17,1.54,8.84-5.17,17.12-13.86,18.42-7.2,1.08-15.58-3.17-16.76-10.81-.28-1.79-2.81,.87-2.6,2.24,1.53,9.88,13.13,14.06,21.8,11.18s14.5-11.33,14.35-20.14c-.16-9.91-8.78-17.94-18.68-17.54-8.8,.36-14.57,6.26-17.18,14.26-.77,2.36,1.77,2.07,2.38,.22h0Z"/></g></g></g></svg>