<?xml version="1.0" encoding="UTF-8"?><svg xmlns="http://www.w3.org/2000/svg" viewBox="0 0 87.23 94.75"><defs><style>.d{fill:#f15f24;}</style></defs><g id="a"/><g id="b"><g id="c"><g><path class="d" d="M64.47,6.6c-12.2-8.29-32.2-9.38-44.14,.21-7.98,6.41-10.38,16.5-11.4,26.2-.15,1.45-.24,3.73-.4,4.24-.74,2.38-2.4,4.75-3.49,7C3.41,47.57-.67,53.22,.09,57.11c.96,4.91,7.14,2.91,10.35,3.81-1.06-.3-.44-1.07-.56,.74-.1,1.51,.09,3.11,.13,4.62,.05,1.96-.06,4.06,.32,5.99,1.47,7.45,9.78,7.33,15.75,8.28,6.47,1.02,7.89,7.2,6.48,12.81-.12,.46,.02,1.38,.67,1.38h32.07c1.16,0,2.67-2.09,1.81-3.13-5.53-6.65-3.97-16.89-.32-23.95,4.97-9.62,10.93-18.11,12.35-29.12,.31-2.43-2.42-.94-2.63,.67-.75,5.78-2.75,11.25-5.39,16.42-3.27,6.43-7.79,12.15-9.51,19.28-1.52,6.28-1.16,14.31,3.17,19.53l1.81-3.13H34.52l.67,1.38c1.69-6.7-.08-14.41-7.82-15.58-5.7-.86-13.75-.61-14.54-7.98-.38-3.51-.2-7.16-.3-10.69-.01-.37-.21-1.01-.71-.96-2.35,.19-8.75,.53-9.08-2.64-.12-1.09,1.39-3.45,1.84-4.43,1.05-2.3,2.16-4.58,3.28-6.84,1.04-2.1,2.59-4.34,3.22-6.62,.78-2.84,.58-6.16,1.02-9.09,1.24-8.21,4.25-16.1,11.86-20.36,11.51-6.45,27.95-4.9,38.63,2.35,1.24,.84,3.17-2.37,1.88-3.25h0Z"/><path class="d" d="M17.03,43.45c3.71,.74,8.26,1.08,11.68-.82,1.25-.69,1.88-4.16-.05-3.09-2.96,1.64-7.13,1.12-10.33,.48-1.41-.28-2.97,3.1-1.29,3.43h0Z"/><path class="d" d="M77.24,3.37c7.22,7.62,9.79,18.78,4.95,28.41-5.19,10.31-17.74,14.71-27.95,8.91-4.69-2.67-8.14-7.09-8.79-12.52-.83-6.86,3.37-13.86,10.49-14.98,5.93-.93,14.13,3.55,13.61,10.39-.37,4.87-4.81,8.69-9.62,7.15-1.2-.38-3.57-1.44-3.99-2.83l3.54-7.05c2.57,.29,3.65,1.98,3.23,5.08-1.1,1.53-.09,3.98,1.38,1.95,3.12-4.33,1.79-11.26-4.85-10.43-5.32,.66-8.32,7.45-6.26,12.1,2.78,6.27,11.11,6.27,15.47,1.82,4.65-4.75,5.14-12.63,.47-17.53-11.19-11.76-27.26,2.15-26.26,15.34,1.19,15.73,20.57,21.89,32.66,13.83,14.28-9.52,15.74-30.34,4.25-42.47-1.18-1.24-3.31,1.79-2.33,2.83h0Z"/></g></g></g></svg>