<?xml version="1.0" encoding="UTF-8"?><svg xmlns="http://www.w3.org/2000/svg" viewBox="0 0 83.79 97.3"><defs><style>.d{fill:#f15f24;}</style></defs><g id="a"/><g id="b"><g id="c"><g><path class="d" d="M76.84,33.81c4.06,9.69,4.35,19.98,.58,29.82-.89,2.33,1.69,2.02,2.38,.22,4.05-10.56,4.04-21.82-.35-32.28-.75-1.79-3.15,.94-2.6,2.24h0Z"/><path class="d" d="M45.76,11.08c10.08,1.35,18.83,6.08,25.47,13.79,1.11,1.29,3.27-1.74,2.33-2.83-6.9-8-16.02-12.98-26.51-14.38-1.44-.19-2.96,3.21-1.29,3.43h0Z"/><path class="d" d="M11.01,23.09c6.29-5.71,13.77-9.09,22.19-10.16,1.39-.18,2.57-3.62,.64-3.37-8.92,1.13-16.91,4.88-23.56,10.92-1.18,1.07-1.08,4.26,.74,2.61h0Z"/><path class="d" d="M4.71,52.34c-.8-3.05-1.3-4.94-.94-8.29,.39-3.62,1.35-7.1,2.7-10.48,.92-2.32-1.67-2-2.38-.22-1.64,4.13-2.72,8.38-3.08,12.82-.28,3.39,.28,5.31,1.1,8.42,.48,1.82,2.96-.88,2.6-2.24h0Z"/><path class="d" d="M35.25,86.04c-10.79-2.26-20.77-9.39-25.06-19.73-.74-1.79-3.14,.93-2.6,2.24,4.57,11.01,14.84,18.51,26.37,20.92,1.4,.29,2.97-3.08,1.29-3.43h0Z"/><path class="d" d="M71.04,73.89c-6.4,6.97-15.42,11.71-24.66,13.55-1.37,.27-2.52,3.75-.64,3.37,10.11-2.01,19.71-7.38,26.68-14.97,1.31-1.43,.3-3.78-1.38-1.95h0Z"/><path class="d" d="M3.39,21.92c3.85-4.37,12.53,.58,9.35,5.96-1.3,2.19-4.44,2.62-6.61,1.65-2.65-1.18-3.87-3.87-3.28-6.64,.51-2.4-2.3-.89-2.63,.67-.86,4.03,.81,8.27,4.98,9.56s8.03-1.15,9.81-4.73c1.68-3.38,1.15-7.71-1.91-10.12-3.62-2.85-8.26-1.52-11.09,1.7-1.28,1.45-.27,3.82,1.38,1.95h0Z"/><path class="d" d="M71.23,23.91c3.85-4.37,12.53,.58,9.35,5.96-1.3,2.19-4.44,2.62-6.61,1.65-2.65-1.18-3.87-3.87-3.28-6.64,.51-2.4-2.3-.89-2.63,.67-.86,4.03,.81,8.27,4.98,9.56s8.03-1.15,9.81-4.73c1.68-3.38,1.15-7.71-1.91-10.12-3.62-2.85-8.26-1.52-11.09,1.7-1.28,1.45-.27,3.82,1.38,1.95h0Z"/><path class="d" d="M3.39,59.82c3.85-4.37,12.53,.58,9.35,5.96-1.3,2.19-4.44,2.62-6.61,1.65-2.65-1.18-3.87-3.87-3.28-6.64,.51-2.4-2.3-.89-2.63,.67-.86,4.03,.81,8.27,4.98,9.56s8.03-1.15,9.81-4.73c1.68-3.38,1.15-7.71-1.91-10.12-3.62-2.85-8.26-1.52-11.09,1.7-1.28,1.45-.27,3.82,1.38,1.95h0Z"/><path class="d" d="M71.23,61.82c3.85-4.37,12.53,.58,9.35,5.96-1.3,2.19-4.44,2.62-6.61,1.65-2.65-1.18-3.87-3.87-3.28-6.64,.51-2.4-2.3-.89-2.63,.67-.86,4.03,.81,8.27,4.98,9.56s8.03-1.15,9.81-4.73c1.68-3.38,1.15-7.71-1.91-10.12-3.62-2.85-8.26-1.52-11.09,1.7-1.28,1.45-.27,3.82,1.38,1.95h0Z"/><path class="d" d="M38.31,5.21c3.85-4.37,12.53,.58,9.35,5.96-1.3,2.19-4.44,2.62-6.61,1.65-2.65-1.18-3.87-3.87-3.28-6.64,.51-2.4-2.3-.89-2.63,.67-.86,4.03,.81,8.27,4.98,9.56s8.03-1.15,9.81-4.73c1.68-3.38,1.15-7.71-1.91-10.12-3.62-2.85-8.26-1.52-11.09,1.7-1.28,1.45-.27,3.82,1.38,1.95h0Z"/><path class="d" d="M38.31,85.76c3.85-4.37,12.53,.58,9.35,5.96-1.3,2.19-4.44,2.62-6.61,1.65-2.65-1.18-3.87-3.87-3.28-6.64,.51-2.4-2.3-.89-2.63,.67-.86,4.03,.81,8.27,4.98,9.56s8.03-1.15,9.81-4.73c1.68-3.38,1.15-7.71-1.91-10.12-3.62-2.85-8.26-1.52-11.09,1.7-1.28,1.45-.27,3.82,1.38,1.95h0Z"/></g></g></g></svg>