<?xml version="1.0" encoding="UTF-8"?><svg xmlns="http://www.w3.org/2000/svg" viewBox="0 0 88.4 93.4"><defs><style>.d{fill:#f15f24;}</style></defs><g id="a"/><g id="b"><g id="c"><g><path class="d" d="M44.79,82.19c-6.46,0-13.37,.69-19.77-.42-12.79-2.21-22.54-13.68-22.54-26.69l-1.84,2.27c12.67,0,25.33,0,38,0h38.61c1.74,0,4.61,.57,6.27,0,1.15-.39,1.18,.84,.45-.89,1.34,3.16-1.84,10.08-3.37,12.73-4.41,7.68-12.36,12.1-21.03,12.94-1.28,.12-2.37,3.28-.58,3.1,15.38-1.49,27.47-14.62,27.47-30.16,0-.37-.2-.89-.65-.89H1.84c-1.07,0-1.84,1.31-1.84,2.27,0,12.29,7.97,23.51,19.66,27.4,7.47,2.49,16.19,1.48,23.95,1.48,1.34,0,2.66-3.16,1.19-3.16h0Z"/><path class="d" d="M66.74,82.9c0,2.13,.96,6.13-1.36,7.15-.84,.37-2.75,0-3.63,0-5.89,0-11.77,0-17.66,0H27.14c-.93,0-2.45,.3-3.35,0-3.49-1.15-2.53-5.76-2.53-8.53,0-2.02-2.49,.07-2.49,1.38,0,5.22-.76,10.14,5.66,10.3,6.98,.17,13.98,0,20.96,0,6.06,0,12.31,.44,18.36,0,6.39-.46,5.48-6.95,5.48-11.68,0-2.02-2.49,.07-2.49,1.38h0Z"/><path class="d" d="M9.65,17.13c1.25-3.24,2.98-6.5,5.18-9.19,2.88-3.51,9.64-7.28,13.53-2.98,3.11,3.43-1.46,7.28-4.37,8.81-4.39,2.31-10.02,2.98-14.85,1.68-1.25-.34-2.72,2.74-1.19,3.16,6.88,1.86,15.35-.16,20.48-5.12,2.69-2.6,4.89-7.29,2.38-10.78-3.28-4.56-10.67-2.6-14.26,.34-4.22,3.47-7.16,8.83-9.1,13.87-.82,2.14,1.55,1.86,2.19,.2Z"/><path class="d" d="M8.58,18.45L29.81,5.48c1.11-.68,1.67-3.9-.05-2.84L8.53,15.6c-1.11,.68-1.67,3.9,.05,2.84h0Z"/><path class="d" d="M22.03,15.48l1.48-7.15c.14-.66-.15-1.38-.92-1.24s-1.36,1.16-1.5,1.86l-1.48,7.15c-.14,.66,.15,1.38,.92,1.24s1.36-1.16,1.5-1.86h0Z"/><path class="d" d="M25.54,5.44l-8.12-.89c-1.33-.15-2.71,2.99-1.19,3.16l8.12,.89c1.33,.15,2.71-2.99,1.19-3.16h0Z"/><path class="d" d="M81.92,26.22c1.95,4.4,3.44,9.3,3.81,14.1,.39,5.16-2.46,14.42-9.33,12.99-6.44-1.33-5.12-10.34-3.43-14.65,1.89-4.83,5.62-9.45,10.18-12.05,1.14-.65,1.71-3.85-.05-2.84-6.17,3.53-11.01,10.01-13.03,16.76-1.55,5.17-2.06,14.38,4.96,15.9,5.71,1.24,10.68-4.81,12.36-9.51,2.55-7.15-.11-16.1-3.06-22.75-.73-1.64-2.92,.87-2.39,2.06Z"/><path class="d" d="M81.9,25.5l-7.19,29.73c-.53,2.19,2.08,.8,2.42-.61l7.19-29.73c.53-2.19-2.08-.8-2.42,.61h0Z"/><path class="d" d="M72.45,38.24l4.93,7.5c.83,1.25,2.88-1.48,2.14-2.61l-4.93-7.5c-.83-1.25-2.88,1.48-2.14,2.61h0Z"/><path class="d" d="M77.9,49.34l7.83-6.29c1.16-.93,1.08-3.82-.68-2.4l-7.83,6.29c-1.16,.93-1.08,3.82,.68,2.4h0Z"/><path class="d" d="M11.4,53.83c-2.47-2.04-2.8-5.56-2.85-8.54l-1.54,2.24c1.76-.48,3.73-.57,5.52-.2,4.49,.92,5.62,5.02,5.39,9.13-.11,2,2.41-.09,2.49-1.38,.25-4.51-.98-9.24-5.75-10.67-2.23-.67-4.82-.6-7.06,.02-.89,.24-1.55,1.36-1.54,2.24,.06,3.69,.61,7.67,3.61,10.15,1.03,.85,2.85-2.06,1.73-2.99h0Z"/><path class="d" d="M47.26,10.38c.73,1.27,1.23,2.78,1.44,4.23,.19,1.32,.15,2.8-.63,3.95-.47,.7-1.21,1.2-1.93,1.6-.54,.3-2.83,1.42-3.23,1.35-.1-.02-.47-.42-.78-.96-.5-.88-.91-1.83-1.12-2.82-.93-4.41,3.47-6.11,7.02-7.09,1.23-.34,2.26-3.57,.58-3.1-4.76,1.32-9.93,4.13-10.23,9.68-.13,2.5,.84,5.15,2.38,7.12,.2,.25,.48,.31,.78,.25,4.84-.99,9.21-3.83,9.68-9.13,.23-2.61-.53-5.39-1.83-7.66-.73-1.27-2.81,1.43-2.14,2.61Z"/><path class="d" d="M54.02,22.79c1.76-.48,3.73-.57,5.52-.2,4.49,.92,5.62,5.02,5.39,9.13l1.22-2.11c.36-.16-.04,.06-.24,.08-.41,.06-.84,.26-1.24,.36-1.16,.27-2.35,.38-3.54,.19-4.63-.73-5.52-5.76-5.57-9.69-.03-2.03-2.5,.07-2.49,1.38,.06,4.54,1.15,10.18,6.29,11.36,2.24,.52,4.75,.08,6.84-.83,.76-.33,1.18-1.36,1.22-2.11,.25-4.51-.98-9.24-5.75-10.67-2.23-.67-4.82-.6-7.06,.02-1.24,.34-2.26,3.56-.58,3.1Z"/><path class="d" d="M56.49,54.74c-.37-1.39-.57-3.04,.23-4.32,1.46-2.36,5.05-2.94,7.53-3.32l-.78-.25c1.16,2.3,1.4,5.75-1.21,7.5-.63,.43-1.33,1.29-1.22,2.11,.09,.65,.58,1.19,1.27,.73,4.37-2.94,5.65-8.27,3.3-12.95-.14-.28-.53-.29-.78-.25-3.8,.58-7.83,1.9-9.91,5.39-1.35,2.27-1.49,4.91-.83,7.42,.44,1.67,2.72-.81,2.39-2.06h0Z"/><path class="d" d="M56.18,54.27c-.5-4.33-3.41-6.52-7.69-5.9l.95,.86c.08-3.04-1.44-6.05-4.1-7.6-3.1-1.81-5.85-.34-9.04-.58-3.43-.26-6.06-.47-8.77,2.16-1.92,1.86-3.19,4.56-3.12,7.27l1.84-2.27c-4.42-.4-7.52,2.84-8,7.05-.26,2.24,2.25,.88,2.42-.61,.7-2.64,2.16-3.73,4.39-3.28,1.05,.1,1.86-1.38,1.84-2.27-.1-3.88,3.75-5.82,6.98-5.22,1.99,.37,1.57,.86,2.83,.76,2.74-.23,4.06-1.69,6.9-.02,2.13,1.24,3.4,3.48,3.33,5.99-.02,.6,.39,.94,.95,.86,3.07-.44,5.42,1.01,5.79,4.18,.23,2.04,2.64-.05,2.49-1.38h0Z"/><path class="d" d="M27.14,39.42c-.2,3.77-6.41,2-6.3-1.38,.06-1.66,1.82-2.32,3.27-2.06,1.71,.3,2.94,1.72,3.03,3.44,.11,2.04,2.56-.06,2.49-1.38-.17-3.1-2.56-5.67-5.82-5.23s-5.49,3.53-5.45,6.61,2.56,5.57,5.67,5.24c3.33-.36,5.43-3.48,5.6-6.62,.04-.79-.66-1.01-1.27-.73-.76,.34-1.18,1.34-1.22,2.11Z"/><path class="d" d="M55.6,39.42c-.2,3.77-6.41,2-6.3-1.38,.06-1.66,1.82-2.32,3.27-2.06,1.71,.3,2.94,1.72,3.03,3.44,.11,2.04,2.56-.06,2.49-1.38-.17-3.1-2.56-5.67-5.82-5.23s-5.49,3.53-5.45,6.61,2.56,5.57,5.67,5.24c3.33-.36,5.43-3.48,5.6-6.62,.04-.79-.66-1.01-1.27-.73-.76,.34-1.18,1.34-1.22,2.11Z"/><path class="d" d="M35.37,25.88c-.2,3.77-6.41,2-6.3-1.38,.06-1.66,1.82-2.32,3.27-2.06,1.71,.3,2.94,1.72,3.03,3.44,.11,2.04,2.56-.06,2.49-1.38-.17-3.1-2.56-5.67-5.82-5.23s-5.49,3.53-5.45,6.61,2.56,5.57,5.67,5.24c3.33-.36,5.43-3.48,5.6-6.62,.04-.79-.66-1.01-1.27-.73-.76,.34-1.18,1.34-1.22,2.11Z"/></g></g></g></svg>