<?xml version="1.0" encoding="UTF-8"?><svg xmlns="http://www.w3.org/2000/svg" viewBox="0 0 139.7 62.8"><defs><style>.d{fill:#f15f24;}</style></defs><g id="a"/><g id="b"><g id="c"><g><path class="d" d="M109.99,56.97h-16.01c-1.46,0-2.89,3.43-1.29,3.43h16.01c1.46,0,2.89-3.43,1.29-3.43h0Z"/><path class="d" d="M1.01,62.79c4.95-.61,6.51-5.88,7.56-10.02,.53-2.08,1.11-8.14,4.42-6.5,2.49,1.23,3.31,5.82,4.06,8.19,.8,2.53,1.89,9.39,5.85,8.16s5.93-8.82,7.88-12.05c5.47-9.09,11.44,.38,15.93,5.01s7.89,2.29,11.18-2.28c4.23-5.86,2.32-14.63,2.32-21.49V.96l-2,2.47c18.11,0,36.22,0,54.34,0h15.57c2.16,0,6.8,.92,8.8,0,1.13-.52,.13,.26,.07-.73,.08,1.25,0,2.52,0,3.77V51.5l2-2.47H68.69c-1.46,0-2.89,3.43-1.29,3.43h70.3c1.17,0,2-1.42,2-2.47V.96c0-.4-.22-.96-.71-.96H59.51c-1.17,0-2,1.42-2,2.47V25.92c0,7.94,.96,16.53,0,24.42,.28-2.34-.57,.5-1.33,1.49-1.66,2.18-2.97,3.71-5.47,2.4-2.72-1.43-4.65-5.21-6.79-7.36-3.25-3.27-7.41-5.3-11.39-2.09-4.24,3.4-4.99,9.08-8.13,13.21-2.16,2.83-3.06-.55-3.79-2.7-.94-2.75-1.58-5.63-2.81-8.28-1.67-3.6-5.11-6.41-8.45-2.69s-2.17,14.43-7.71,15.11c-1.39,.17-2.57,3.61-.64,3.37h0Z"/><path class="d" d="M74.61,41.92l16.09-15.44c.85-.81,1.68-1.64,2.54-2.44-.69,.64-1.31-.37-.5,.47,.41,.43,1.55,.66,2.1,.9l10.36,4.44c.48,.21,.93,0,1.31-.32l16.14-13.51c1.23-1.03,1.15-4.19-.74-2.61-4.85,4.06-10.55,7.83-14.86,12.44-1.55,1.66-1,.3-.27,.62-1.35-.59-2.71-1.16-4.07-1.74l-8.76-3.76c-.46-.2-.96-.02-1.31,.32l-18.76,18.01c-1.14,1.09-1.03,4.3,.74,2.61h0Z"/><path class="d" d="M116.76,15.31l6.38,.38-.66-.6,1.13,4.88c.2,.87,1.17,.59,1.67,.19,.67-.54,1.13-1.57,.93-2.42l-1.13-4.88c-.07-.29-.34-.58-.66-.6l-6.38-.38c-1.46-.09-2.93,3.33-1.29,3.43h0Z"/></g></g></g></svg>