<svg xmlns="http://www.w3.org/2000/svg" viewBox="0 0 215.37 216.26"><defs><style>.cls-1{fill:#f8eadb;}</style></defs><g id="Capa_2" data-name="Capa 2"><g id="Capa_1-2" data-name="Capa 1"><path class="cls-1" d="M0,216.26c2.72-9.94,5.34-19.55,8-29.15,2.23-8.17,4.51-16.33,6.64-24.52a5,5,0,0,0-.4-3.34c-26.73-49-12.34-109.34,33.88-140.7,22.17-15,46.85-21.32,73.38-17.42C166,7.69,195.76,32.92,210.2,75.36c13.32,39.13.15,84.78-31,112-16.63,14.54-35.76,23.52-57.64,26.31a105.12,105.12,0,0,1-62.4-10.95,6.59,6.59,0,0,0-5.1-.57c-17.31,4.62-34.63,9.15-51.95,13.71C1.58,216,1,216.07,0,216.26Zm25.72-25.4c.69-.16,1-.22,1.39-.31,9.71-2.55,19.44-5,29.13-7.68a7,7,0,0,1,5.88.76C88.27,198.72,115.55,201,143.28,189c38.47-16.61,59.19-55.73,52.39-97.29-6.58-40.24-42.46-71.89-83.31-73.41C89.79,17.45,69.49,23.86,52,38.19,31.79,54.74,20.75,76.27,19.13,102.35A86.62,86.62,0,0,0,33.43,156a4.82,4.82,0,0,1,.65,4.37C31.26,170.38,28.56,180.44,25.72,190.86Z"/><path class="cls-1" d="M73.15,58c4.91-1.28,7.06,1.65,8.67,5.82,2.4,6.22,5,12.35,7.66,18.48A5.44,5.44,0,0,1,89,88.22c-2.16,2.88-4.24,5.82-6.52,8.61a4.12,4.12,0,0,0-.36,5.32,73.43,73.43,0,0,0,36.83,31.69c2.18.87,3.92.55,5.4-1.29,2.67-3.34,5.46-6.59,8-10,1.49-2,3.21-2.78,5.42-1.75,7.67,3.59,15.31,7.23,22.89,11a3.61,3.61,0,0,1,1.57,2.69c.22,7.95-2.08,14.64-9.22,19.25-8.72,5.64-17.86,6.23-27.59,3.52-24.41-6.8-42.94-21.71-57.81-41.72C62.27,108.33,57.15,101,54.85,92.19c-2.78-10.71-1.09-20.47,6.24-29.09C64.28,59.35,67.88,57,73.15,58Z"/></g></g></svg>